<?xml version="1.0" standalone="no"?>
<!DOCTYPE svg PUBLIC "-//W3C//DTD SVG 1.1//EN" "http://www.w3.org/Graphics/SVG/1.1/DTD/svg11.dtd" >
<svg>
<metadata>
Created by FontForge 20090914 at Wed Aug  1 07:14:47 2018
 By www-data
Copyright (C) October 2017, Worawut Thanawatanawanich. All rights reserved.
</metadata>
<defs>
<font id="SOV_PhorDee" horiz-adv-x="440" >
  <font-face 
    font-family="SOV_PhorDee"
    font-weight="700"
    font-style="italic"
    font-stretch="normal"
    units-per-em="1000"
    panose-1="2 7 5 6 6 0 0 2 0 4"
    ascent="800"
    descent="-200"
    x-height="434.003"
    cap-height="988.004"
    bbox="-1900.14 -492.064 1569 1138.92"
    underline-thickness="30"
    underline-position="-20"
    slope="-22"
    unicode-range="U+0020-U+F78E"
  />
<missing-glyph horiz-adv-x="274" 
d="M16 406v-390h242v390h-242zM274 0h-274v423h274v-423z" />
    <glyph glyph-name="nine_in_heart" unicode="&#xe2f;&#xe23;&#xe2f;" horiz-adv-x="920" 
d="M871 1016c-0.666992 0 -1.33594 -0.337891 -2.00293 -1.00488c-31.333 -6 -54.5 -10.667 -69.5 -14s-35.667 -9.5 -62 -18.5s-48.833 -19.167 -67.5 -30.5c-30.667 -18.667 -55 -44 -73 -76s-26.333 -69.667 -25 -113c0 -8.66699 0.5 -17.834 1.5 -27.501
s2.66699 -20.5 5 -32.5s4.33301 -21.667 6 -29l8 -34c3.66699 -15.333 5.83398 -25 6.50098 -29c6.66699 -29.333 10.667 -51.666 12 -66.999c1.33301 -18.667 -0.166992 -31.5 -4.5 -38.5s-8.83301 -10.833 -13.5 -11.5c-3.33301 -1.33301 -7.66602 -0.333008 -12.999 3
c-9.33301 4.66699 -23.333 18.667 -42 42c-24 29.333 -40.667 48.333 -50 57c-21.333 19.333 -41.333 27.333 -60 24c-10 -2 -18.667 -8.33301 -26 -19c-6 -9.33301 -10 -19.333 -12 -30c-5.33301 -37.333 1.33398 -77 20.001 -119h-6c-6 0 -12 -0.333008 -18 -1
c-36.667 -4.66699 -80 -24 -130 -58c-49.333 -34 -85.666 -84 -108.999 -150c-24.667 -70 -24 -130.333 2 -181c14 -27.333 39.333 -47 76 -59c38 -12.667 70 -11.334 96 3.99902c17.333 10 32.666 25 45.999 45s23.333 42 30 66
c6.66699 24.667 8.33398 47.334 5.00098 68.001c-3.33301 23.333 -13 41.333 -29 54c-8 6 -16.333 8.33301 -25 7c-7.33301 -0.666992 -15.333 -4 -24 -10c-8 -5.33301 -21.333 -17 -40 -35v-1c-2 -2 -3 -4.33301 -3 -7s0.833008 -5 2.5 -7s3.83398 -3 6.50098 -3
s5 0.666992 7 2c14.667 12 25 17.333 31 16c3.33301 -0.666992 9 -5.66699 17 -15c15.333 -16.667 22.166 -40.167 20.499 -70.5s-11.167 -50.833 -28.5 -61.5c-18.667 -11.333 -42.667 -10.666 -72 2.00098c-28.667 12.667 -48.667 30 -60 52
c-20.667 42 -23.334 91.333 -8.00098 148c7.33301 26.667 18.166 50.5 32.499 71.5s30.833 36.833 49.5 47.5c20 10.667 36.667 18.334 50 23.001s27 5.33398 41 2.00098c22 -4 43 -14.167 63 -30.5s36.667 -35.5 50 -57.5c14 -22.667 23.167 -47.5 27.5 -74.5
s6.83301 -60.167 7.5 -99.5c0 -41.333 2.66699 -72.333 8 -93c8 -32.667 23.333 -57.667 46 -75c21.333 -15.333 44.5 -25.833 69.5 -31.5s51.5 -5.16699 79.5 1.5s54.333 19.667 79 39h1c2 2 3.16699 4.33301 3.5 7s-0.333984 5 -2.00098 7s-3.66699 3.33301 -6 4
s-4.83301 0 -7.5 -2c-26 -17.333 -55 -26 -87 -26s-59 8.66699 -81 26c-21.333 16.667 -36 41 -44 73c-6 22.667 -9.33301 55.667 -10 99c0 2 -0.166992 9.83301 -0.5 23.5s-0.666016 21.834 -0.999023 24.501s-0.666016 10 -0.999023 22s-0.833008 20.167 -1.5 24.5
s-1.66699 11.5 -3 21.5s-2.83301 17.833 -4.5 23.5l-6 20.5c-2.33301 8 -5.16602 15.333 -8.49902 22s-7 13.334 -11 20.001c-5.33301 8.66699 -17 22 -35 40c-2.66699 3.33301 -7.33398 9.83301 -14.001 19.5l-18 27c-5.33301 8.33301 -9.66602 16.166 -12.999 23.499
c-1.33301 4 -3.83301 9.5 -7.5 16.5s-6.66699 13 -9 18s-4.83301 11 -7.5 18s-4.5 13 -5.5 18s-1.33301 10.167 -1 15.5s1.5 9.66602 3.5 12.999c4 6 8 9 12 9c3.33301 0.666992 7.66602 -1 12.999 -5c9.33301 -7.33301 24 -24.666 44 -51.999
c22.667 -31.333 39.667 -52.333 51 -63c10 -9.33301 19.667 -15.666 29 -18.999c11.333 -4 22 -3.33301 32 2c17.333 8.66699 28 26.334 32 53.001c2.66699 18.667 2.66699 45.667 0 81c-0.666992 8 -2 22.667 -4 44s-3.33301 37.666 -4 48.999s-1 24.833 -1 40.5
s1 28.834 3 39.501c8 49.333 34.333 96.666 79 141.999c46.667 48 101.667 80 165 96c2 0.666992 3.83301 2 5.5 4s2.16699 4.33301 1.5 7c-0.666992 6 -4 9 -10 9zM760.998 433.995c-6.66699 0 -13.6602 -0.665039 -20.9932 -1.99805c-36.667 -4.66699 -71 -21 -103 -49
c-14.667 -12.667 -30.667 -29.667 -48 -51c-2 -2 -2.83301 -4.33301 -2.5 -7s1.66602 -4.83398 3.99902 -6.50098s4.83301 -2.5 7.5 -2.5c2.66699 0.666992 5 2 7 4c18.667 23.333 41.167 43.833 67.5 61.5s50.5 27.167 72.5 28.5c23.333 1.33301 47 -4.33398 71 -17.001
s42.667 -29 56 -49c22 -33.333 34.667 -73.833 38 -121.5s-3 -90.5 -19 -128.5c-8.66699 -21.333 -20.667 -44 -36 -68c-36.667 -53.333 -85.334 -108.666 -146.001 -165.999c-22.667 -20.667 -45.334 -40.334 -68.001 -59.001
c-50.667 -40.667 -99.334 -74.667 -146.001 -102c-20.667 -12.667 -38.667 -22.334 -54 -29.001c-7.33301 -3.33301 -14.333 -6 -21 -8c-0.666992 37.333 -9.33398 73 -26.001 107c-6 12.667 -14 25.334 -24 38.001s-18.167 22.167 -24.5 28.5l-31.5 30.5
c-24 22.667 -42 41.667 -54 57l-10 14c-4 5.33301 -7.33301 10.666 -10 15.999c-3.33301 5.33301 -6.33301 10.666 -9 15.999c-1.33301 2.66699 -3.33301 4.33398 -6 5.00098s-5.16699 0.333984 -7.5 -0.999023s-4 -3.16602 -5 -5.49902s-0.833008 -4.83301 0.5 -7.5
c2.66699 -6 5.66699 -12 9 -18c8 -12 15 -22 21 -30h1c11.333 -15.333 30.666 -37 57.999 -65c19.333 -19.333 34.5 -36.166 45.5 -50.499s19.5 -30.5 25.5 -48.5c6.66699 -20.667 10.334 -38.334 11.001 -53.001s-3 -35 -11 -61
c-0.666992 -2.66699 -0.166992 -5.33398 1.5 -8.00098s4.16699 -4.33398 7.5 -5.00098c10 -0.666992 24.667 3 44 11c18 8 39 19.333 63 34c52.667 31.333 107.667 71 165 119c23.333 19.333 46 39.333 68 60c64 58.667 113.333 114.667 148 168
c28 40.667 48.333 79.334 61 116.001c15.333 39.333 19.5 83.333 12.5 132s-24.5 88 -52.5 118c-16.667 18 -36.834 31.5 -60.501 40.5s-46.834 13.833 -69.501 14.5z" />
    <glyph glyph-name="uvSOV" unicode="&#xe2f;&#xe23;&#xe2d;&#xe07;&#xe2f;" horiz-adv-x="1310" 
d="M743 543c0 0.666992 1.99902 -0.336914 5.99902 -3.00391c5.33301 -4.66699 15 -5.66699 29 -3c13.333 3.33301 23.333 2 30 -4c3.33301 -4 6 -6 8 -6s5.66699 2 11 6c5.33301 3.33301 9.5 4.83301 12.5 4.5s7.16699 -3.16602 12.5 -8.49902c4 -4 6.66699 -6.33301 8 -7
s3.33301 -0.666992 6 0c3.33301 0 5 -0.333008 5 -1c-2 -1.33301 -5.16699 -2 -9.5 -2s-9 2.66699 -14 8s-8.83301 7.5 -11.5 6.5s-5.66699 -3.16699 -9 -6.5s-6.83301 -5.16602 -10.5 -5.49902s-7.66699 1.33398 -12 5.00098s-7.5 4.5 -9.5 2.5
c-3.33301 -3.33301 -9.66602 -23.666 -18.999 -60.999c-4.66699 -18.667 -5.33398 -30 -2.00098 -34c2 -2.66699 5.16699 -3.66699 9.5 -3s7.5 0.166992 9.5 -1.5s2.33301 -2.83398 1 -3.50098c0 -0.666992 -0.666992 -0.333984 -2 0.999023c-2 1.33301 -4.33301 1 -7 -1
c-5.33301 -2.66699 -10.666 -1 -15.999 5s-14.666 20.667 -27.999 44c-17.333 29.333 -28.666 45.333 -33.999 48c-2.66699 0.666992 -4.83398 2.16699 -6.50098 4.5s-4.16699 4.16602 -7.5 5.49902l2 1c4.66699 -0.666992 8.16699 -1.66699 10.5 -3
s8.16602 -1.66602 17.499 -0.999023l13 1l6 -7c3.33301 -4 5.66602 -5.83301 6.99902 -5.5s2 0 2 -1s-0.833008 -1.5 -2.5 -1.5s-3.5 0.666992 -5.5 2l-5 2c-2.66699 2.66699 -5 3.66699 -7 3c-2 -1.33301 -2.5 -3.33301 -1.5 -6s5.83301 -11 14.5 -25
c9.33301 -15.333 14.333 -22.333 15 -21c0.666992 2 2.66699 11.5 6 28.5s5 26.167 5 27.5c-0.666992 1.33301 -3.66699 2.33301 -9 3s-9.66602 2.83398 -12.999 6.50098s-5 5.83398 -5 6.50098zM613.999 567.996c1.33301 4.66699 2.33203 6.99805 2.99902 6.99805
c0.666992 -0.666992 1 -2.66699 1 -6c0 -6.66699 3 -7.66699 9 -3c3.33301 2 7.33301 2.66699 12 2s8 -2.66699 10 -6c4 -6 3.66699 -17.333 -1 -34c-3.33301 -10.667 -5 -17.667 -5 -21s1.66699 -6.33301 5 -9c2.66699 -3.33301 7.33398 -4.66602 14.001 -3.99902
s12.334 1 17.001 1h8v6c-0.666992 4.66699 -5 14.334 -13 29.001c-4 7.33301 -5.5 14.5 -4.5 21.5s4.16699 12.167 9.5 15.5c4 2 8.83301 2.33301 14.5 1s9.5 -3.66602 11.5 -6.99902c0.666992 -2 0.666992 -5.66699 0 -11v-8l4 -2
c5.33301 -1.33301 4.66602 -2.33301 -2.00098 -3c-2 -0.666992 -4.33301 -1 -7 -1c-5.33301 0 -8.66602 1.33301 -9.99902 4c-4 6 -3.33301 10 2 12c2 1.33301 2.83301 2.5 2.5 3.5s-1.83301 1.66699 -4.5 2s-4.66699 -0.833984 -6 -3.50098
c-4 -5.33301 -1.33301 -13.666 8 -24.999c9.33301 -10.667 14 -20.667 14 -30c0 -6 -1.83301 -11 -5.5 -15s-5.5 -7.66699 -5.5 -11c0 -2.66699 0.333008 -4.33398 1 -5.00098s2.66699 -1.33398 6 -2.00098l6 -2h-7c-6 0 -10.333 3.33301 -13 10l-3 5h-22
c-12.667 0.666992 -20.834 1.66699 -24.501 3s-7.16699 4.66602 -10.5 9.99902c-4 6 -3.66699 18.333 1 37c4.66699 16.667 5.66699 25 3 25c-1.33301 0 -3.33301 -0.666992 -6 -2s-5.33398 -1.66602 -8.00098 -0.999023c-5.33301 2.66699 -6.66602 8.33398 -3.99902 17.001
zM681.998 584.994c26.667 6 42.333 4.66699 47 -4c2 -4 1.33301 -4.66699 -2 -2c-6 4 -17.333 3.66699 -34 -1c-14.667 -4 -25.667 -4.66699 -33 -2c-2.66699 1.33301 -5.5 3 -8.5 5s-5.83301 3 -8.5 3l-2 2c1.33301 2 7 1.66699 17 -1c6 -1.33301 14 -1.33301 24 0z
M578.997 -63.0059c10 -2 22.9961 -2.99902 38.9961 -2.99902c14 -0.666992 27.333 -0.333984 40 0.999023c0.666992 -0.666992 22 4 64 14c20.667 4.66699 38 10.334 52 17.001c8.66699 4.66699 18.834 12 30.501 22s21.5 19.667 29.5 29
c24 29.333 40.833 60.166 50.5 92.499s11.834 63.5 6.50098 93.5c-11.333 65.333 -42 114.333 -92 147c-39.333 26 -86.333 44.333 -141 55c-10.667 2 -25.667 3 -45 3s-32.666 -1 -39.999 -3l-11 -3l9 10c19.333 23.333 29 46 29 68c0 16 -4.16699 30.833 -12.5 44.5
s-18.5 22.834 -30.5 27.501c-7.33301 2.66699 -24.333 3.66699 -51 3c-14 0 -23.333 0.333008 -28 1c-25.333 7.33301 -37.333 25 -36 53c0.666992 8.66699 2.33398 16 5.00098 22c6.66699 14 21.667 28.333 45 43c14 9.33301 23.333 16.5 28 21.5s7 11.167 7 18.5
s-2.16699 14 -6.5 20s-13.166 14.667 -26.499 26c-20.667 18 -31 33.333 -31 46c0 8 5 17.333 15 28s15.667 23.334 17 38.001c1.33301 15.333 0 27 -4 35l1 -7c2 -14.667 1 -27.334 -3 -38.001s-13 -20.334 -27 -29.001c-12.667 -8.66699 -19.834 -17.5 -21.501 -26.5
s1.83301 -20.833 10.5 -35.5c10 -16.667 15.333 -29.667 16 -39c0.666992 -6 -0.333008 -11.667 -3 -17c-3.33301 -8 -10.666 -16.667 -21.999 -26c-24.667 -19.333 -40.667 -42.666 -48 -69.999c-2.66699 -9.33301 -4 -21.333 -4 -36s1.33301 -26 4 -34
c6.66699 -21.333 17 -36.166 31 -44.499s35.333 -11.833 64 -10.5l24 1l8 -6c9.33301 -7.33301 14 -16.666 14 -27.999c0 -14.667 -13.667 -35 -41 -61c-38.667 -36 -63.334 -67.667 -74.001 -95c-13.333 -33.333 -12.333 -60 3 -80c1.33301 -2 3 -3.66699 5 -5
c10.667 -12 16.334 -16.333 17.001 -13c0.666992 1.33301 2.33398 7.33301 5.00098 18c18 67.333 59 105 123 113c24.667 2.66699 49.334 2.33398 74.001 -0.999023c48 -6 87.333 -24.667 118 -56c35.333 -36.667 53 -76.334 53 -119.001c0 -22.667 -2.66699 -41.667 -8 -57
s-14.333 -31 -27 -47c-7.33301 -8.66699 -17.666 -17.834 -30.999 -27.501s-26 -16.834 -38 -21.501c-20 -8.66699 -37.333 -14.667 -52 -18c-12 -2.66699 -30.333 -3.33398 -55 -2.00098s-44.334 3.66602 -59.001 6.99902c-44.667 11.333 -66.667 40.666 -66 87.999
c0 22.667 6.33301 40.667 19 54c9.33301 8.66699 22.666 15.334 39.999 20.001c28 6.66699 45.667 -1.33301 53 -24c4 -10 4 -16.667 0 -20c-2.66699 -1.33301 -5 -1 -7 1c-7.33301 6.66699 -15.833 8.83398 -25.5 6.50098s-16.5 -8.16602 -20.5 -17.499
c-2.66699 -6.66699 -3.83398 -14.834 -3.50098 -24.501s2.5 -17.834 6.5 -24.501c6 -11.333 13.667 -19.333 23 -24c13.333 -7.33301 30.666 -10.5 51.999 -9.5s41 5.5 59 13.5l9 4h-16c-28.667 0.666992 -46.334 4.33398 -53.001 11.001c-2.66699 2.66699 -4 7 -4 13
c1.33301 11.333 6.33301 23.333 15 36c10.667 16 11.334 35 2.00098 57c-5.33301 13.333 -11.833 23.5 -19.5 30.5s-18.167 12.167 -31.5 15.5c-7.33301 2 -19.333 3 -36 3s-28.334 -1 -35.001 -3c-20 -5.33301 -38 -16 -54 -32s-26.333 -33.333 -31 -52
c-4 -16 -5.33301 -33 -4 -51c2 -18.667 7.33301 -36.167 16 -52.5s19.334 -28.833 32.001 -37.5c11.333 -8.66699 28.333 -17 51 -25s42.667 -13 60 -15zM21.9932 220.995l6.99902 -5.99805c4.66699 -4 12.167 -8.5 22.5 -13.5s19 -8.5 26 -10.5s26.667 -3 59 -3
s50.166 -0.833008 53.499 -2.5s5.83301 -3.83398 7.5 -6.50098s1.16699 -8 -1.5 -16c-5.33301 -16 -5.66602 -30.667 -0.999023 -44c2 -6.66699 2.66699 -10 2 -10c-5.33301 -2 -9 -6 -11 -12c-0.666992 -3.33301 -0.666992 -8 0 -14c1.33301 -7.33301 4.33301 -13 9 -17
s14.334 -8.66699 29.001 -14c22 -8 29.667 -21.667 23 -41c-3.33301 -9.33301 -11.5 -18.166 -24.5 -26.499s-25.167 -12.5 -36.5 -12.5c-6 0 -17.333 1.66699 -34 5c-30.667 6 -55 6.66699 -73 2c-7.33301 -2 -11.333 -3.33301 -12 -4l2 -1c12 2.66699 24.333 4 37 4
c13.333 0 30.666 -2.66699 51.999 -8c18 -5.33301 35.333 -6.33301 52 -3c12 2.66699 23 7.66699 33 15c7.33301 6 13 14 17 24s5 20.333 3 31c-1.33301 6.66699 -2.66602 11.667 -3.99902 15c-4 8 -11.667 14 -23 18c-6 2.66699 -10.5 5 -13.5 7s-4.16699 3.66699 -3.5 5
c2 3.33301 8 3.33301 18 0c8 -2.66699 23.5 -4 46.5 -4s40.5 1.33301 52.5 4c16.667 3.33301 30.667 9.33301 42 18c22.667 16.667 33 44.667 31 84c-0.666992 16 -6 29.333 -16 40c-8.66699 9.33301 -27 19 -55 29c-42 15.333 -69.667 27.666 -83 36.999
c-15.333 10 -24.333 19 -27 27c-5.33301 13.333 -1.33301 25 12 35c16.667 12 35.667 18 57 18c20 0 37.333 -3 52 -9c7.33301 -2.66699 14 -7 20 -13s10 -12.333 12 -19c2 -7.33301 2.5 -15.333 1.5 -24s-3.16699 -13 -6.5 -13c-1.33301 0 -4.16602 1.33301 -8.49902 4
s-9.83301 4.16699 -16.5 4.5s-10.5 1 -11.5 2s-0.833008 4.16699 0.5 9.5s1 9.66602 -1 12.999c-2.66699 6 -8.33398 11 -17.001 15h-2c8 -6.66699 12.5 -11.5 13.5 -14.5s-1.16699 -8.5 -6.5 -16.5c-7.33301 -10.667 -8.33301 -21 -3 -31
c2.66699 -5.33301 6.66699 -9 12 -11c16 -6.66699 31 -3.66699 45 9c6.66699 6.66699 10.834 12.5 12.501 17.5s2.5 13.5 2.5 25.5c0 18.667 -2.5 32 -7.5 40s-15.833 15.667 -32.5 23l-18 9c-14 8.66699 -16.333 21 -7 37c3.33301 6 4.66602 9 3.99902 9
c-0.666992 0.666992 -1.5 0.333984 -2.5 -0.999023s-2 -3 -3 -5s-2.16699 -4 -3.5 -6s-2.5 -4.16699 -3.5 -6.5s-1.5 -3.83301 -1.5 -4.5c-2 -10.667 0 -19.667 6 -27l4 -4h-4c-2 0 -7.33301 1 -16 3c-18 4 -36.333 3 -55 -3s-34 -16 -46 -30
c-12.667 -15.333 -18.334 -33.666 -17.001 -54.999c0.666992 -16 6.5 -28.333 17.5 -37s38.833 -22.667 83.5 -42c28 -12.667 46.5 -22 55.5 -28s15.5 -12.667 19.5 -20c3.33301 -7.33301 4.33301 -15.833 3 -25.5s-4.33301 -17.167 -9 -22.5
c-5.33301 -5.33301 -15.5 -11 -30.5 -17s-27.833 -9.33301 -38.5 -10c-14 -1.33301 -28 1 -42 7s-23 13.333 -27 22c-2.66699 7.33301 -2.66699 16.666 0 27.999l2 8l5 -3c5.33301 -3.33301 11.666 -3.33301 18.999 0c8 3.33301 12 10 12 20c0 8 -2.66699 15.667 -8 23
s-11.666 12 -18.999 14c-17.333 4 -48.666 2.33301 -93.999 -5c-40 -6.66699 -69 -7.33398 -87 -2.00098c-17.333 4.66699 -28.333 9 -33 13zM1285.99 320.997l-7.00195 0.000976562c-9.33301 -2 -18.333 -0.666992 -27 4c-7.33301 4 -14.333 11 -21 21
c-8 13.333 -18.333 22.333 -31 27c-14.667 6 -43 6.33301 -85 1c-38.667 -4.66699 -63 -5.33398 -73 -2.00098c-4 2 -9 5.33301 -15 10s-11.667 7 -17 7s-10 -0.666992 -14 -2s-7.66699 -1.66602 -11 -0.999023c-7.33301 2 -14.333 9.66699 -21 23l-4 10l1 -9
c1.33301 -12 6 -21.667 14 -29s16.333 -10 25 -8c4.66699 0.666992 7.66699 0.833984 9 0.500977s3.33301 -2.83301 6 -7.5c4 -8.66699 12.667 -13.334 26 -14.001c8 -0.666992 12.667 -2.33398 14 -5.00098c2.66699 -4.66699 2 -12.834 -2 -24.501s-17 -42.834 -39 -93.501
c-27.333 -64 -41.333 -96 -42 -96l-38 91l-42 102c-0.666992 0.666992 -0.833984 1.16699 -0.500977 1.5s1 0.5 2 0.5s2.33301 0.166992 4 0.5s3.83398 0.5 6.50098 0.5c13.333 0.666992 21.666 4.33398 24.999 11.001s8.66602 8 15.999 4
c16.667 -10 17.334 -25 2.00098 -45c-10 -12 -15 -25.667 -15 -41c0 -11.333 3.66699 -20 11 -26c9.33301 -8.66699 15 -12.334 17 -11.001l-4 4c-14.667 9.33301 -20.667 21.333 -18 36c2.66699 11.333 8.66699 23.333 18 36c8.66699 12 13 22 13 30
c0 11.333 -5.66699 23 -17 35c-7.33301 7.33301 -19.333 12 -36 14c-8 1.33301 -13.667 1.5 -17 0.5s-7.66602 -4.16699 -12.999 -9.5c-5.33301 -6 -9 -8.66699 -11 -8s-4.66699 4 -8 10c-4.66699 8.66699 -9 14 -13 16s-9.66699 1.66699 -17 -1s-11.833 -3.5 -13.5 -2.5
s-4.5 5.16699 -8.5 12.5c-6 12 -14.667 18 -26 18l-7 -1l8 -1c10 -2 16.333 -9 19 -21c1.33301 -6.66699 3 -11 5 -13s9.33301 -2 22 0c4.66699 0.666992 8.33398 0 11.001 -2c5.33301 -3.33301 24 -49 56 -137c27.333 -76 46.333 -124.667 57 -146
c16 -33.333 30.667 -53.333 44 -60c10 -5.33301 14.667 -13 14 -23l1 -7c1.33301 1.33301 2.16602 5.33301 2.49902 12s-0.166992 11 -1.5 13s-5.66602 4.66699 -12.999 8s-11.666 6 -12.999 8c-4.66699 4.66699 -4.66699 14.334 0 29.001
c2.66699 9.33301 19.5 50.333 50.5 123s50.167 115.667 57.5 129c7.33301 14.667 20.666 26.667 39.999 36c15.333 8 29 11.333 41 10c18.667 -3.33301 34.334 -13.666 47.001 -30.999c14 -20 28.667 -27 44 -21z" />
    <glyph glyph-name=".notdef" horiz-adv-x="274" 
d="M16 406v-390h242v390h-242zM274 0h-274v423h274v-423z" />
    <glyph glyph-name="space" unicode=" " horiz-adv-x="300" 
 />
    <glyph glyph-name="exclam" unicode="!" horiz-adv-x="320" 
d="M386 582c-5.33301 0 -12.001 -1.00098 -20.001 -3.00098c-12.667 -3.33301 -23.667 -7.66602 -33 -12.999c-12 -6.66699 -19.667 -14.334 -23 -23.001c-53.333 -160.667 -86.666 -281 -99.999 -361c-0.666992 -3.33301 0.333008 -6.33301 3 -9s5.66699 -3.66699 9 -3
c6 1.33301 12.333 3 19 5c6.66699 2.66699 12 5.33398 16 8.00098c6 4 10 8.66699 12 14l30 83l34 95c8.66699 24 20 53.167 34 87.5s28 65.5 42 93.5c3.33301 6 3.33301 11.667 0 17c-2.66699 4 -7 6.66699 -13 8c-2 0 -4.33301 0.333008 -7 1h-3zM224.999 129.999
c-0.666992 0 -1.33203 -0.333008 -1.99902 -1c-9.33301 -4 -18.666 -9 -27.999 -15c-8.66699 -6 -15.334 -11.667 -20.001 -17c-7.33301 -7.33301 -11.333 -14.666 -12 -21.999c-1.33301 -10.667 2 -21 10 -31c7.33301 -8.66699 16 -15 26 -19
c10.667 -2.66699 21.334 -2.5 32.001 0.5s20 8.16699 28 15.5c7.33301 7.33301 12.666 16 15.999 26c3.33301 11.333 3 21.666 -1 30.999c-4 8.66699 -11 15.667 -21 21c-6.66699 3.33301 -13.334 5 -20.001 5c-0.666992 4 -3 6 -7 6h-1z" />
    <glyph glyph-name="quotedbl" unicode="&#x22;" horiz-adv-x="380" 
d="M323.5 567.5c-4.33301 -0.333008 -8.5 -0.833984 -12.5 -1.50098c-4.66699 -0.666992 -8.33398 -1.66699 -11.001 -3c-4.66699 -2 -7.66699 -5 -9 -9c-6 -15.333 -12.5 -34.833 -19.5 -58.5s-14.5 -51.167 -22.5 -82.5s-14.333 -54.666 -19 -69.999
c-1.33301 -4.66699 -0.666016 -8.66699 2.00098 -12c2 -3.33301 5 -5.66602 9 -6.99902c4.66699 -1.33301 10.667 -1 18 1c6 1.33301 11.667 3.66602 17 6.99902c6 4 10.333 8.66699 13 14c8 15.333 21.833 47.333 41.5 96l38.5 94c2 5.33301 2 10.333 0 15
c-2 3.33301 -5 6.33301 -9 9c-6 3.33301 -14 5.66602 -24 6.99902c-4 0.666992 -8.16699 0.833984 -12.5 0.500977zM423.5 567.499c-4.33301 -0.333008 -8.5 -0.834961 -12.5 -1.50195c-4.66699 -0.666992 -8.33398 -1.66699 -11.001 -3c-4.66699 -2 -7.66699 -5 -9 -9
c-0.666992 -2 -8.16699 -20.167 -22.5 -54.5s-26 -63.666 -35 -87.999s-16.833 -47.166 -23.5 -68.499c-1.33301 -4.66699 -0.666016 -8.66699 2.00098 -12c2 -3.33301 5 -5.66602 9 -6.99902c4.66699 -1.33301 10.667 -1 18 1c6 1.33301 11.667 3.66602 17 6.99902
c6 4 10.333 8.66699 13 14c1.33301 2 15.333 27.167 42 75.5s46 86.5 58 114.5c2 5.33301 2 10.333 0 15c-2 3.33301 -5 6.33301 -9 9c-6 3.33301 -14 5.66602 -24 6.99902c-4 0.666992 -8.16699 0.833984 -12.5 0.500977z" />
    <glyph glyph-name="numbersign" unicode="#" 
d="M424 391l-2 0.00390625c-4 0 -8 -0.666992 -12 -2c-8.66699 -2.66699 -15 -8.33398 -19 -17.001l-13 -27l-14 -29h-24l19 40c2 4 1.66699 8.33301 -1 13c-1.33301 2.66699 -3.66602 5 -6.99902 7c-4.66699 3.33301 -10.667 5.66602 -18 6.99902
c-4 0.666992 -7.66699 0.666992 -11 0c-4 0 -8 -0.666992 -12 -2c-8.66699 -2.66699 -15 -8.33398 -19 -17.001c-2.66699 -5.33301 -6.66699 -13.833 -12 -25.5s-9.66602 -20.5 -12.999 -26.5c-22 -1.33301 -43.333 -3.33301 -64 -6c-6.66699 -1.33301 -12 -5.33301 -16 -12
c-2 -4 -3.66699 -9 -5 -15l-1 -19c0 -2.66699 1 -5 3 -7s4.33301 -3 7 -3c15.333 0 31.666 -0.333008 48.999 -1c-4 -8.66699 -7.66699 -18 -11 -28c-24 -0.666992 -46 -2.33398 -66 -5.00098c-6.66699 -1.33301 -12 -5.33301 -16 -12c-2 -4 -3.66699 -9 -5 -15l-1 -19
c0 -2.66699 1 -5 3 -7s4.33301 -3 7 -3c18.667 -0.666992 37.667 -1 57 -1c-6.66699 -25.333 -12.334 -51 -17.001 -77c-0.666992 -3.33301 0 -6 2 -8s4.33301 -3.33301 7 -4h20c6.66699 0.666992 12 1.66699 16 3c7.33301 3.33301 12 8 14 14c10 25.333 19 49.333 27 72h29
c-6 -22.667 -11 -45.667 -15 -69c-0.666992 -3.33301 0 -6 2 -8s4.33301 -3.33301 7 -4h20c6.66699 0.666992 12 1.66699 16 3c7.33301 3.33301 12 8 14 14l25 66c20.667 0.666992 41.667 1.66699 63 3c8.66699 0 15.667 3 21 9c5.33301 4.66699 8.33301 10.667 9 18
c1.33301 6.66699 1 12.667 -1 18c-1.33301 3.33301 -3.33301 5.66602 -6 6.99902c-3.33301 2.66699 -7 4 -11 4c-14 -1.33301 -31.667 -1.66602 -53 -0.999023c4 10.667 8.33301 21.334 13 32.001c22.667 0.666992 45.334 1.66699 68.001 3c10 0 17 4.33301 21 13
c3.33301 6 4.66602 13.333 3.99902 22c-0.666992 6.66699 -2.33398 13 -5.00098 19c-2 3.33301 -4 6 -6 8c-4 2.66699 -8 4 -12 4c-12 -1.33301 -26 -2 -42 -2l22 46c2 4 1.66699 8.33301 -1 13c-1.33301 2.66699 -3.66602 5 -6.99902 7
c-4.66699 3.33301 -10.667 5.66602 -18 6.99902h-9zM335 249.004c-4 -10 -7.33301 -19.333 -10 -28h-25l11 28h24z" />
    <glyph glyph-name="dollar" unicode="$" 
d="M425 523c-2.66699 0 -5.00586 -1.00098 -7.00586 -3.00098s-3 -4.33301 -3 -7c0 -7.33301 -3 -17.333 -9 -30c-3.33301 -6.66699 -5.66602 -11.667 -6.99902 -15h-6l0.5 1c0.333008 0.666992 0.5 1.33398 0.5 2.00098c7.33301 15.333 11 28 11 38c0 2.66699 -1 5 -3 7
s-4.33301 3 -7 3s-5 -1 -7 -3s-3 -4.33301 -3 -7c0 -7.33301 -3 -17.333 -9 -30c-2.66699 -6 -4.66699 -10.667 -6 -14c-13.333 -2 -26.333 -5.66699 -39 -11c-24.667 -9.33301 -45.667 -21.333 -63 -36c-22.667 -20 -34 -41.333 -34 -64
c-0.666992 -23.333 10.666 -45.333 33.999 -66c12.667 -11.333 35.667 -26.666 69 -45.999c32 -18 54 -32.333 66 -43c17.333 -16 25.333 -32.667 24 -50c-1.33301 -27.333 -16 -52.333 -44 -75s-56.333 -34 -85 -34c-31.333 0 -61.666 12.333 -90.999 37
c-30.667 24.667 -46.334 51 -47.001 79c0 10 5.16699 19.833 15.5 29.5s20.5 14.167 30.5 13.5c14 -1.33301 27.667 -10 41 -26c6 -6.66699 9.66699 -13 11 -19s0.333008 -10.667 -3 -14c-1.33301 -2 -2 -4.5 -2 -7.5s1.16699 -5.33301 3.5 -7
s4.83301 -2.33398 7.5 -2.00098s5 1.5 7 3.5c16 20 22 39 18 57c-4.66699 18.667 -19.334 32.334 -44.001 41.001c-27.333 10 -56.666 0.666992 -87.999 -28c-30 -27.333 -45 -56 -45 -86c0 -32 16.333 -61.333 49 -88c15.333 -12.667 31.666 -22.334 48.999 -29.001
c-1.33301 -2.66699 -2.66602 -6 -3.99902 -10c-7.33301 -18.667 -11 -33 -11 -43c0 -2.66699 1 -5 3 -7s4.33301 -3 7 -3s5 1 7 3s3 4.33301 3 7c0 7.33301 3 19 9 35c2.66699 6 4.33398 10 5.00098 12l10 -2c-0.666992 -2 -1.66699 -4.66699 -3 -8
c-7.33301 -18.667 -11 -33 -11 -43c0 -2.66699 1 -5 3 -7s4.33301 -3 7 -3s5 1 7 3s3 4.33301 3 7c0 7.33301 3 19 9 35c2.66699 7.33301 4.66699 12.333 6 15c46 1.33301 90 20.333 132 57c44 39.333 67.333 81.666 70 126.999c0.666992 24 -9.66602 46 -30.999 66
c-12.667 12 -35 27.667 -67 47c-31.333 18.667 -52.666 33.334 -63.999 44.001c-17.333 16 -25.666 32.667 -24.999 50c0 8 4.33301 15.667 13 23c8 7.33301 18 13 30 17c24 8 47 11.667 69 11c26 -0.666992 45 -7.66699 57 -21c6 -6.66699 9 -16 9 -28s-3 -20.333 -9 -25
c-4 -2.66699 -9.66699 -3.33398 -17 -2.00098c-6.66699 2 -10.667 4.66699 -12 8c-2 4.66699 -5.5 6.83398 -10.5 6.50098s-7.83301 -3.16602 -8.5 -8.49902c-2 -10 -0.333008 -18 5 -24c4.66699 -5.33301 11.334 -8 20.001 -8c12.667 0 24.334 4 35.001 12
c14.667 10.667 22.667 28 24 52c0.666992 22.667 -5 41 -17 55c-10.667 11.333 -25 18.666 -43 21.999c0.666992 2 2 5 4 9c7.33301 15.333 11 28 11 38c0 2.66699 -1 5 -3 7s-4.33301 3 -7 3z" />
    <glyph glyph-name="percent" unicode="%" horiz-adv-x="520" 
d="M514 450c-10.667 0 -20.6709 -1.33398 -30.0039 -4.00098c-13.333 -4 -22.333 -9.66699 -27 -17l-58.5 -87.5l-71.5 -107.5c-65.333 -100 -108.333 -173.333 -129 -220v-4c0 -2.66699 0.833008 -5 2.5 -7s3.83398 -3 6.50098 -3c6 -0.666992 12.667 -0.666992 20 0
c6.66699 0.666992 12.334 1.66699 17.001 3c7.33301 2.66699 12.333 6.33398 15 11.001l151.5 215c57.667 80 105.834 142.667 144.501 188c4.66699 5.33301 6 11 4 17c-1.33301 4 -4.66602 7.66699 -9.99902 11c-7.33301 3.33301 -17.333 5 -30 5h-5zM261.996 430.999
c-5.33301 0 -10.332 -0.668945 -14.999 -2.00195c-19.333 -4.66699 -35.333 -19.667 -48 -45c-11.333 -22.667 -16 -43 -14 -61c1.33301 -13.333 7.66602 -28 18.999 -44c14.667 -19.333 30 -29.333 46 -30c25.333 0 49 12.333 71 37s31.333 49.667 28 75
c-2 20.667 -14.333 38.334 -37 53.001c-16 10.667 -32 16.334 -48 17.001h-2zM242.997 380.997l4.00195 -0.000976562c9.33301 -1.33301 19.166 -6.16602 29.499 -14.499s18.5 -17.833 24.5 -28.5c6.66699 -10.667 9.66699 -20 9 -28c-0.666992 -4 -5 -7.33301 -13 -10
c-8.66699 -2.66699 -17 -3 -25 -1c-10.667 2.66699 -21.334 11.334 -32.001 26.001c-10 13.333 -15 24.666 -15 33.999c0 7.33301 1 12 3 14c4 5.33301 9 8 15 8zM461.999 210.996c-5.33301 0 -10.332 -0.668945 -14.999 -2.00195c-19.333 -4.66699 -35.333 -19.667 -48 -45
c-11.333 -22.667 -16 -43 -14 -61c1.33301 -13.333 7.66602 -28 18.999 -44c14.667 -19.333 30 -29.333 46 -30c25.333 0 49 12.333 71 37s31.333 49.667 28 75c-2 20.667 -14.333 38.334 -37 53.001c-16 10.667 -32 16.334 -48 17.001h-2zM443 160.994
l4.00195 -0.000976562c9.33301 -1.33301 19.166 -6.16602 29.499 -14.499s18.5 -17.833 24.5 -28.5c6.66699 -10.667 9.66699 -20 9 -28c-0.666992 -4 -5 -7.33301 -13 -10c-8.66699 -2.66699 -17 -3 -25 -1c-10.667 2.66699 -21.334 11.334 -32.001 26.001
c-10 13.333 -15 24.666 -15 33.999c0 7.33301 1 12 3 14c4 5.33301 9 8 15 8z" />
    <glyph glyph-name="ampersand" unicode="&#x26;" horiz-adv-x="400" 
d="M335 486c-23.333 -0.666992 -46.332 -11.6631 -68.999 -32.9961s-39.334 -46.666 -50.001 -75.999c-16 -42.667 -21.333 -90.667 -16 -144c-22 -16 -39 -30.333 -51 -43c-25.333 -26.667 -38.333 -54.667 -39 -84c-0.666992 -19.333 5.33301 -38 18 -56
c13.333 -18.667 29 -30.334 47 -35.001c22 -5.33301 47.667 -1 77 13c1.33301 0.666992 5 3 11 7c4 -6.66699 6.66699 -11.667 8 -15c19.333 -32.667 42.5 -60.667 69.5 -84s56.5 -36.666 88.5 -39.999c23.333 -2.66699 46.333 2 69 14s42.667 28.333 60 49
c3.33301 4 3.33301 8.16699 0 12.5s-7.66602 5.16602 -12.999 2.49902c-36.667 -18.667 -67.667 -25 -93 -19c-27.333 6.66699 -53.666 20.167 -78.999 40.5s-46 43.833 -62 70.5c8.66699 6 19.334 14 32.001 24c0.666992 1.33301 2.16699 2.83301 4.5 4.5
s3.83301 2.83398 4.5 3.50098c14.667 11.333 25.667 19.333 33 24c8.66699 5.33301 15.667 8.66602 21 9.99902c4 1.33301 6.66699 1.33301 8 0c4.66699 -3.33301 9 -3.16602 13 0.500977s4.33301 8.16699 1 13.5c-5.33301 7.33301 -12.666 10.666 -21.999 9.99902
c-6.66699 -0.666992 -14.334 -4 -23.001 -10c-8.66699 -4.66699 -23 -15.334 -43 -32.001c-2 -2 -6.16699 -5.5 -12.5 -10.5s-11.5 -8.83301 -15.5 -11.5c-0.666992 0 -4.33398 -2.66699 -11.001 -8c-26 50.667 -43 103 -51 157l25 22c2 1.33301 4.5 3.16602 7.5 5.49902
s4.83301 3.83301 5.5 4.5c9.33301 7.33301 16.666 13.666 21.999 18.999c18 16 32.333 30.333 43 43c24.667 30 37 60 37 90c0 13.333 -4 26 -12 38c-8.66699 13.333 -19.334 20.666 -32.001 21.999c-3.33301 0.666992 -7 1 -11 1zM301.001 446.004l3 0.00292969
c9.33301 -2 17.833 -9.33301 25.5 -22s11.167 -25.334 10.5 -38.001c-1.33301 -24 -13.333 -47.667 -36 -71c-2 -2.66699 -4.33301 -5.33398 -7 -8.00098l-21 -18l-29 -22c-4.66699 53.333 1 100.666 17 141.999c4 10.667 10 19.667 18 27c6.66699 6.66699 13 10 19 10z
M205.001 197.007c8.66699 -47.333 24.665 -94.667 47.998 -142c-13.333 -4.66699 -24.666 -6 -33.999 -4c-12.667 3.33301 -24 11.5 -34 24.5s-15 26.5 -15 40.5c-0.666992 25.333 9.66602 51 30.999 77c0.666992 0.666992 1.33398 1.66699 2.00098 3
c0.666992 0.666992 1.33398 1 2.00098 1z" />
    <glyph glyph-name="quotesingle" unicode="'" horiz-adv-x="320" 
d="M363.5 567.5c-4.33301 -0.333008 -8.5 -0.834961 -12.5 -1.50195c-4.66699 -0.666992 -8.33398 -1.66699 -11.001 -3c-4.66699 -2 -7.66699 -5 -9 -9c-0.666992 -2 -8.16699 -20.167 -22.5 -54.5s-26 -63.666 -35 -87.999s-16.833 -47.166 -23.5 -68.499
c-1.33301 -4.66699 -0.666016 -8.66699 2.00098 -12c2 -3.33301 5 -5.66602 9 -6.99902c4.66699 -1.33301 10.667 -1 18 1c6 1.33301 11.667 3.66602 17 6.99902c6 4 10.333 8.66699 13 14c1.33301 2 15.333 27.167 42 75.5s46 86.5 58 114.5c2 5.33301 2 10.333 0 15
c-2 3.33301 -5 6.33301 -9 9c-6 3.33301 -14 5.66602 -24 6.99902c-4 0.666992 -8.16699 0.833984 -12.5 0.500977z" />
    <glyph glyph-name="parenleft" unicode="(" horiz-adv-x="320" 
d="M480 610c-22.667 0 -50.665 -8.33203 -83.998 -24.999c-35.333 -16.667 -63 -36 -83 -58c-55.333 -60 -99.5 -129.5 -132.5 -208.5s-49.833 -158.5 -50.5 -238.5c-0.666992 -61.333 4.66602 -112.333 15.999 -153c16.667 -58 46.667 -96.667 90 -116
c4.66699 -2 8.5 -1.16699 11.5 2.5s3.5 7.5 1.5 11.5c-18.667 32 -31.334 73.667 -38.001 125s-7 101 -1 149c10 82 29.833 160.667 59.5 236s69.167 141.666 118.5 198.999c24 28 55.333 46.667 94 56c6 1.33301 8.66699 5 8 11s-4 9 -10 9z" />
    <glyph glyph-name="parenright" unicode=")" horiz-adv-x="320" 
d="M280 610c-4 0 -7.00098 -1.66992 -9.00098 -5.00293s-2 -6.66602 0 -9.99902c18.667 -32.667 31.334 -74.667 38.001 -126s7 -100.666 1 -147.999c-9.33301 -72.667 -29.666 -144.5 -60.999 -215.5s-70.333 -137.5 -117 -199.5
c-33.333 -43.333 -64.666 -68.666 -93.999 -75.999c-6 -1.33301 -8.66699 -5 -8 -11s4 -9 10 -9c21.333 0 49.666 11.333 84.999 34c33.333 20.667 61 44 83 70c53.333 62 96.666 130 129.999 204s50.666 148 51.999 222c1.33301 60.667 -4 111.667 -16 153
c-16.667 58 -46.667 96.667 -90 116c-1.33301 0.666992 -2.66602 1 -3.99902 1z" />
    <glyph glyph-name="asterisk" unicode="*" 
d="M266 393c-2.66699 0 -5.33691 -0.333008 -8.00391 -1c-7.33301 -0.666992 -13.666 -2.66699 -18.999 -6c-3.33301 -2.66699 -5.66602 -5.33398 -6.99902 -8.00098c-2.66699 -4 -3 -8.33301 -1 -13c12 -23.333 24.667 -50.666 38 -81.999
c-32 -0.666992 -61 -2.66699 -87 -6c-6.66699 -0.666992 -12 -4.33398 -16 -11.001c-2 -4 -3.66699 -9.33301 -5 -16l-1 -19c0 -2.66699 1 -4.83398 3 -6.50098s4.33301 -2.5 7 -2.5l79 -2c-18 -31.333 -33.333 -63.666 -46 -96.999
c-1.33301 -2.66699 -1.33301 -5.33398 0 -8.00098s3.33301 -4.33398 6 -5.00098c6 -2 12.667 -3.33301 20 -4c6.66699 -0.666992 12.334 -0.666992 17.001 0c7.33301 1.33301 12.666 4.66602 15.999 9.99902l45 72l34 -92c2 -6 6.66699 -10.333 14 -13
c4.66699 -2 10.334 -3.33301 17.001 -4l20 1c2.66699 0 4.83398 1.16699 6.50098 3.5s2.16699 4.83301 1.5 7.5c-7.33301 44 -18.666 87.667 -33.999 131c32 0.666992 62.333 1.66699 91 3c8.66699 0.666992 15.667 4 21 10c5.33301 4.66699 8.33301 10.667 9 18
c1.33301 6 1 11.667 -1 17c-1.33301 3.33301 -3.33301 6 -6 8c-3.33301 2.66699 -7 4 -11 4c-26 -1.33301 -59.667 -1.66602 -101 -0.999023c20 30 38.333 55.667 55 77c3.33301 4 4 8.33301 2 13c-0.666992 2.66699 -2.33398 5.33398 -5.00098 8.00098
c-4.66699 4.66699 -10.334 8.33398 -17.001 11.001c-6 2 -11.667 3 -17 3h-6c-9.33301 -1.33301 -16.666 -5.66602 -21.999 -12.999l-18 -24c-8.66699 -11.333 -15.334 -20.333 -20.001 -27c-1.33301 4 -4.5 11.167 -9.5 21.5l-11.5 23.5
c-3.33301 8 -9.66602 13.667 -18.999 17c-3.33301 1.33301 -7 2 -11 2h-3z" />
    <glyph glyph-name="plus" unicode="+" 
d="M364 405l-2 0.000976562c-4 0 -8 -0.666992 -12 -2c-8.66699 -3.33301 -15 -9 -19 -17c-18 -38.667 -33 -73.667 -45 -105c-31.333 4 -60.5 4.16699 -87.5 0.5s-44.5 -12.167 -52.5 -25.5c-2 -4 -3.66699 -9.33301 -5 -16l-1 -19c0 -2.66699 1 -4.83398 3 -6.50098
s4.33301 -2.5 7 -2.5c4.66699 -0.666992 41.334 -2 110.001 -4c-13.333 -42.667 -23.333 -84.334 -30 -125.001c-0.666992 -2.66699 0 -5.16699 2 -7.5s4.33301 -3.5 7 -3.5l20 -1c6.66699 0.666992 12 2 16 4c7.33301 2.66699 12 7 14 13
c3.33301 8.66699 17.666 48.334 42.999 119.001c50.667 -0.666992 92.667 2 126 8c6 1.33301 11.333 5.66602 16 12.999c3.33301 5.33301 6 11.5 8 18.5s3 13.167 3 18.5c-0.666992 3.33301 -2 6.33301 -4 9c-2.66699 4.66699 -6.66699 6.66699 -12 6
c-18.667 -8 -56.334 -9.66699 -113.001 -5c16.667 44 31 78 43 102c2 4.66699 1.66699 9 -1 13c-1.33301 2.66699 -3.66602 5.33398 -6.99902 8.00098c-4.66699 3.33301 -10.667 5.33301 -18 6c-3.33301 0.666992 -6.33301 1 -9 1z" />
    <glyph glyph-name="comma" unicode="," horiz-adv-x="320" 
d="M163 111c-4.66699 0 -9.33594 -0.667969 -14.0029 -2.00098c-16 -3.33301 -28.333 -10.333 -37 -21c-10 -12 -15.333 -26.667 -16 -44c-0.666992 -20.667 5.66602 -35 18.999 -43c10.667 -6 21.334 -7.66699 32.001 -5c7.33301 2 13 5.66699 17 11c4 6 6 13.667 6 23
c0 3.33301 -1.33301 6 -4 8s-5.66699 2.66699 -9 2c-10 -3.33301 -17.333 -2.66602 -22 2.00098s-6.33398 10 -5.00098 16c0 1.33301 1.66699 2.33301 5 3c4.66699 1.33301 8.33398 1.33301 11.001 0c14.667 -6.66699 26.334 -19.834 35.001 -39.501
s9.33398 -35.5 2.00098 -47.5c-3.33301 -6 -9 -10 -17 -12c-7.33301 -1.33301 -17.333 -1.66602 -30 -0.999023c-3.33301 0 -13 1.16699 -29 3.5s-27.667 3.16602 -35 2.49902c-27.333 -3.33301 -49.666 -13.666 -66.999 -30.999c-18 -18 -29.667 -42.667 -35 -74
c-0.666992 -5.33301 1.33301 -9 6 -11s8.66699 -1 12 3c27.333 34 65.333 53 114 57c35.333 2.66699 61.333 10 78 22c13.333 9.33301 25.333 25.333 36 48c8.66699 20 11 41.667 7 65c-4 26.667 -14.333 45.667 -31 57c-7.33301 5.33301 -16 8 -26 8h-3z" />
    <glyph glyph-name="hyphen" unicode="-" 
d="M470 260l-0.99707 0.00292969c-16 -1.33301 -60.833 -2.5 -134.5 -3.5s-131.167 -4.16699 -172.5 -9.5c-6.66699 -0.666992 -12 -4.33398 -16 -11.001c-2 -4 -3.66699 -9.33301 -5 -16l-1 -19c0 -2.66699 1 -4.83398 3 -6.50098s4.33301 -2.5 7 -2.5
c16.667 -0.666992 43.167 -1.66699 79.5 -3s64.666 -2.16602 84.999 -2.49902s44.166 0.166992 71.499 1.5s51.333 3.66602 72 6.99902c6 1.33301 11.333 5.66602 16 12.999c3.33301 5.33301 6 11.5 8 18.5s3 13.167 3 18.5c-0.666992 3.33301 -2 6.33301 -4 9
c-2.66699 4 -6.33398 6 -11.001 6z" />
    <glyph glyph-name="period" unicode="." horiz-adv-x="320" 
d="M165 110c-0.666992 0 -1.33203 -0.333008 -1.99902 -1c-9.33301 -4 -18.666 -9 -27.999 -15c-8.66699 -6 -15.334 -11.667 -20.001 -17c-7.33301 -7.33301 -11.333 -14.666 -12 -21.999c-1.33301 -10.667 2 -21 10 -31c7.33301 -8.66699 16 -15 26 -19
c10.667 -2.66699 21.334 -2.5 32.001 0.5s20 8.16699 28 15.5c7.33301 7.33301 12.666 16 15.999 26c3.33301 11.333 3 21.666 -1 30.999c-4 8.66699 -11 15.667 -21 21c-6.66699 3.33301 -13.334 5 -20.001 5c-0.666992 4 -3 6 -7 6h-1z" />
    <glyph glyph-name="slash" unicode="/" horiz-adv-x="320" 
d="M474 572c-10.667 -0.666992 -20.6699 -2.33203 -30.0029 -4.99902c-13.333 -3.33301 -22.333 -9 -27 -17l-210 -345c-118 -198 -187.667 -321.333 -209 -370v-4c0 -2.66699 0.833008 -4.83398 2.5 -6.50098s3.83398 -2.83398 6.50098 -3.50098c6 0 12.667 0.333008 20 1
c6.66699 0.666992 12.334 1.66699 17.001 3c7.33301 2 12.333 5.66699 15 11c10 14 25.667 38 47 72l85.5 137l88.5 141c122 194.667 200.333 312.334 235 353.001c4.66699 5.33301 6 10.666 4 15.999c-1.33301 4.66699 -4.66602 8.33398 -9.99902 11.001
c-7.33301 3.33301 -17.333 5.33301 -30 6h-5z" />
    <glyph glyph-name="zero" unicode="0" 
d="M394 432h-2.99902c-27.333 -0.666992 -51 -6 -71 -16c-38.667 -20 -74 -45.167 -106 -75.5s-56.333 -62.833 -73 -97.5c-24 -58 -28 -109.333 -12 -154s45.333 -74.667 88 -90c48 -17.333 100.333 -4.33301 157 39c48 36 86.333 81.333 115 136
c18 34.667 27.167 72.167 27.5 112.5s-10.834 76.5 -33.501 108.5c-20 24.667 -49.667 37 -89 37zM353.001 389l3 -0.00292969c12.667 -0.666992 25.834 -5.5 39.501 -14.5s23.834 -19.5 30.501 -31.5c17.333 -28 26.5 -61 27.5 -99s-6.5 -71.667 -22.5 -101
s-37.667 -53.666 -65 -72.999c-30.667 -21.333 -58.334 -28.333 -83.001 -21c-31.333 8.66699 -56.333 33.334 -75 74.001c-18 38.667 -24 76.667 -18 114c4.66699 31.333 28 65.333 70 102c15.333 13.333 31.666 25.333 48.999 36c14 8.66699 28.667 13.334 44 14.001z" />
    <glyph glyph-name="one" unicode="1" horiz-adv-x="360" 
d="M408 492l-2.99414 0.00292969c-6.66699 -0.666992 -13.334 -2.66699 -20.001 -6c-12.667 -6.66699 -26.334 -18 -41.001 -34c-5.33301 -5.33301 -11 -12 -17 -20c-52 -16.667 -90.333 -39 -115 -67c-1.33301 -2 -2 -4.33301 -2 -7s1 -4.83398 3 -6.50098
s4.16699 -2.66699 6.5 -3s4.5 0.5 6.5 2.5c12.667 10 36.334 22.667 71.001 38c-12.667 -20 -24 -40.667 -34 -62c-27.333 -54.667 -46.333 -107 -57 -157c-6 -30.667 -8.33301 -57.667 -7 -81h-7c-34.667 1.33301 -71.334 -14.334 -110.001 -47.001
c-8.66699 -6.66699 -17 -14 -25 -22s-14 -14.333 -18 -19l-5 -6c-2 -2 -2.83301 -4.33301 -2.5 -7s1.5 -4.83398 3.5 -6.50098s4.16699 -2.66699 6.5 -3s4.5 0.5 6.5 2.5c11.333 10 23.666 19.333 36.999 28c11.333 7.33301 21.666 12.666 30.999 15.999s16 4.33301 20 3
c4.66699 -2 13.667 -5.5 27 -10.5l28.5 -10.5l23 -8c9.66699 -3.33301 18.5 -5.66602 26.5 -6.99902s16 -2 24 -2c40.667 -1.33301 84.667 16.334 132 53.001l8 6c2 1.33301 3.16699 3.5 3.5 6.5s-0.5 5.5 -2.5 7.5s-4.33301 3.16699 -7 3.5s-5 -0.5 -7 -2.5
c-0.666992 -0.666992 -1.83398 -1.5 -3.50098 -2.5s-2.83398 -1.83301 -3.50098 -2.5c-12.667 -9.33301 -26.334 -14.333 -41.001 -15c-14 -0.666992 -30.667 2.66602 -50 9.99902l-6 2c-39.333 93.333 -31 190.333 25 291c13.333 24 29 46.667 47 68
c0.666992 0 1.5 0.166992 2.5 0.5s1.83301 0.833008 2.5 1.5c29.333 12 49 21.667 59 29c8.66699 6 13.334 12.333 14.001 19c0.666992 4.66699 -0.333008 9 -3 13c-2 3.33301 -5.33301 6.33301 -10 9c-5.33301 3.33301 -11 5 -17 5z" />
    <glyph glyph-name="two" unicode="2" horiz-adv-x="400" 
d="M352 438h-1.99902c-42 -0.666992 -83.333 -20 -124 -58c-18.667 -17.333 -32 -35.333 -40 -54c-10 -22 -12 -42.333 -6 -61c8.66699 -24 23 -39.333 43 -46c17.333 -5.33301 35.333 -3 54 7s32.334 24.833 41.001 44.5s9 40.167 1 61.5
c-0.666992 2 -2.16699 3.66699 -4.5 5s-4.5 1.66602 -6.5 0.999023c-6 -1.33301 -8.66699 -4.66602 -8 -9.99902c2 -22.667 -1.33301 -39 -10 -49c-7.33301 -8 -17 -11 -29 -9c-12 1.33301 -22.333 6.66602 -31 15.999s-12 19.666 -10 30.999
c2.66699 16.667 13.667 31.334 33 44.001c18.667 12 37.667 17.667 57 17c19.333 0 38.166 -7.33301 56.499 -22s29.5 -31.334 33.5 -50.001c3.33301 -14.667 0.333008 -30.667 -9 -48c-9.33301 -16.667 -21.666 -30.334 -36.999 -41.001
c-24.667 -18 -59.667 -36.5 -105 -55.5s-76.666 -33.833 -93.999 -44.5c-24 -14.667 -48.333 -33 -73 -55c-5.33301 -4 -12 -10 -20 -18s-14.667 -15 -20 -21l-8 -8c-3.33301 -4 -3.66602 -8 -0.999023 -12v-1c1.33301 -2.66699 3.33301 -4.66699 6 -6
c1.33301 -1.33301 3.33301 -2 6 -2c2 0.666992 4.66699 2 8 4c2 1.33301 4.66699 3 8 5l22 17c5.33301 4.66699 14.666 12.334 27.999 23.001c2 0.666992 3.66699 1.33398 5 2.00098c9.33301 3.33301 16 4.33301 20 3c11.333 -4 25.666 -10 42.999 -18
s32.666 -14.5 45.999 -19.5s26 -8.5 38 -10.5c42.667 -7.33301 87.334 7 134.001 43l8 6c2 1.33301 3.16699 3.5 3.5 6.5s-0.5 5.5 -2.5 7.5s-4.33301 3.16699 -7 3.5s-5 -0.5 -7 -2.5c-0.666992 -0.666992 -1.83398 -1.5 -3.50098 -2.5s-2.83398 -1.83301 -3.50098 -2.5
c-12.667 -8.66699 -26 -12.667 -40 -12s-30.667 6 -50 16c-6 3.33301 -15.667 9 -29 17s-25 14.333 -35 19s-20 7.66699 -30 9c9.33301 4.66699 31.166 14.334 65.499 29.001s63.833 29 88.5 43c29.333 16.667 53.333 40.667 72 72c20.667 34 28.334 66.667 23.001 98
c-4 22.667 -16 43 -36 61s-40.667 27 -62 27z" />
    <glyph glyph-name="three" unicode="3" 
d="M353 440h-3.00293c-42 -0.666992 -83.333 -20 -124 -58c-18.667 -17.333 -32 -35.666 -40 -54.999c-10 -21.333 -12 -41.333 -6 -60c8.66699 -24.667 23 -40 43 -46c17.333 -6 35.333 -4 54 6s32.334 25 41.001 45s9 40.667 1 62c-0.666992 2 -2.16699 3.66699 -4.5 5
s-4.5 1.66602 -6.5 0.999023c-6 -1.33301 -8.66699 -5 -8 -11c2 -22.667 -1.33301 -39 -10 -49c-7.33301 -7.33301 -17 -10.333 -29 -9c-12 2 -22.333 7.66699 -31 17s-12 19.333 -10 30c2.66699 16.667 13.667 31.334 33 44.001c18.667 12 37.667 18 57 18
c26.667 0 53 -8 79 -24c26.667 -16.667 40.334 -35.334 41.001 -56.001c0.666992 -15.333 -3 -31.166 -11 -47.499s-18.667 -30.5 -32 -42.5c-14 -13.333 -29.333 -22.666 -46 -27.999c-6.66699 2.66699 -12.667 4.66699 -18 6c-13.333 3.33301 -24.333 4.33301 -33 3
c-5.33301 -0.666992 -10 -2.66699 -14 -6c-4 -4 -6 -9 -6 -15c0 -3.33301 1.33301 -6 4 -8c12.667 -8.66699 27.667 -12 45 -10c12 -8 19.667 -14 23 -18c13.333 -16.667 22.833 -36.167 28.5 -58.5s5.5 -43.166 -0.5 -62.499s-17.833 -36.833 -35.5 -52.5
s-35.834 -24.5 -54.501 -26.5c-10 -0.666992 -20 2.33301 -30 9c-7.33301 4.66699 -18 13.667 -32 27c-10.667 10 -18.5 17.167 -23.5 21.5s-12.667 9.16602 -23 14.499s-20.5 7.66602 -30.5 6.99902c-26.667 -1.33301 -60 -19 -100 -53l-26 -23
c-8.66699 -8 -15 -14.333 -19 -19l-6 -7c-2 -2 -3 -4.16699 -3 -6.5s0.833008 -4.5 2.5 -6.5s3.83398 -3.16699 6.50098 -3.5s5 0.5 7 2.5c8.66699 6.66699 18.667 13.667 30 21c22.667 14 39.667 21.333 51 22c8.66699 0.666992 18.334 -0.666016 29.001 -3.99902
s19.334 -6.83301 26.001 -10.5l30 -16.5c7.33301 -4.66699 13.166 -8.16699 17.499 -10.5s10.5 -5.33301 18.5 -9s14.5 -6 19.5 -7s11.667 -2 20 -3s15.166 -0.166992 20.499 2.5c38.667 9.33301 73.834 29.666 105.501 60.999s51.5 66.333 59.5 105
c4 19.333 1.66699 39.166 -7 59.499s-21 37.166 -37 50.499c-4 3.33301 -9.66699 7 -17 11c11.333 6.66699 22.666 14.334 33.999 23.001c22 18 40.167 38.333 54.5 61s21.833 45 22.5 67c1.33301 29.333 -12.667 57 -42 83c-27.333 24.667 -55.666 37 -84.999 37z" />
    <glyph glyph-name="four" unicode="4" horiz-adv-x="400" 
d="M362 450c-6.66699 0 -13.3291 -0.998047 -19.9961 -2.99805c-22.667 -7.33301 -39.667 -22 -51 -44c-2 -4.66699 -1.33301 -8.66699 2 -12s7 -3.66602 11 -0.999023c15.333 7.33301 26.666 9 33.999 5c4.66699 -3.33301 8.66699 -10 12 -20
c12 -35.333 -0.333008 -75 -37 -119c-18.667 -22 -43.334 -44.667 -74.001 -68c-2.66699 0.666992 -5 1 -7 1c-36.667 1.33301 -73.334 -14.334 -110.001 -47.001l-15.5 -12c-7.66699 -6 -13.834 -11.333 -18.501 -16s-8.66699 -9 -12 -13
c-2.66699 -4.66699 -4.33398 -8.33398 -5.00098 -11.001c0 -0.666992 0.333008 -1.66699 1 -3c0 -2 1 -4 3 -6s4.33301 -3.16699 7 -3.5s6 -0.166016 10 0.500977c6 1.33301 14.333 4 25 8c17.333 6.66699 38.333 16.334 63 29.001l12 7l29 -13
c12 -5.33301 21.667 -9.5 29 -12.5s15.833 -6.16699 25.5 -9.5s18.834 -5.66602 27.501 -6.99902c4.66699 -0.666992 9 -1 13 -1c-9.33301 -14 -17.666 -27.333 -24.999 -40c-24 -40.667 -37.667 -73.667 -41 -99c-2 -16.667 1.33301 -33.167 10 -49.5s20 -29.833 34 -40.5
c15.333 -10.667 41 -17.667 77 -21l49 -1c5.33301 0.666992 8.5 3.5 9.5 8.5s-0.5 8.5 -4.5 10.5c-13.333 7.33301 -27.333 16 -42 26c-28.667 19.333 -46.667 36 -54 50c-9.33301 16.667 -14.833 35.167 -16.5 55.5s0.5 39.166 6.5 56.499c4.66699 12 14.667 27 30 45
c42.667 13.333 73 28 91 44c8 6.66699 15.167 16.167 21.5 28.5s9.5 22.833 9.5 31.5c0 1.33301 0.166992 3.16602 0.5 5.49902s0.5 4.16602 0.5 5.49902c-0.666992 6.66699 -3 11.667 -7 15c-2.66699 2.66699 -6.33398 4 -11.001 4h-4
c-4.66699 -0.666992 -9.66699 -2.33398 -15 -5.00098c-18 -10.667 -41 -32.667 -69 -66c-0.666992 0 -3.33398 -3.33301 -8.00098 -10c-7.33301 2.66699 -15 6 -23 10c-6 3.33301 -15.667 9 -29 17s-23.666 13.667 -30.999 17c40.667 32 73 64 97 96
c22.667 29.333 37 56.666 43 81.999c6.66699 30.667 1 57.334 -17 80.001c-8 9.33301 -19 14.333 -33 15h-3zM444.005 168.002c-8.66699 -16.667 -20.333 -28.668 -35 -36.001c-3.33301 -1.33301 -7.33301 -2.66602 -12 -3.99902c-0.666992 0 -1.66699 -0.333008 -3 -1
l12 12c14 12 26.667 21.667 38 29z" />
    <glyph glyph-name="five" unicode="5" horiz-adv-x="420" 
d="M569 455c-2 0 -3.67188 -0.666992 -5.00488 -2c-12 -10 -24.667 -19.333 -38 -28c-12 -7.33301 -22.333 -12.666 -31 -15.999c-10 -4 -17 -5 -21 -3c-4 1.33301 -10.667 3.83301 -20 7.5s-15.833 6.16699 -19.5 7.5l-17 6c-7.66699 2.66699 -13.834 4.5 -18.501 5.5
s-10 2.33301 -16 4s-11.833 2.66699 -17.5 3s-11.167 0.5 -16.5 0.5c-28 0 -58.333 -10 -91 -30c-2.66699 -0.666992 -4.66699 -2 -6 -4c-10 -6.66699 -20.333 -14.334 -31 -23.001c-0.666992 0 -1.66699 -0.5 -3 -1.5s-2.33301 -1.83301 -3 -2.5
c-2 -1.33301 -3.5 -3.16602 -4.5 -5.49902s-1 -4.66602 0 -6.99902s2.66699 -4.16602 5 -5.49902s4.5 -1.66602 6.5 -0.999023c14.667 4 26.334 2.33301 35.001 -5c6.66699 -6 11 -15 13 -27c3.33301 -16.667 -0.666992 -37.667 -12 -63
c-17.333 -6.66699 -32 -14.334 -44 -23.001c-6.66699 -4.66699 -12 -9.33398 -16 -14.001c-5.33301 -6 -8 -12 -8 -18v-2c-1.33301 -4.66699 -1 -8.66699 1 -12c1.33301 -3.33301 3.66602 -5.33301 6.99902 -6c14.667 -2.66699 30.667 1.66602 48 12.999
c8 6 16.333 13.333 25 22c42.667 7.33301 74.334 6 95.001 -4c12.667 -6 23.334 -17.167 32.001 -33.5s12.667 -32.166 12 -47.499c-1.33301 -21.333 -9 -42.5 -23 -63.5s-30.667 -35.167 -50 -42.5c-32 -13.333 -67.333 -16 -106 -8c-40 8 -69.333 24.667 -88 50
c-4.66699 6 -7 12 -7 18c0 7.33301 3.33301 13.333 10 18c2 1.33301 3.33301 3.33301 4 6s0.333984 5 -0.999023 7s-3.16602 3.5 -5.49902 4.5s-4.83301 0.833008 -7.5 -0.5c-14.667 -6 -26.667 -15.333 -36 -28c-10.667 -15.333 -14 -30 -10 -44c10.667 -32 38 -55 82 -69
c38 -12 75.667 -14 113 -6c40.667 8 78 27.333 112 58c36.667 33.333 57.667 69.666 63 108.999c3.33301 25.333 -2.66699 51.166 -18 77.499s-34.666 43.833 -57.999 52.5c-20 8 -45 8.66699 -75 2c14.667 30 20 57 16 81c-0.666992 5.33301 -2 10 -4 14
c6 -2 15.833 -6 29.5 -12s25.834 -10.667 36.501 -14s21 -5.33301 31 -6c34.667 -0.666992 71.667 15 111 47c8.66699 7.33301 17 15 25 23l18 18l6 7c2.66699 3.33301 3 7 1 11s-5.33301 5.66699 -10 5z" />
    <glyph glyph-name="six" unicode="6" horiz-adv-x="400" 
d="M376 493c-31.333 -0.666992 -64.0029 -14.667 -98.0029 -42c-39.333 -31.333 -71.666 -71.333 -96.999 -120c-29.333 -56 -46.666 -113.333 -51.999 -172c-5.33301 -72.667 13.334 -123 56.001 -151c34 -22 76.333 -19 127 9c41.333 22.667 76.666 54 105.999 94
c13.333 17.333 21.666 36.666 24.999 57.999s0.333008 42 -9 62c-11.333 20.667 -29.333 36.167 -54 46.5s-48.667 13.166 -72 8.49902c-34 -6 -62.667 -21 -86 -45c-13.333 -13.333 -25.666 -30 -36.999 -50v1c-1.33301 54 10 104 34 150c16.667 32.667 41 60 73 82
c34.667 23.333 66.334 31 95.001 23c14 -4 25 -12 33 -24c8 -13.333 8.33301 -27.333 1 -42c-1.33301 -2.66699 -1.5 -5.16699 -0.5 -7.5s2.5 -4.16602 4.5 -5.49902s4.33301 -1.66602 7 -0.999023s4.66699 2 6 4c20 30 26 55.667 18 77c-6 16 -20 28.667 -42 38
c-11.333 4 -23 6.33301 -35 7h-3zM299.997 246c14.667 0.666992 29.666 -5.66895 44.999 -19.002c14 -12.667 24.333 -27.334 31 -44.001c6 -15.333 8 -33.166 6 -53.499s-8.33301 -35.833 -19 -46.5c-16 -16 -37 -26 -63 -30
c-27.333 -4.66699 -48.666 -0.666992 -63.999 12c-24.667 20 -40.334 49.667 -47.001 89l3 7c12.667 26.667 26.334 46.334 41.001 59.001c18 16.667 40.333 25.334 67 26.001z" />
    <glyph glyph-name="seven" unicode="7" horiz-adv-x="320" 
d="M268 450c-15.333 0 -30.3281 -2.50195 -44.9951 -7.50195s-27.167 -11.167 -37.5 -18.5s-19.5 -14.666 -27.5 -21.999s-14 -13.666 -18 -18.999l-6 -8c-2 -2 -2.83301 -4.16699 -2.5 -6.5s1.5 -4.33301 3.5 -6s4.16699 -2.66699 6.5 -3s4.5 0.5 6.5 2.5
c8 6 16.667 11.667 26 17c18.667 10 32.667 13.333 42 10c10.667 -4 29.334 -12.333 56.001 -25s47 -20.334 61 -23.001c10.667 -2 21 -2.33301 31 -1c-14 -18 -28 -37.333 -42 -58c-41.333 -61.333 -76.5 -122.833 -105.5 -184.5s-44.5 -114.167 -46.5 -157.5
c-0.666992 -16.667 3.16602 -33 11.499 -49s19.166 -29.333 32.499 -40c15.333 -10.667 41 -17.667 77 -21l49 -1c5.33301 0.666992 8.5 3.5 9.5 8.5s-0.5 8.5 -4.5 10.5c-13.333 7.33301 -27.333 16 -42 26c-28.667 19.333 -46.667 36 -54 50
c-16.667 32 -19.667 69.667 -9 113c7.33301 30.667 23.666 69.167 48.999 115.5s53.333 91.5 84 135.5c20 30 38.667 55.333 56 76c15.333 10 24.666 16.667 27.999 20c8 8.66699 12.667 16.334 14 23.001c0.666992 2.66699 0.333984 6 -0.999023 10s-3.5 6.83301 -6.5 8.5
s-6.5 2.16699 -10.5 1.5c-4.66699 -0.666992 -10 -3 -16 -7c-5.33301 -4 -11.333 -9.33301 -18 -16c-4.66699 -4 -9.66699 -9 -15 -15c-10.667 1.33301 -23.334 6.33301 -38.001 15c-3.33301 2 -12.333 8 -27 18s-26.834 17.167 -36.501 21.5s-19.834 6.5 -30.501 6.5h-4z
" />
    <glyph glyph-name="eight" unicode="8" horiz-adv-x="360" 
d="M344 450c-30 0 -59.666 -9.66602 -88.999 -28.999c-37.333 -23.333 -62 -52.333 -74 -87c-8.66699 -24.667 -6 -52 8 -82c2.66699 -6.66699 6.33398 -13.667 11.001 -21c-14 -8 -26.333 -15.667 -37 -23c-33.333 -24.667 -55.333 -54.334 -66 -89.001
c-8.66699 -27.333 -8.66699 -56.333 0 -87c10 -34 27.333 -56.333 52 -67c31.333 -14 67.666 -11.333 108.999 8c39.333 18.667 66.333 44.334 81 77.001c10 23.333 10 49.333 0 78c-6.66699 18 -20.334 42.667 -41.001 74c-11.333 17.333 -19 29.666 -23 36.999
c8.66699 4 13.334 6 14.001 6l52 25c10.667 5.33301 26.334 14.333 47.001 27s38.5 26.334 53.5 41.001s29.167 31.334 42.5 50.001c1.33301 2 1.66602 4.5 0.999023 7.5s-2 5.16699 -4 6.5s-4.33301 1.83301 -7 1.5s-5 -1.83301 -7 -4.5
c-9.33301 -14 -20.833 -27.333 -34.5 -40s-25.667 -22.834 -36 -30.501s-25.333 -16.5 -45 -26.5l-41 -20.5c-7.66699 -3.66699 -22.834 -10.5 -45.501 -20.5h-1.5c-0.333008 0 -0.833008 -0.333008 -1.5 -1c-17.333 32.667 -24 60.667 -20 84
c2.66699 14 8.83398 27.667 18.501 41s20.5 21.666 32.5 24.999c19.333 6 40.5 4.5 63.5 -4.5s41.5 -22.833 55.5 -41.5c3.33301 -4 7.33301 -5 12 -3s6.66699 5.66699 6 11c-5.33301 25.333 -13.333 44 -24 56c-10 11.333 -24 18.333 -42 21
c-4.66699 0.666992 -9.33398 1 -14.001 1h-6zM215.001 206.001c5.33301 -8 12.666 -18.334 21.999 -31.001c22.667 -32.667 37.334 -57 44.001 -73c10.667 -25.333 12.334 -47.666 5.00098 -66.999c-6.66699 -14.667 -18.834 -26.5 -36.501 -35.5
s-33.167 -10.833 -46.5 -5.5c-20 8 -34.667 26 -44 54c-9.33301 27.333 -11 53 -5 77c8 28.667 24.333 52.667 49 72c3.33301 2.66699 7.33301 5.66699 12 9z" />
    <glyph glyph-name="nine" unicode="9" 
d="M387 446c-21.333 0.666992 -44.335 -4.33594 -69.002 -15.0029c-34 -14 -65.667 -35.333 -95 -64c-23.333 -22.667 -41.166 -49.5 -53.499 -80.5s-15.5 -60.833 -9.5 -89.5c4.66699 -20.667 15.334 -39.667 32.001 -57c17.333 -18 36.333 -28 57 -30
c40 -4.66699 81 9.33301 123 42c18 14 43 37 75 69c-7.33301 -47.333 -22.333 -92 -45 -134c-38 -69.333 -86 -114 -144 -134c-8.66699 -2.66699 -18 -1.66699 -28 3c-7.33301 3.33301 -18 10.333 -32 21c-0.666992 0.666992 -2.83398 2.33398 -6.50098 5.00098
s-6 4.5 -7 5.5s-3.33301 2.83301 -7 5.5s-6.16699 4.33398 -7.5 5.00098s-3.83301 2.16699 -7.5 4.5s-6.16699 3.5 -7.5 3.5s-4 1 -8 3s-6.83301 2.83301 -8.5 2.5s-4.66699 0 -9 1s-7.16602 0.833008 -8.49902 -0.5c-26.667 -2 -60 -19.667 -100 -53l-26 -23
c-8.66699 -8 -15 -14.333 -19 -19l-6 -6c-2 -2 -3 -4.33301 -3 -7s0.833008 -5 2.5 -7s3.83398 -3 6.50098 -3s5 0.666992 7 2c8.66699 6.66699 18.667 13.667 30 21c22.667 13.333 40 21 52 23c8 0.666992 17.5 -0.333008 28.5 -3s19.5 -5.33398 25.5 -8.00098l32 -14
c9.33301 -4 17.166 -7.16699 23.499 -9.5s13.833 -4.66602 22.5 -6.99902s17.167 -3.16602 25.5 -2.49902s16.5 2.66699 24.5 6c48 20 91.333 52.333 130 97s68.5 94 89.5 148s32.167 108 33.5 162c0.666992 26 -5 51.333 -17 76c-14 27.333 -32 45.333 -54 54
c-13.333 4.66699 -27.333 7 -42 7zM347.998 384.997l5.00293 -0.000976562c10 -0.666992 19.667 -2.33398 29 -5.00098c17.333 -5.33301 32.666 -17.166 45.999 -35.499s20.666 -36.833 21.999 -55.5c0.666992 -9.33301 0.666992 -20.666 0 -33.999
c-40.667 -34.667 -72.334 -58 -95.001 -70c-35.333 -19.333 -69.666 -24.666 -102.999 -15.999c-12.667 3.33301 -24 12.333 -34 27c-9.33301 13.333 -15.333 28.333 -18 45c-2.66699 15.333 -1.5 31.666 3.5 48.999s12.833 31.333 23.5 42
c15.333 15.333 34.166 28 56.499 38s43.833 15 64.5 15z" />
    <glyph glyph-name="colon" unicode=":" horiz-adv-x="320" 
d="M265 370c-0.666992 0 -1.33203 -0.333008 -1.99902 -1c-9.33301 -4 -18.666 -9 -27.999 -15c-8.66699 -6 -15.334 -11.667 -20.001 -17c-7.33301 -7.33301 -11.333 -14.666 -12 -21.999c-1.33301 -10.667 2 -21 10 -31c7.33301 -8.66699 16 -15 26 -19
c10.667 -2.66699 21.334 -2.5 32.001 0.5s20 8.16699 28 15.5c7.33301 7.33301 12.666 16 15.999 26c3.33301 11.333 3 21.666 -1 30.999c-4 8.66699 -11 15.667 -21 21c-6.66699 3.33301 -13.334 5 -20.001 5c-0.666992 4 -3 6 -7 6h-1zM205.002 170
c-0.666992 0 -1.33203 -0.333008 -1.99902 -1c-9.33301 -4 -18.666 -9 -27.999 -15c-8.66699 -6 -15.334 -11.667 -20.001 -17c-7.33301 -7.33301 -11.333 -14.666 -12 -21.999c-1.33301 -10.667 2 -21 10 -31c7.33301 -8.66699 16 -15 26 -19
c10.667 -2.66699 21.334 -2.5 32.001 0.5s20 8.16699 28 15.5c7.33301 7.33301 12.666 16 15.999 26c3.33301 11.333 3 21.666 -1 30.999c-4 8.66699 -11 15.667 -21 21c-6.66699 3.33301 -13.334 5 -20.001 5c-0.666992 4 -3 6 -7 6h-1z" />
    <glyph glyph-name="semicolon" unicode=";" horiz-adv-x="320" 
d="M265 370c-0.666992 0 -1.33203 -0.333008 -1.99902 -1c-9.33301 -4 -18.666 -9 -27.999 -15c-8.66699 -6 -15.334 -11.667 -20.001 -17c-7.33301 -7.33301 -11.333 -14.666 -12 -21.999c-1.33301 -10.667 2 -21 10 -31c7.33301 -8.66699 16 -15 26 -19
c10.667 -2.66699 21.334 -2.5 32.001 0.5s20 8.16699 28 15.5c7.33301 7.33301 12.666 16 15.999 26c3.33301 11.333 3 21.666 -1 30.999c-4 8.66699 -11 15.667 -21 21c-6.66699 3.33301 -13.334 5 -20.001 5c-0.666992 4 -3 6 -7 6h-1zM163.002 111
c-4.66699 0 -9.33594 -0.667969 -14.0029 -2.00098c-16 -3.33301 -28.333 -10.333 -37 -21c-10 -12 -15.333 -26.667 -16 -44c-0.666992 -20.667 5.66602 -35 18.999 -43c10.667 -6 21.334 -7.66699 32.001 -5c7.33301 2 13 5.66699 17 11c4 6 6 13.667 6 23
c0 3.33301 -1.33301 6 -4 8s-5.66699 2.66699 -9 2c-10 -3.33301 -17.333 -2.66602 -22 2.00098s-6.33398 10 -5.00098 16c0 1.33301 1.66699 2.33301 5 3c4.66699 1.33301 8.33398 1.33301 11.001 0c14.667 -6.66699 26.334 -19.834 35.001 -39.501
s9.33398 -35.5 2.00098 -47.5c-3.33301 -6 -9 -10 -17 -12c-7.33301 -1.33301 -17.333 -1.66602 -30 -0.999023c-3.33301 0 -13 1.16699 -29 3.5s-27.667 3.16602 -35 2.49902c-27.333 -3.33301 -49.666 -13.666 -66.999 -30.999c-18 -18 -29.667 -42.667 -35 -74
c-0.666992 -5.33301 1.33301 -9 6 -11s8.66699 -1 12 3c27.333 34 65.333 53 114 57c35.333 2.66699 61.333 10 78 22c13.333 9.33301 25.333 25.333 36 48c8.66699 20 11 41.667 7 65c-4 26.667 -14.333 45.667 -31 57c-7.33301 5.33301 -16 8 -26 8h-3z" />
    <glyph glyph-name="less" unicode="&#x3c;" horiz-adv-x="320" 
d="M369 398c-12.667 0 -23.9941 -2.66602 -33.9941 -7.99902c-23.333 -12 -58.333 -35.667 -105 -71c-22 -16 -39.333 -29.333 -52 -40c-7.33301 -6.66699 -12.666 -12 -15.999 -16c-2.66699 -2 -4.33398 -4 -5.00098 -6c-2.66699 -4.66699 -3.33398 -8.66699 -2.00098 -12
c13.333 -34.667 27.666 -66.667 42.999 -96c21.333 -41.333 40.333 -66.666 57 -75.999c11.333 -6.66699 25 -8.33398 41 -5.00098c13.333 2.66699 23.666 7.66699 30.999 15c2.66699 2.66699 3.66699 5.66699 3 9s-2.66699 5.66602 -6 6.99902s-10 7.33301 -20 18
c-9.33301 11.333 -20 25 -32 41c-26.667 37.333 -44.334 67.333 -53.001 90c-0.666992 3.33301 0 7.33301 2 12c2 5.33301 6.33301 11.333 13 18c12 12 30 25.333 54 40c37.333 23.333 72.666 41.333 105.999 54c1.33301 0.666992 2.66602 1.66699 3.99902 3
c2.66699 2.66699 4 5.66699 4 9c-0.666992 2.66699 -2 5 -4 7c-0.666992 1.33301 -2 2.33301 -4 3c-3.33301 2 -8.33301 3.33301 -15 4h-10z" />
    <glyph glyph-name="equal" unicode="=" 
d="M480 325l-0.99707 0.00195312c-8 -0.666992 -44.5 -2.83398 -109.5 -6.50098s-118.5 -8.16699 -160.5 -13.5c-6.66699 -0.666992 -12 -4 -16 -10c-3.33301 -4 -6 -9 -8 -15l-5 -18c-0.666992 -3.33301 0.166016 -6.16602 2.49902 -8.49902s5.16602 -3.5 8.49902 -3.5
c35.333 2.66699 81.666 4.16699 138.999 4.5s101 2.16602 131 5.49902c7.33301 0.666992 13.666 4.66699 18.999 12c4.66699 4.66699 8.33398 10.667 11.001 18s3.66699 13.666 3 18.999c0 4 -0.666992 7.33301 -2 10c-2.66699 4 -6.66699 6 -12 6zM455.003 225.002
c-28.667 -0.666992 -56.3301 -0.668945 -82.9971 -0.00195312s-59.167 0.166992 -97.5 -1.5s-73.5 -4.5 -105.5 -8.5c-6.66699 -0.666992 -12 -4 -16 -10c-3.33301 -4 -6 -9 -8 -15l-5 -18c-0.666992 -3.33301 0.166016 -6.16602 2.49902 -8.49902
s5.16602 -3.5 8.49902 -3.5c26.667 2.66699 54.167 4.5 82.5 5.5s51 1.33301 68 1s40.833 -0.666016 71.5 -0.999023s51.667 -0.5 63 -0.5c7.33301 0 14 3 20 9c4 4.66699 7.33301 10.667 10 18c2.66699 6 3.66699 11.667 3 17c0 4 -1 7.33301 -3 10
c-2.66699 4 -6.33398 6 -11.001 6z" />
    <glyph glyph-name="greater" unicode="&#x3e;" horiz-adv-x="320" 
d="M238 394l-3.99805 -0.00195312l-10 -2c-13.333 -2.66699 -23.666 -7.66699 -30.999 -15c-2.66699 -2.66699 -3.66699 -5.66699 -3 -9s2.66699 -5.66602 6 -6.99902s9.66602 -7.33301 18.999 -18c9.33301 -10 19.666 -22.667 30.999 -38c25.333 -36 42.333 -65.667 51 -89
c0.666992 -3.33301 0 -7.33301 -2 -12c-2 -5.33301 -6.33301 -11.333 -13 -18c-12 -12.667 -30 -26 -54 -40c-22 -13.333 -44.333 -24.333 -67 -33s-39.667 -13 -51 -13c-2.66699 0 -5 -0.666992 -7 -2c-3.33301 -2.66699 -5 -5.66699 -5 -9s1.33301 -6.66602 4 -9.99902
c3.33301 -4 8.33301 -8 15 -12c18 -11.333 34 -13.333 48 -6c20 10.667 56.333 35.667 109 75c22 16 40.667 30.333 56 43c8 6 14.333 11 19 15l6 6c2 2 3.33301 4 4 6c2 4 2.33301 10 1 18c-0.666992 6 -2.66699 13 -6 21c-5.33301 16 -13.333 34 -24 54
s-21.334 37.667 -32.001 53c-12.667 18 -23.667 29.667 -33 35c-8 4.66699 -17 7 -27 7z" />
    <glyph glyph-name="question" unicode="?" horiz-adv-x="400" 
d="M392 540l-2.00098 0.000976562c-42 -1.33301 -83.333 -20.666 -124 -57.999c-18.667 -18 -32 -36.333 -40 -55c-10 -21.333 -12 -41.333 -6 -60c8.66699 -24.667 23 -40 43 -46c17.333 -6 35.333 -4 54 6s32.334 25 41.001 45s9 40.667 1 62
c-0.666992 2 -2.16699 3.66699 -4.5 5s-4.5 1.66602 -6.5 0.999023c-6 -1.33301 -8.66699 -5 -8 -11c2 -22.667 -1.33301 -39 -10 -49c-7.33301 -7.33301 -17 -10.333 -29 -9c-12 2 -22.333 7.66699 -31 17s-12 19.333 -10 30c2.66699 16.667 13.667 31.334 33 44.001
c18.667 12.667 37.667 18.667 57 18s38.166 -8.33398 56.499 -23.001s29.5 -31 33.5 -49c3.33301 -14.667 0.333008 -31 -9 -49c-9.33301 -16.667 -21.666 -30.334 -36.999 -41.001c-10 -7.33301 -27.833 -18.666 -53.5 -33.999s-44.167 -27.666 -55.5 -36.999
c-19.333 -14 -33.333 -28 -42 -42c-10.667 -17.333 -15 -36 -13 -56c2.66699 -25.333 14.334 -44.833 35.001 -58.5s49 -20.5 85 -20.5c5.33301 0 8.66602 2.5 9.99902 7.5s-0.333984 8.83301 -5.00098 11.5c-22.667 13.333 -38 27.666 -46 42.999c-8 13.333 -11 29 -9 47
c2 21.333 9.66699 39 23 53c12 12 36 28.333 72 49c29.333 17.333 53.333 41.666 72 72.999c20.667 34 28.334 66.667 23.001 98c-4 22 -16 42.167 -36 60.5s-40.667 27.5 -62 27.5zM266.999 50.001c-0.666992 0 -1.33301 -0.333008 -2 -1
c-9.33301 -4 -18.666 -9 -27.999 -15c-8.66699 -6 -15.667 -11.667 -21 -17c-6.66699 -7.33301 -10.334 -14.666 -11.001 -21.999c-1.33301 -10.667 2 -21 10 -31c7.33301 -8.66699 16 -15 26 -19c10.667 -2.66699 21.334 -2.5 32.001 0.5s20 8.16699 28 15.5
c7.33301 7.33301 12.333 16 15 26c4 11.333 4 21.666 0 30.999c-4 8.66699 -11 15.667 -21 21c-6.66699 3.33301 -13.334 5 -20.001 5c-0.666992 4 -3 6 -7 6h-1z" />
    <glyph glyph-name="at" unicode="@" horiz-adv-x="640" 
d="M531 513c-18.667 0 -38.667 -2.33008 -60 -6.99707c-65.333 -13.333 -124.333 -40.666 -177 -81.999c-59.333 -47.333 -105.5 -109.333 -138.5 -186s-39.5 -148.334 -19.5 -215.001c9.33301 -32 30 -58.667 62 -80s66 -33.666 102 -36.999c57.333 -6 119.333 7 186 39
c62 29.333 109.333 65.666 142 108.999c2 2.66699 2.66699 5.33398 2 8.00098s-1.66699 4.66699 -3 6c-2.66699 2 -6 2.66699 -10 2c-2 -0.666992 -3.66699 -2 -5 -4c-28 -38 -69.167 -67.5 -123.5 -88.5s-106.5 -28.167 -156.5 -21.5c-34.667 4 -67 16.333 -97 37
c-32.667 21.333 -52.667 46.333 -60 75c-15.333 61.333 -4.66602 128 32.001 200c34 68 80.333 121.333 139 160c38 24.667 80.667 38.667 128 42c51.333 4 91.333 -6.66699 120 -32c28 -24.667 42.667 -62.667 44 -114c0.666992 -46 -8.33301 -90.667 -27 -134
c-15.333 -36.667 -38.666 -69.667 -69.999 -99c-16 -14.667 -31 -24.667 -45 -30c-14.667 -6 -27 -6.66699 -37 -2c-3.33301 2 -6 5 -8 9c-2 5.33301 -3 12.666 -3 21.999c0.666992 17.333 6 39.666 16 66.999c0.666992 1.33301 1.33398 3.16602 2.00098 5.49902
s1.33398 3.83301 2.00098 4.5c15.333 20.667 37 55.334 65 104.001c7.33301 13.333 15 28.333 23 45c6 12 7.66699 21.333 5 28c-1.33301 4 -4.33301 6.33301 -9 7c-2.66699 0 -5.33398 -0.666992 -8.00098 -2c-0.666992 -0.666992 -2 -1.66699 -4 -3
c-2 -2 -4.33301 -4.66699 -7 -8l-1 -1c-5.33301 -6.66699 -11.333 -15.334 -18 -26.001c5.33301 11.333 6.66602 22.5 3.99902 33.5s-9 18.833 -19 23.5c-38.667 19.333 -84 12.333 -136 -21c-44 -28.667 -77.667 -65 -101 -109c-13.333 -26 -19.333 -54.333 -18 -85
c1.33301 -36 13.333 -61 36 -75s50.667 -12.667 84 4c15.333 8 32.333 19 51 33c-4.66699 -14.667 -8 -27.667 -10 -39c-1.33301 -14 -1 -25.667 1 -35c3.33301 -12 9.66602 -20.333 18.999 -25c18 -9.33301 38 -10 60 -2c18.667 6 37.667 17.667 57 35
c34 30 63 67.333 87 112c30 55.333 49 109 57 161c10 67.333 -3 117.666 -39 150.999c-28.667 26.667 -67.334 40 -116.001 40zM437 342.003c13.333 0 26 -2.66699 38 -8c6.66699 -3.33301 11.667 -7 15 -11c2 -3.33301 2.66699 -6.66602 2 -9.99902
c-1.33301 -4.66699 0 -8.33398 4 -11.001s8 -2.66699 12 0c-27.333 -42 -51 -85 -71 -129c-16 -18 -29 -30 -39 -36c-14 -9.33301 -28 -15.333 -42 -18c-16 -3.33301 -28.667 -2 -38 4c-12 8 -20.333 21.667 -25 41c-4 18 -3.66699 35.333 1 52
c9.33301 30.667 27.5 58.667 54.5 84s55.167 39.333 84.5 42h4z" />
    <glyph glyph-name="A" unicode="A" horiz-adv-x="995" 
d="M1080 258c-18 -5.33301 -40.002 -2.33887 -66.002 8.99414c-10.667 4 -24 10.667 -40 20l-5 2l1 5c28.667 148.667 69 298 121 448c30.667 88.667 59 155.667 85 201c5.33301 10 8.33301 15.333 9 16l1 1l3 3l1 1c6.66699 2.66699 14.334 5 23.001 7l2 2h2
c9.33301 2.66699 17.333 6.66699 24 12v1c4.66699 2.66699 7.83398 6 9.50098 10s1.5 9.33301 -0.5 16v1l-1 1h-1c-3.33301 3.33301 -7.33301 5.33301 -12 6h-4c-4 0 -7.33301 -0.666992 -10 -2h-1c-6 -2.66699 -11.667 -6.33398 -17 -11.001
c-8.66699 -7.33301 -16.667 -17 -24 -29l-2 -2l-2 -1c-55.333 -20 -105.666 -51.667 -150.999 -95c-12 -12 -24 -25.167 -36 -39.5s-22.333 -27.166 -31 -38.499c-8.66699 -10.667 -18.334 -25.667 -29.001 -45l-25 -44c-6 -8.66699 -14.333 -24.667 -25 -48l-21.5 -46.5
c-3 -6.33301 -10.5 -23.166 -22.5 -50.499c-12 -26.667 -19.333 -42 -22 -46c-34.667 -78.667 -69 -143.667 -103 -195s-76.333 -93.666 -127 -126.999c-62.667 -40.667 -122.334 -68.334 -179.001 -83.001c-34.667 -9.33301 -65.334 -12.333 -92.001 -9
c-29.333 2.66699 -52.666 13.667 -69.999 33c-16.667 18.667 -20.667 44.334 -12 77.001c10 34.667 28.333 59 55 73c4.66699 2 6.33398 4.66699 5.00098 8c-0.666992 4 -3.33398 6 -8.00098 6c-30 0 -56.333 -18.667 -79 -56c-19.333 -30 -30.333 -62.667 -33 -98
c-2 -25.333 2.66699 -49.666 14 -72.999c12.667 -27.333 29.667 -44.666 51 -51.999h1c60 -22.667 130.667 -13 212 29c52.667 26.667 116.334 71 191.001 133c8 6.66699 15.333 14 22 22l1 1h2c8 4 14.333 7.33301 19 10v0c24 12.667 44.333 21.334 61 26.001
c14.667 4 28 5.66699 40 5c15.333 -1.33301 35 -7 59 -17c23.333 -10 38.333 -15.667 45 -17l6 -2l-1 -7c-21.333 -110 -29 -203.333 -23 -280c4 -56 25.333 -97.667 64 -125c22.667 -16.667 60.667 -27 114 -31l74 -1c4 0 6.33301 1.66699 7 5
c1.33301 4 0.333008 7.33301 -3 10c-20.667 10 -42 22.333 -64 37c-45.333 30 -73.666 56.667 -84.999 80c-34.667 64.667 -42.667 162.334 -24 293.001l1 7l7 -1c11.333 -0.666992 21.666 -1 30.999 -1c68.667 2.66699 124.334 38 167.001 106c0.666992 2 1 4 1 6
c-0.666992 2 -1.66699 3.33301 -3 4v0l-1 1c-0.666992 0.666992 -1.33398 1 -2.00098 1s-1.66699 -0.333008 -3 -1v0l-1 -1c-1.33301 0 -2.33301 -0.666992 -3 -2c-2 -2 -4.33301 -4.66699 -7 -8l-3 -4v-2l-1 -2c-17.333 -22.667 -36 -36.667 -56 -42zM1140 940.994l27 14
l-23 -33c-42.667 -72.667 -85.667 -168.667 -129 -288c-39.333 -104.667 -71.333 -208 -96 -310l-2 -9l-8 4c-14.667 5.33301 -28 8 -40 8c-34.667 0.666992 -73.334 -9 -116.001 -29l-25 -12l15 23c31.333 46.667 68 118.334 110 215.001l57 129.5
c12 26.333 31.333 61.166 58 104.499c26.667 44.667 54.334 81.667 83.001 111c34 34.667 63.667 58.667 89 72z" />
    <glyph glyph-name="B" unicode="B" horiz-adv-x="912" 
d="M705 521l-6 11.001h17h1c6 -1.33301 14.333 -4 25 -8l23 -9l-24 -5c-4.66699 -1.33301 -9 -2 -13 -2v0c-12 1.33301 -19.667 5.66602 -23 12.999zM653 788.001c-0.666992 4 -3 6 -7 6h-3c-32 -5.33301 -57.333 -20.666 -76 -45.999
c-22.667 -31.333 -37.667 -62.333 -45 -93c-8 -26.667 -14 -73.334 -18 -140.001c-7.33301 -95.333 -32 -170.166 -74 -224.499s-95.667 -90.833 -161 -109.5c-4 -0.666992 -6 -2.83398 -6 -6.50098s1.33301 -6.16699 4 -7.5c30.667 -13.333 62 -11.333 94 6
c28.667 15.333 55.667 42.333 81 81c52 81.333 78.333 177 79 287c0.666992 125.333 43 205 127 239c4 2 5.66699 4.66699 5 8zM684 539.001c-2 -4.66699 -1.99512 -9 0.00488281 -13v0c9.33301 -24 25.666 -36.667 48.999 -38c14.667 0 32.667 5 54 15l2 1l3 -1
c52.667 -26.667 89 -54.334 109 -83.001c16.667 -24 28 -53.333 34 -88c5.33301 -35.333 2.33301 -67.333 -9 -96c-17.333 -43.333 -48.166 -81.666 -92.499 -114.999s-89.5 -55.666 -135.5 -66.999h-1h-1c-15.333 -0.666992 -27.666 -1.33398 -36.999 -2.00098
c-10 -0.666992 -23.667 2 -41 8c-16.667 6 -29.667 11.333 -39 16c-10 4.66699 -23.333 11.334 -40 20.001l-57 28c-12 6 -29 11.333 -51 16c-21.333 4.66699 -41.666 5 -60.999 1c-36 -7.33301 -80.333 -33.666 -133 -78.999l-38 -33c-12.667 -11.333 -21.667 -20 -27 -26
h-1l-10 -9l-2 -6c0 -1.33301 0.666992 -2.66602 2 -3.99902c2 -2 4 -3 6 -3c0.666992 -0.666992 1.66699 -0.333984 3 0.999023l1 1v0l45 30c32 20.667 56.667 33 74 37v0c10 1.33301 20 2.33301 30 3c10.667 0 22 -1 34 -3l29 -5
c7.33301 -1.33301 18.666 -4.33301 33.999 -9c14.667 -4.66699 24.667 -8 30 -10c4.66699 -2 15.667 -5.33301 33 -10l1 -1c19.333 -7.33301 35.166 -12.833 47.499 -16.5s28.166 -7.5 47.499 -11.5c18 -4 34.833 -5.5 50.5 -4.5s31.5 4.16699 47.5 9.5
c49.333 17.333 99.666 45.666 150.999 84.999c54.667 41.333 97 85.333 127 132c32 48.667 48.667 99.334 50 152.001c2 51.333 -18.333 99.666 -61 144.999c-14.667 15.333 -38.334 28 -71.001 38l-13 4l12 9c20.667 17.333 41.334 36.333 62.001 57c24 24 43.333 53 58 87
c15.333 35.333 21.333 68 18 98c-2.66699 26.667 -11.334 51.5 -26.001 74.5s-33 39.833 -55 50.5c-14.667 8 -30.334 12.667 -47.001 14s-35 -0.333984 -55 -5.00098c-20.667 -5.33301 -37.667 -10.333 -51 -15c-22.667 -7.33301 -41.667 -14.333 -57 -21
c-7.33301 -3.33301 -13 -5.33301 -17 -6c-48.667 -19.333 -85.667 -30.666 -111 -33.999c-36.667 -4.66699 -68.334 3 -95.001 23c-6 8.66699 -9.33301 14.334 -10 17.001c-2 12 -3 22 -3 30l1 36l-2 6c-2 1.33301 -3.66699 2 -5 2c-2.66699 0 -4.66699 -1 -6 -3v-1
c-10 -14.667 -19 -30.667 -27 -48c-6.66699 -16 -10.667 -30.333 -12 -43v0c-2.66699 -16 -0.333984 -28.667 6.99902 -38c24 -26 56 -37 96 -33c24.667 2.66699 60.667 14 108 34c55.333 24 92.333 38.667 111 44c40.667 10 73.334 9.33301 98.001 -2
c21.333 -10.667 40.333 -28 57 -52c16 -24 25.667 -49.667 29 -77c3.33301 -24 1.33301 -49.333 -6 -76c-8.66699 -26.667 -20.667 -49 -36 -67c-15.333 -16.667 -36 -34.334 -62 -53.001l-3 -2h-2c-12.667 2 -25.667 3.66699 -39 5c-30 2 -54.333 1 -73 -3
c-14 -2.66699 -24 -8.33398 -30 -17.001z" />
    <glyph glyph-name="C" unicode="C" horiz-adv-x="852" 
d="M865 715c4.66699 5.33301 9 10 13 14c4 6.66699 8.33301 14.667 13 24l4 8l6 -5c26.667 -18.667 50 -28 70 -28c27.333 0 55.333 9.66699 84 29c30.667 20 66.334 50 107.001 90l2 1c1.33301 2 2 3.83301 2 5.5s-0.666992 3.33398 -2 5.00098s-3 2.5 -5 2.5
c-1.33301 0 -3 -0.666992 -5 -2c-50 -42 -87 -66 -111 -72c-21.333 -5.33301 -52.666 -0.333008 -93.999 15c-9.33301 3.33301 -20.333 8 -33 14l-4 2l1 5c0.666992 10.667 1.33398 20.334 2.00098 29.001c1.33301 52.667 -12.667 88.667 -42 108c-23.333 16 -50 24 -80 24
h-4c-38 -2 -79 -15.333 -123 -40c-71.333 -38.667 -136.333 -92.667 -195 -162c-53.333 -64 -96.666 -136.667 -129.999 -218s-53 -165.333 -59 -252c-6 -86 6 -166.333 36 -241c19.333 -54.667 52 -98.667 98 -132s98.667 -45.333 158 -36
c67.333 11.333 135 42.666 203 93.999c71.333 52 130.666 119 177.999 201l11 21c12.667 24 23.667 48.333 33 73v2l1 1c0.666992 2 0.666992 3.66699 0 5c-1.33301 1.33301 -3 2.33301 -5 3s-4 0.333984 -6 -0.999023c-1.33301 0 -2.33301 -1 -3 -3v0
c-9.33301 -23.333 -20.333 -47.333 -33 -72c-36 -66 -82.5 -121.333 -139.5 -166s-111.5 -72.667 -163.5 -84c-57.333 -12 -109 -3.33301 -155 26c-45.333 28.667 -80.333 68.667 -105 120c-38.667 82 -54 176.667 -46 284c8.66699 107.333 40.667 200.333 96 279
c24 33.333 54.5 66.166 91.5 98.499s73.833 58.833 110.5 79.5c87.333 50 157.666 56 210.999 18c8 -6 14.333 -15.667 19 -29l5 -15l-14 6c-20 8 -38.333 8.33301 -55 1c-30 -12 -57 -34.333 -81 -67c-10.667 -16.667 -17.334 -32.334 -20.001 -47.001
c-4.66699 -17.333 -2.66699 -32.666 6 -45.999c8.66699 -12 20.667 -19 36 -21c13.333 -1.33301 28.666 1 45.999 7c14.667 5.33301 28.667 12.666 42 21.999h1h1c4 2 7.66699 4.33301 11 7v0c5.33301 3.33301 10 8.33301 14 15h1zM812 810
c15.333 -1.33301 35.332 -11 59.999 -29l4 -2l-1 -6c-5.33301 -18 -12.666 -33 -21.999 -45v0c-6 -6.66699 -12.667 -13 -20 -19l-1 -1h-2c-14 -4.66699 -29 -4.66699 -45 0c-23.333 5.33301 -37.333 16.333 -42 33v1c-2 11.333 2.66699 24 14 38v0
c12 14 25.333 22.667 40 26c3.33301 1.33301 6.33301 2 9 2c2 1.33301 4 2 6 2z" />
    <glyph glyph-name="D" unicode="D" horiz-adv-x="910" 
d="M478 976c-2 2 -3.66797 3.00098 -5.00098 3.00098c-2.66699 0 -4.66699 -1.33301 -6 -4v0c-10 -14.667 -19 -30.667 -27 -48c-6.66699 -16.667 -10.667 -30.667 -12 -42v0c-2.66699 -16.667 0 -29.334 8 -38.001c18.667 -20.667 44 -30.334 76 -29.001
c18.667 1.33301 45.667 9.33301 81 24c3.33301 1.33301 7 2.33301 11 3c14 6 24.667 10.333 32 13c7.33301 3.33301 17.333 7 30 11c13.333 4 24.333 6.66699 33 8c9.33301 0.666992 18.333 1 27 1c10 0 19.333 -1.33301 28 -4c29.333 -12.667 56.666 -33.667 81.999 -63
c24.667 -29.333 44 -61.666 58 -96.999c26.667 -68 43.334 -136.667 50.001 -206c9.33301 -69.333 4 -139 -16 -209c-18.667 -55.333 -49.667 -106 -93 -152c-44 -46 -90.333 -76.667 -139 -92c-23.333 -7.33301 -47.333 -7 -72 1
c-23.333 7.33301 -51.666 20.333 -84.999 39l-58 30c-11.333 5.33301 -28.333 10.666 -51 15.999c-22 5.33301 -42 6.33301 -60 3c-34.667 -7.33301 -79.667 -34.333 -135 -81l-37 -34l-27 -26v0l-10 -8c-1.33301 -2 -2 -4.33301 -2 -7
c-0.666992 -1.33301 -0.333984 -2.66602 0.999023 -3.99902c2 -2 4 -3 6 -3c0.666992 -0.666992 1.66699 -0.333984 3 0.999023l1 1l44 30c32 20.667 56.667 33 74 37c8 3.33301 20.333 4.33301 37 3c16 -2 27.667 -3.33301 35 -4c7.33301 -1.33301 19 -4.33301 35 -9
c16 -4 28.333 -7.66699 37 -11l36 -13c4.66699 -1.33301 8.33398 -2.66602 11.001 -3.99902c19.333 -6.66699 35.666 -12 48.999 -16c12.667 -4 28 -8 46 -12c18 -3.33301 35 -4.33301 51 -3s32 5 48 11c67.333 24 130 66.667 188 128c57.333 61.333 99.333 129.333 126 204
c23.333 72 31.833 146 25.5 222s-22.833 148.667 -49.5 218c-12.667 35.333 -31 66.666 -55 93.999c-23.333 27.333 -50 47.333 -80 60c-7.33301 2 -14.666 3.66699 -21.999 5s-14 2.33301 -20 3c-6 0 -13.667 -0.666992 -23 -2s-16.333 -2.5 -21 -3.5
s-12.667 -3.16699 -24 -6.5c-12 -3.33301 -19.5 -5.5 -22.5 -6.5s-10.833 -3.83301 -23.5 -8.5c-12 -4 -19 -6.66699 -21 -8h-1c-36.667 -13.333 -64.667 -21 -84 -23c-29.333 -2 -53.666 4.66699 -72.999 20c-6.66699 8.66699 -10.334 14.334 -11.001 17.001
c-2 7.33301 -3 17 -3 29l1 36c0 2 -0.666992 4 -2 6zM573.999 781.001l-2.00293 0.00195312c-2.66699 0 -4.66699 -1 -6 -3c-21.333 -30 -36.666 -63.667 -45.999 -101c-9.33301 -38 -16.333 -92 -21 -162v-1c-6.66699 -96 -30.667 -170.833 -72 -224.5
s-94.666 -89.834 -159.999 -108.501c-3.33301 -0.666992 -5 -3.33398 -5 -8.00098c0 -2.66699 1 -4.66699 3 -6c30.667 -13.333 61.334 -11.333 92.001 6c28 15.333 53.667 42 77 80c48 75.333 74 161.666 78 258.999v2c4.66699 68.667 11.334 121 20.001 157
c8.66699 36.667 23.667 69.334 45 98.001l1 1c1.33301 1.33301 2 2.33301 2 3c0 3.33301 -0.333008 5.5 -1 6.5s-2.33398 1.5 -5.00098 1.5z" />
    <glyph glyph-name="E" unicode="E" horiz-adv-x="872" 
d="M792 -1c72 52 131.669 118.995 179.002 200.995l11 21c12 24 22.667 48.333 32 73v2l1 2c0.666992 1.33301 0.666992 2.66602 0 3.99902c-1.33301 1.33301 -3 2.33301 -5 3s-4 0.666992 -6 0c-1.33301 -0.666992 -2 -2 -2 -4h-1
c-8.66699 -23.333 -19.334 -47.333 -32.001 -72c-36 -66 -82.5 -121.333 -139.5 -166s-111.833 -72.667 -164.5 -84c-60.667 -12 -119.334 -4 -176.001 24c-56 28.667 -93.333 69.667 -112 123c-19.333 56 -14.666 122 14.001 198c28 69.333 67.667 126.666 119 171.999
c12 10.667 26.333 19.667 43 27l5 2l3 -5l3 -3c44.667 -45.333 90 -65.666 136 -60.999c17.333 2 34 12.333 50 31c7.33301 8.66699 12.666 17.667 15.999 27c3.33301 10.667 3 20 -1 28c-12 24.667 -32 40.667 -60 48c-23.333 5.33301 -52 4.33301 -86 -3
c-9.33301 -2 -19.333 -5 -30 -9l-5 -2l-2 5c-9.33301 14 -16.333 26 -21 36c-17.333 32 -28.333 66.667 -33 104c-5.33301 40.667 1.33398 73.334 20.001 98.001c32 42.667 79 71.667 141 87c57.333 14.667 108.666 11.667 153.999 -9
c8 -3.33301 15.667 -9.66602 23 -18.999l8 -8l-24 -10c-21.333 -12.667 -40 -29.667 -56 -51c-8 -12 -13 -23.667 -15 -35c-3.33301 -13.333 -1 -24 7 -32c10 -10 23 -13.667 39 -11c12.667 2.66699 26.667 10 42 22c19.333 15.333 35 33.333 47 54l3 5l6 -2
c12.667 -6 20.667 -10 24 -12c25.333 -10 47.333 -13.333 66 -10c26.667 3.33301 52.667 18.333 78 45l2 6c0 2 -0.666992 3.66699 -2 5c-0.666992 1.33301 -2 2 -4 2c-1.33301 0 -3 -0.666992 -5 -2c0 0.666992 -1.33301 -0.166016 -4 -2.49902
s-6.33398 -5.16602 -11.001 -8.49902s-10 -6.83301 -16 -10.5s-12.833 -6.66699 -20.5 -9s-15.5 -3.5 -23.5 -3.5c-16.667 0 -34.334 6 -53.001 18h-1c-2.66699 2 -9.66699 7.66699 -21 17l-4 2v4c2.66699 22.667 -1 45.334 -11 68.001c-13.333 30 -32 49.333 -56 58v0
c-18.667 8 -39 12 -61 12c-44 0 -90.333 -13.667 -139 -41c-74 -38 -133.667 -89 -179 -153c-13.333 -18.667 -20.666 -40.667 -21.999 -66c-1.33301 -26 2.66699 -49.333 12 -70c15.333 -34.667 34 -66.667 56 -96l5 -7l-8 -5c-28.667 -14.667 -54 -30.667 -76 -48
c-62 -50 -107.667 -115.333 -137 -196c-31.333 -86.667 -33.333 -164 -6 -232c17.333 -57.333 53 -102.666 107 -135.999c54.667 -33.333 113.334 -44.333 176.001 -33c67.333 10.667 135 41.667 203 93zM867.002 817.995l1.99902 0.000976562
c4.66699 0 9.33398 -0.666992 14.001 -2l5 -1v-9v-2c-6 -14 -18.333 -24.333 -37 -31c-7.33301 -3.33301 -14.333 -5 -21 -5h-1v0c-6 1.33301 -10.333 3.66602 -13 6.99902l-4 4l3 5c0.666992 2 2.66699 4.33301 6 7c4 6.66699 10.667 12.667 20 18c8 6 16.667 9 26 9z
M640.001 536.996c22.667 0 42.3291 -4.00098 58.9961 -12.001c8.66699 -3.33301 15.334 -9.66602 20.001 -18.999c2.66699 -2.66699 4.33398 -5 5.00098 -7l2 -6l-4 -3c-10.667 -10 -23 -13.333 -37 -10c-13.333 3.33301 -28.666 12.333 -45.999 27
c-5.33301 4 -10.666 9.33301 -15.999 16l-9 9l13 3c4 1.33301 8.33301 2 13 2z" />
    <glyph glyph-name="F" unicode="F" horiz-adv-x="822" 
d="M725 987l-5.99316 -0.00488281c-23.333 0 -56 -7.33301 -98 -22c-22.667 -8 -40 -13.667 -52 -17l-3 -1l-3 2c-10.667 6.66699 -21.334 11.334 -32.001 14.001h-1c-17.333 6 -29.333 9.33301 -36 10c-8.66699 1.33301 -15.334 1 -20.001 -1h-1
c-6.66699 -1.33301 -11.667 -5.33301 -15 -12c-2.66699 -5.33301 -3 -11 -1 -17c1.33301 -4 4.33301 -8 9 -12v0c7.33301 -8.66699 16.333 -14.667 27 -18c9.33301 -4 20 -6 32 -6h4l3 -3c4 -6.66699 8.33301 -12.667 13 -18v-1c24 -29.333 39.333 -78.666 46 -147.999
c6 -68 3 -143.333 -9 -226l-4 -21l-1 -3l-2 -2c-14.667 -10.667 -31.334 -24.667 -50.001 -42c-33.333 -30 -65.666 -63.667 -96.999 -101c-80.667 -98.667 -126.334 -184.667 -137.001 -258c-2.66699 -19.333 -2 -38 2 -56c4.66699 -22.667 15.667 -36 33 -40v0
c19.333 -6 39.333 1 60 21c12 12 26 30.333 42 55c94 142.667 163.667 289 209 439l1 3l4 2c4.66699 2 9 4 13 6c38 18 65.333 23.333 82 16h1c6 -2.66699 16 -6.83398 30 -12.501s23 -9.16699 27 -10.5c5.33301 -1.33301 13 -3.66602 23 -6.99902l20 -7
c4 -0.666992 9.66699 -2 17 -4s13 -3.33301 17 -4c4.66699 -0.666992 10 -1 16 -1c4 0 8.16699 0.333008 12.5 1l12.5 2l15 5c6.66699 2 11.667 3.33301 15 4s8.66602 2.66699 15.999 6c8 4 14.333 6.66699 19 8c4 1.33301 11 4.66602 21 9.99902
c10.667 4.66699 18.667 8 24 10l2 1h1c0.666992 0.666992 1.66699 2 3 4c0.666992 1.33301 0 3.33301 -2 6v0c-1.33301 2 -2.33301 3.33301 -3 4h-4l-3 -1c-31.333 -14 -58 -21 -80 -21c-22 -0.666992 -40 3.33301 -54 12c-4 1.33301 -13.667 6.33301 -29 15s-29 15 -41 19
c-12.667 3.33301 -26.334 5 -41.001 5c-38.667 1.33301 -74.667 -5.66699 -108 -21l-15 -7l4 15c38 156.667 27.333 270.334 -32 341.001c-2.66699 3.33301 -6 7 -10 11l-12 11l16 1c8.66699 1.33301 16 2 22 2v0c10 -1.33301 20.333 -3 31 -5l26 -5
c7.33301 -1.33301 18.166 -4.66602 32.499 -9.99902l27 -10c3.66699 -1.33301 14 -5.5 31 -12.5s26.5 -11.167 28.5 -12.5c-2 -3.33301 12 -8 42 -14s60.667 -11 92 -15l47 -6c38.667 6 69.667 16.667 93 32s52 43.666 86 84.999v2l2 2c1.33301 1.33301 2 2.66602 2 3.99902
c0 2 -0.833008 3.66699 -2.5 5s-3.5 2 -5.5 2s-3.66699 -0.666992 -5 -2c-39.333 -41.333 -76 -64.666 -110 -69.999c-38.667 -5.33301 -92.334 7.33398 -161.001 38.001c-2 0.666992 -8.33301 3.33398 -19 8.00098c-11.333 6 -18.333 9.33301 -21 10
s-9.33398 3.33398 -20.001 8.00098c-10 4.66699 -17 7.33398 -21 8.00098c-5.33301 1.33301 -12.666 3.33301 -21.999 6c-8.66699 3.33301 -16 5.66602 -22 6.99902s-13 2.5 -21 3.5s-15.333 1.5 -22 1.5zM573.007 466.995l-5.99902 -31.001
c-34.667 -163.333 -91.334 -286.333 -170.001 -369c-16.667 -13.333 -26.667 -20.666 -30 -21.999c-6 -2 -11.667 -2.66699 -17 -2c-4.66699 0.666992 -8 2 -10 4c-6 6 -8.33301 16 -7 30s6 31.667 14 53c16 40.667 41.333 88.667 76 144c34 50 69 96.333 105 139z" />
    <glyph glyph-name="G" unicode="G" horiz-adv-x="843" 
d="M609 999c-30.667 21.333 -61.9961 31.9951 -93.9961 31.9951h-9c-5.33301 0 -11 -0.666992 -17 -2c-72 -11.333 -120 -62.666 -144 -153.999c-0.666992 -3.33301 1 -6 5 -8c3.33301 -2 6.33301 -1.33301 9 2c23.333 30.667 44.333 52.334 63 65.001
c20 13.333 43.333 20.333 70 21c39.333 3.33301 83 -13.667 131 -51l7 -6l-7 -6c-30 -27.333 -56.667 -57 -80 -89c-71.333 -96 -122.666 -191.667 -153.999 -287c-40.667 -122 -36.667 -218.333 12 -289c26 -37.333 70 -55.333 132 -54c52 2 103 16.333 153 43
c52 26.667 98.667 60 140 100l18 18l-5 -24c-22.667 -98 -61.334 -185.667 -116.001 -263c-55.333 -77.333 -120 -133.333 -194 -168c-50.667 -23.333 -105.334 -31 -164.001 -23c-62.667 8.66699 -105 35 -127 79c-5.33301 12.667 -4.66602 34.334 2.00098 65.001
c2 12 8.66699 27.667 20 47c4.66699 9.33301 10.167 18.333 16.5 27s11.166 15.667 14.499 21l6 7c1.33301 2 2 3.83301 2 5.5s-0.666992 3.16699 -2 4.5c-0.666992 1.33301 -1.66699 2 -3 2c-2.66699 0 -4.66699 -0.333008 -6 -1c-28.667 -25.333 -56.334 -53 -83.001 -83
c-22.667 -27.333 -39.334 -52.333 -50.001 -75c-14 -30 -17.333 -55.333 -10 -76c23.333 -62.667 80 -97.667 170 -105c79.333 -7.33301 152.666 7 219.999 43c61.333 30 116.666 75.667 165.999 137c49.333 60.667 87.666 125.334 114.999 194.001s46.666 141 57.999 217v2
l2 1c28 32.667 47.333 65 58 97c14.667 41.333 13.334 79.333 -3.99902 114l-1 2v2c-2 4 -4.33301 7 -7 9v1h-1c-4.66699 7.33301 -9 12.666 -13 15.999c-3.33301 3.33301 -7 5.33301 -11 6s-7.66699 0 -11 -2h-1c-5.33301 -2.66699 -9.66602 -8.66699 -12.999 -18
c-2.66699 -8 -5 -17.667 -7 -29c-2 -12 -3.66699 -27 -5 -45l-2 -53.5c-0.666992 -18.333 -1 -30.166 -1 -35.499v-1c-2 -18.667 -4.66699 -40 -8 -64v-2l-1 -2l-31 -34v0l-1 -1c-64.667 -58 -128.334 -95.333 -191.001 -112c-29.333 -8.66699 -60.833 -5.66699 -94.5 9
s-58.167 36 -73.5 64v0c-27.333 61.333 -35.333 130.666 -24 207.999c12.667 76.667 39.334 146.334 80.001 209.001c38.667 60 89 111.667 151 155l5 3l3 -4c5.33301 -4.66699 10.666 -9.66699 15.999 -15l49 -43c10.667 -9.33301 26 -21 46 -35
c19.333 -14 37.833 -23.667 55.5 -29s35.834 -7.33301 54.501 -6c36.667 2 71.667 12 105 30c39.333 21.333 61 48 65 80c4 38 -13 75 -51 111c-31.333 32 -65.666 51.333 -102.999 58c-71.333 10.667 -146.666 -12.666 -225.999 -69.999l-5 -4l-4 4
c-24.667 24.667 -46.334 44 -65.001 58zM729.004 902.995c47.333 23.333 93.333 35.001 138 35.001c9.33301 0 18.333 -0.666992 27 -2c30.667 -2.66699 59 -15.667 85 -39c31.333 -24.667 45.333 -50.334 42 -77.001c-2.66699 -17.333 -16.334 -31 -41.001 -41
c-22 -9.33301 -45 -13.333 -69 -12c-31.333 0.666992 -61.333 11.667 -90 33c-27.333 20.667 -58.666 50.667 -93.999 90l-7 8zM912.004 605.996l5.00098 -42c4 -40.667 -2.33301 -81 -19 -121l-22 -52l7 56c5.33301 40.667 9.66602 71.667 12.999 93v1z" />
    <glyph glyph-name="H" unicode="H" horiz-adv-x="990" 
d="M727 40c0 -41.333 5.6748 -79.6709 17.0078 -115.004c5.33301 -16 14 -30.667 26 -44c12 -12.667 26 -20 42 -22c33.333 -3.33301 68.666 7.33398 105.999 32.001c25.333 16.667 53.666 41.667 84.999 75c34.667 38.667 70.667 106 108 202
c18 46.667 32.667 90.334 44 131.001c0 2 0.333008 3.66699 1 5c-0.666992 0.666992 -1 1.33398 -1 2.00098c-0.666992 2 -2 3.33301 -4 4c-2 0 -3.83301 -0.5 -5.5 -1.5s-2.83398 -2.16699 -3.50098 -3.5l-1 -6h-2c-11.333 -32 -25 -67.333 -41 -106
c-33.333 -81.333 -64 -138.666 -92 -171.999c-29.333 -36 -48.666 -58.667 -57.999 -68h-1c-24.667 -22.667 -48.667 -34 -72 -34c-13.333 0 -27 6 -41 18c-14 11.333 -24 23.333 -30 36v1c-11.333 32 -17.333 67.333 -18 106s2.66602 74.667 9.99902 108
s18.666 71.333 33.999 114c16 42 30.167 76.5 42.5 103.5l45.5 95.5c1.33301 2.66699 3.33301 5.33398 6 8.00098l2 2h3c36 3.33301 84 18.333 144 45c2 1.33301 3.33301 2.66602 4 3.99902v2l1 1c0 0.666992 -0.333008 1.66699 -1 3l-1 1v1
c-2 1.33301 -4.33301 2.33301 -7 3l-2 -1c-36 -16.667 -71.333 -23.334 -106 -20.001l-12 1l7 10c46.667 72.667 79.667 128 99 166c25.333 52.667 40 98.667 44 138c4.66699 49.333 -7.33301 88.333 -36 117c-13.333 14.667 -28 22 -44 22h-3
c-2 0 -4.33301 -0.333008 -7 -1h-1c-20.667 -4 -46.334 -21 -77.001 -51c-2.66699 -2.66699 -3.5 -5.5 -2.5 -8.5s3.5 -4.5 7.5 -4.5c21.333 0 38.333 -1.33301 51 -4c17.333 -3.33301 28.666 -10.333 33.999 -21c28.667 -55.333 20 -129.333 -26 -222
c-15.333 -32.667 -41.666 -78 -78.999 -136l-2 -4h-7l-1 1c-11.333 2.66699 -26 7.66699 -44 15c-18 6.66699 -34.667 12.334 -50 17.001c-14.667 4 -29.334 7 -44.001 9h-16c-12 0 -24.667 -1.66699 -38 -5l-12 -4l2 12c17.333 83.333 20.333 162.666 9 237.999
c-6 36.667 -18.667 70 -38 100c-24.667 36 -52.667 55 -84 57h-10c-43.333 -1.33301 -84.333 -23.666 -123 -66.999c-35.333 -39.333 -60.333 -85.333 -75 -138c-7.33301 -30 -8.66602 -60 -3.99902 -90c6 -35.333 21.667 -57.666 47 -66.999c34 -12.667 67.667 -7 101 17
c23.333 16.667 48 43.334 74 80.001c4.66699 6 8.66699 12 12 18v2l2 2c0.666992 1.33301 0.666992 2.83301 0 4.5s-1.66699 3.16699 -3 4.5c-2 0.666992 -4.33301 1 -7 1c-1.33301 0 -2.33301 -1 -3 -3v0l-12 -16v-2l-1 -2c-16 -18.667 -33.667 -33 -53 -43
c-27.333 -14.667 -51.333 -16.334 -72 -5.00098c-22 11.333 -33 35.666 -33 72.999c0 31.333 6.66699 63 20 95c12.667 28.667 29.667 52.667 51 72c24.667 22 48.334 31 71.001 27c20.667 -3.33301 36 -19.333 46 -48c8.66699 -20 14.334 -46.333 17.001 -79
c2.66699 -25.333 4 -50.666 4 -75.999c1.33301 -67.333 -4 -134.666 -16 -201.999l-1 -3l-2 -2c-14 -8.66699 -28.667 -19.334 -44 -32.001c-16 -13.333 -31.667 -28 -47 -44c-28.667 -29.333 -58.334 -63.666 -89.001 -102.999c-74 -96.667 -122.667 -181.667 -146 -255
c-8 -24 -12.667 -40.667 -14 -50v-1c-1.33301 -10.667 -1 -19.334 1 -26.001h1c2 -9.33301 7.33301 -16.333 16 -21c10.667 -6 23 -7.33301 37 -4c11.333 4 23.666 10.667 36.999 20c14.667 11.333 34 31.666 58 60.999c129.333 152 215.666 305.333 258.999 460l2 4l4 1
c16.667 3.33301 29 4 37 2v-1c60.667 -23.333 107.667 -37.333 141 -42l13 -2l-8 -10c-2.66699 -3.33301 -4.33398 -6 -5.00098 -8c-20.667 -38 -38.834 -73.5 -54.501 -106.5s-31.5 -70.5 -47.5 -112.5s-27.5 -81.333 -34.5 -118s-10.5 -75.667 -10.5 -117z
M619.008 523.995l-4.00391 -17.999c-37.333 -173.333 -108.666 -310.666 -213.999 -411.999c-9.33301 -8.66699 -19.666 -15.334 -30.999 -20.001c-6 -2 -11 -3 -15 -3c-5.33301 0 -9 1.33301 -11 4c-6 5.33301 -8.33301 15 -7 29c0.666992 14 5.33398 32 14.001 54
c16 40 41.333 87.667 76 143c33.333 50.667 67.333 97 102 139c18.667 22 33.334 38.333 44.001 49c9.33301 9.33301 19.333 17.666 30 24.999z" />
    <glyph glyph-name="I" unicode="I" horiz-adv-x="822" 
d="M273 -32c20.667 15.333 43.0029 29.3389 67.0029 42.0059c20 12.667 37.667 21.334 53 26.001c19.333 6.66699 33.333 8.33398 42 5.00098l36 -15.5c18 -7.66699 31.667 -13.167 41 -16.5h1v0c10 -6 20.333 -9.66699 31 -11l1 -1
c24.667 -7.33301 47.667 -11.666 69 -12.999c58.667 -2 125 24 199 78l13 9c1.33301 1.33301 2.33301 3.33301 3 6c0 1.33301 -0.666992 2.66602 -2 3.99902c-1.33301 2 -3 3 -5 3s-4.33301 -0.666992 -7 -2c-1.33301 -1.33301 -3.33301 -3 -6 -5v-1l-4 -2
c-22.667 -14.667 -46.334 -22.667 -71.001 -24c-23.333 -0.666992 -49.333 4.66602 -78 15.999l-45 20c-20 9.33301 -35 16 -45 20l-2 1l-2 3c-20.667 50.667 -20.334 109 0.999023 175c12 38 43 106.333 93 205c0.666992 8 16.334 37.333 47.001 88
s54.334 92.667 71.001 126c24 49.333 39 92.666 45 129.999c1.33301 13.333 1.66602 26 0.999023 38v6l6 1c19.333 5.33301 38 14.666 56 27.999c18.667 13.333 44 34.666 76 63.999c1.33301 1.33301 2.33301 3 3 5c0 1.33301 -0.5 3 -1.5 5s-2.16699 3 -3.5 3
s-3 -0.333008 -5 -1c-35.333 -24 -67.333 -31.333 -96 -22c-6 1.33301 -16 4.33301 -30 9s-28 9 -42 13c-12.667 3.33301 -26 5 -40 5h-5c-20.667 0 -42 -3.66699 -64 -11s-40.667 -16.333 -56 -27c-16 -10.667 -30.167 -21.334 -42.5 -32.001s-21.5 -20 -27.5 -28l-9 -12
c-1.33301 -1.33301 -2 -3 -2 -5c0 -1.33301 0.666992 -2.33301 2 -3c2 -1.33301 3.66699 -2 5 -2c2 0 4 0.333008 6 1c24.667 15.333 39 24 43 26c30 16 54 21.333 72 16v0c26 -11.333 46.333 -19.333 61 -24l2 -1l4 -5l1 -1c22.667 -52 16 -120 -20 -204
c-10 -21.333 -20.833 -43.333 -32.5 -66s-25.167 -47.334 -40.5 -74.001c-14.667 -26.667 -23.334 -44.334 -26.001 -53.001l-33 -60l-33.5 -59c-8.33301 -14.667 -17.333 -31.667 -27 -51s-17.5 -37 -23.5 -53c-21.333 -50.667 -31.333 -98 -30 -142v-6l-6 -2
c-35.333 -9.33301 -74 -29.333 -116 -60l-40 -32.5c-14 -11.667 -24.333 -21.167 -31 -28.5l-11 -9c-1.33301 -1.33301 -2 -3 -2 -5s0.666992 -3.83301 2 -5.5s2.66602 -2.5 3.99902 -2.5c2 -0.666992 4 -0.333984 6 0.999023z" />
    <glyph glyph-name="J" unicode="J" horiz-adv-x="884" 
d="M333 206c-5.33301 28 -2.00391 52.9961 9.99609 74.9961c5.33301 12.667 13.333 21.334 24 26.001c12.667 5.33301 28 6.33301 46 3h1c0.666992 -0.666992 1.83398 -0.5 3.50098 0.5s2.83398 2.5 3.50098 4.5s0.666992 4 0 6c-0.666992 1.33301 -1.66699 2 -3 2h-2l-1 1
c-24.667 8 -48 7.33301 -70 -2c-20 -8 -37 -22 -51 -42c-30 -41.333 -40.667 -83 -32 -125c12.667 -64 57.334 -114.667 134.001 -152c70.667 -36 138.667 -45.667 204 -29c94.667 22.667 179.667 87 255 193c66 92.667 111 196.667 135 312
c16.667 87.333 16.334 172 -0.999023 254c-8 50 -21.333 93 -40 129l-5 8l9 3c27.333 12.667 67.666 42.667 120.999 90c2 2 3 4 3 6s-0.333008 3.66699 -1 5s-2 2.16602 -4 2.49902s-4 -0.5 -6 -2.5l-8 -7c-5.33301 -4.66699 -13.166 -10.167 -23.499 -16.5
s-20.5 -10.5 -30.5 -12.5c-19.333 -4 -36.333 -2.33301 -51 5c-7.33301 2.66699 -17.666 7.33398 -30.999 14.001c-14 6.66699 -27.333 12.334 -40 17.001c-13.333 4 -26.333 6 -39 6h-6c-20 0 -40 -3.5 -60 -10.5s-37 -15.833 -51 -26.5
c-14 -11.333 -26.833 -22.333 -38.5 -33s-20.167 -19.667 -25.5 -27l-8 -12c-1.33301 -1.33301 -2 -3 -2 -5c0 -1.33301 0.333008 -2.66602 1 -3.99902c1.33301 -1.33301 3 -2 5 -2s3.66699 0.666992 5 2c22.667 15.333 35.667 24 39 26c27.333 16 48.666 21 63.999 15
c43.333 -18 69.666 -28.333 78.999 -31l1 -1l2 -1c42.667 -58 71.834 -128.167 87.501 -210.5s14.167 -159.833 -4.5 -232.5c-23.333 -93.333 -65 -176.333 -125 -249c-66 -82 -135.333 -129 -208 -141c-54 -9.33301 -108.667 3.33398 -164 38.001
c-57.333 35.333 -91 79 -101 131z" />
    <glyph glyph-name="K" unicode="K" horiz-adv-x="1011" 
d="M905 141c16.667 -58 27.334 -93.6709 32.001 -107.004c8.66699 -26.667 22.334 -57 41.001 -91c18.667 -34.667 40 -63.334 64 -86.001c16.667 -15.333 54 -31 112 -47c49.333 -13.333 94.333 -20 135 -20v-1l2 -1l4 -2c0.666992 -1.33301 1 -3 1 -5
c0 -1.33301 -0.666992 -2.66602 -2 -3.99902s-3 -2 -5 -2c-25.333 0 -58 -2 -98 -6s-64.667 -6 -74 -6h-1c-56 -3.33301 -102 7.66699 -138 33c-42 29.333 -74 66.333 -96 111c-22.667 44.667 -42.334 100 -59.001 166v0c-2.66699 10 -9 36.333 -19 79
c-10.667 43.333 -18.334 73.333 -23.001 90c-4.66699 17.333 -12.667 40.666 -24 69.999s-23 54.666 -35 75.999c-20 32 -40 56.333 -60 73c-30 24 -69 49.333 -117 76l-10 6l-1 -12c-4 -50 -12.667 -104.333 -26 -163c-32 -142 -83 -242.667 -153 -302
c-46 -39.333 -102.667 -47.666 -170 -24.999c-4 1.33301 -5.83301 3.83301 -5.5 7.5s2.16602 5.83398 5.49902 6.50098c27.333 5.33301 64.333 25.666 111 60.999c43.333 32 77.333 65.667 102 101c51.333 74 88.333 175 111 303l2 9h-20c-18 2 -32.667 14.667 -44 38v0
c-3.33301 6.66699 -3.66602 12.334 -0.999023 17.001v0c0.666992 2 2.66699 4 6 6c2.66699 0.666992 5.33398 1 8.00098 1c7.33301 0 19.333 -3.33301 36 -10v-1h1c4 -0.666992 7.33301 -1.66699 10 -3l8 -2l2 9c2 14 3 27 3 39c0 14 0.166992 37.833 0.5 71.5
s1 59.5 2 77.5s3.16699 40.333 6.5 67c2.66699 26 8.33398 49.5 17.001 70.5s20 41.167 34 60.5c17.333 23.333 45 38.333 83 45h2c4 0 6.33301 -2 7 -6s-0.666016 -6.66699 -3.99902 -8c-26 -10 -50.333 -37.333 -73 -82c-19.333 -39.333 -34.333 -85.666 -45 -138.999
c-11.333 -58 -15.333 -104.333 -12 -139c1.33301 -15.333 1.33301 -36.666 0 -63.999l-1 -21l15 16l26 31c10.667 13.333 17.667 21.333 21 24v1c17.333 20 48.333 58.667 93 116c44 56.667 79 99.334 105 128.001c89.333 98.667 177.666 148 264.999 148
c23.333 0 42.666 -5.66699 57.999 -17l12 -15c8 -10 15.5 -20.333 22.5 -31s9.16699 -16.334 6.5 -17.001c0.666992 -2 0.333984 -3.66699 -0.999023 -5c-0.666992 -2 -2 -3.33301 -4 -4c-2 3.33301 -3.66699 3.33301 -5 0c-2 0.666992 -3.66699 2 -5 4
c-8 12 -19.667 19.667 -35 23c-15.333 4.66699 -31.333 5.33398 -48 2.00098c-26.667 -4 -53.667 -12 -81 -24c-26.667 -11.333 -53.334 -26.333 -80.001 -45c-26 -18 -49 -35 -69 -51c-20.667 -16 -44.334 -37.667 -71.001 -65l-60.5 -62.5l-59.5 -64.5l-46 -53l-2 -2
c-2 -2 -5 -4.66699 -9 -8l-12 -10c-4 -3.33301 -8 -7.66602 -12 -12.999l-6 -8l25 -14c56 -32 99.333 -60.333 130 -85c36 -30.667 68 -66.667 96 -108c44 -66 77 -134.667 99 -206zM464 574.996l19 -6.99902c5.33301 -2.66699 11 -5.33398 17 -8.00098l19 -9l-20 -5
c-5.33301 -1.33301 -10 -1.33301 -14 0c-5.33301 2 -9.33301 5.66699 -12 11z" />
    <glyph glyph-name="L" unicode="L" horiz-adv-x="915" 
d="M975 -203c30.667 -12.667 54.332 -20.3379 70.999 -23.0049c26 -4 48 -6 66 -6s45.333 1 82 3c36 1.33301 65.667 2 89 2c1.33301 0 3 0.666992 5 2v0c0.666992 0.666992 1 1.33398 1 2.00098v0c0.666992 0.666992 1 1.33398 1 2.00098c0 2 -0.333008 4 -1 6l-3 2l-2 1
h-1c-37.333 -1.33301 -63 -1.33301 -77 0c-40 4 -97.333 27 -172 69c-34 18.667 -70 43.667 -108 75c-38 30.667 -71.333 59.667 -100 87c-28.667 26.667 -63 54.334 -103 83.001c0 1.33301 -33.667 24.666 -101 69.999c-31.333 20.667 -56 35 -74 43l-11 4l7 8
c31.333 42 55.333 82.333 72 121c18 40.667 31 78 39 112c12.667 55.333 24.334 100.666 35.001 135.999c6.66699 47.333 34 118.333 82 213c34 68 85 115 153 141h1c14.667 4.66699 30.334 4.33398 47.001 -0.999023c12 -3.33301 27 -18.333 45 -45
c1.33301 -2 3 -3.66699 5 -5c1.33301 4 2.66602 4 3.99902 0c2 1.33301 3.66699 3 5 5c1.33301 1.33301 1.66602 3 0.999023 5c-10.667 32.667 -27.667 59.667 -51 81c-21.333 20 -43.666 30 -66.999 30h-3c-3.33301 0 -6.66602 -0.666992 -9.99902 -2h-1
c-72.667 -14 -128.334 -59 -167.001 -135c-25.333 -49.333 -48.333 -130.666 -69 -243.999c-26 -130 -46.667 -217 -62 -261c-22.667 -65.333 -51 -116 -85 -152l-3 -3l-5 1c-46.667 9.33301 -89 12.666 -127 9.99902c-64.667 -4.66699 -101.667 -8 -111 -10
c-20 -4 -35.667 -10 -47 -18c-13.333 -10 -18.333 -23.333 -15 -40c4.66699 -22 19 -37 43 -45c18.667 -5.33301 43 -5.66602 73 -0.999023c24 2.66699 49 9 75 19h1c24 6 44.667 13 62 21c3.33301 2.66699 8.66602 6.33398 15.999 11.001l17 11l11 -4l47 -24
c13.333 -6.66699 32.333 -19 57 -37l85 -67c42.667 -37.333 74.334 -70.666 95.001 -99.999c50.667 -72.667 111.667 -123.667 183 -153zM331.998 140.996c-22 -1.33301 -40.332 0.667969 -54.999 6.00098c-12.667 4 -20 10 -22 18c-2.66699 14 1.66602 24 12.999 30
c9.33301 5.33301 24 8.66602 44 9.99902v0h5v0c52.667 -1.33301 94.334 -5.33301 125.001 -12l33 -7l-27 -15c-14.667 -8 -31.334 -15 -50.001 -21v0c-23.333 -5.33301 -45.333 -8.33301 -66 -9z" />
    <glyph glyph-name="M" unicode="M" horiz-adv-x="1154" 
d="M951 791c2.66699 -30 -0.994141 -68.998 -10.9941 -116.998l-31 -147v-2l-1 -1c-54 -76.667 -111 -175.667 -171 -297c-28.667 -59.333 -45.334 -101.333 -50.001 -126v0c-2 -7.33301 -2.66699 -13 -2 -17h1v-3l1 -1c3.33301 -2 6.33301 -3 9 -3
c4 -0.666992 9.33301 0.666016 16 3.99902v1c4.66699 2.66699 11 7.33398 19 14.001c73.333 71.333 131.333 187.666 174 348.999v1l30 66c1.33301 4 2.33301 6.33301 3 7c4 4 8 9.16699 12 15.5s9.83301 16.166 17.5 29.499l17.5 30c20.667 32.667 36.667 56.334 48 71.001
c19.333 26 38 44.333 56 55c20 12 41 16.667 63 14c30 -4 53.667 -25.667 71 -65c14.667 -34 22 -72.333 22 -115c0 -35.333 -8.33301 -72.666 -25 -111.999c-16 -38.667 -32.333 -70.667 -49 -96c-17.333 -24 -42.666 -56.667 -75.999 -98
c-26.667 -34 -46.334 -60 -59.001 -78s-28.334 -42.333 -47.001 -73c-18 -30.667 -30.667 -60 -38 -88s-11 -56.333 -11 -85c0 -22.667 5.83301 -45 17.5 -67s27.167 -39.667 46.5 -53c22.667 -15.333 60.667 -25 114 -29c26.667 -2 50.667 -2.33301 72 -1h1h7v1h2v3
c-0.666992 4.66699 -2.33398 7.66699 -5.00098 9v0c-20.667 10 -42.334 22.667 -65.001 38c-44.667 28.667 -72.667 53.667 -84 75c-11.333 23.333 -16.666 53.333 -15.999 90c1.33301 34.667 6.66602 62.667 15.999 84c11.333 25.333 35 67.666 71 126.999l72 120
c64 115.333 97.667 213 101 293c2 47.333 -0.666992 86 -8 116c-5.33301 21.333 -13 38.333 -23 51c-10.667 14.667 -25 24 -43 28c-33.333 7.33301 -66 2 -98 -16c-25.333 -15.333 -51.666 -39.666 -78.999 -72.999l-36 -47l9 38l5 20c10 51.333 13.333 92.666 10 123.999
v1c-0.666992 19.333 -5.33398 35 -14.001 47v0c-9.33301 14 -23 22.667 -41 26c-21.333 3.33301 -46.666 -2 -75.999 -16c-24 -12.667 -51 -32 -81 -58c-23.333 -20.667 -49.333 -46.334 -78 -77.001l-16 -17l3 27c2.66699 28.667 3 53 1 73
c-4 34.667 -16.333 67.667 -37 99c-24 33.333 -52.333 50.333 -85 51h-6c-60.667 0 -116.667 -32.333 -168 -97c-42.667 -56.667 -73.334 -122 -92.001 -196c-6.66699 -30 -7.66699 -59.333 -3 -88c5.33301 -36 20.333 -58.667 45 -68c33.333 -12.667 66.666 -7 99.999 17
c22.667 16 47 41.667 73 77c4 5.33301 8.66699 12.333 14 21c0.666992 2.66699 0.666992 5.33398 0 8.00098c-0.666992 0.666992 -2 1 -4 1c-0.666992 -2 -1.66699 -2 -3 0l-1 -1h-1h-4c-2 -3.33301 -5.66699 -9 -11 -17v-2l-2 -2c-16 -16.667 -33.667 -29.667 -53 -39
c-26.667 -14 -50.334 -15.333 -71.001 -4s-31 35.333 -31 72c0 29.333 6.33301 61.333 19 96c19.333 52 43.333 95 72 129c35.333 42.667 72.333 61.334 111 56.001c19.333 -2 34 -16 44 -42c8.66699 -19.333 14.667 -46 18 -80c6 -56.667 2.66699 -118.334 -10 -185.001v-5
l-1 -2c-25.333 -32 -50.666 -70.667 -75.999 -116c-25.333 -47.333 -43.666 -84 -54.999 -110l-56 -129c-29.333 -70 -50.333 -124 -63 -162c-11.333 -28.667 -19 -51 -23 -67v-12c-0.666992 -4 -1.33398 -8.33301 -2.00098 -13v-5c0.666992 -4 1.33398 -7 2.00098 -9
c1.33301 -2 3.66602 -3 6.99902 -3c11.333 -4.66699 22.666 -3.33398 33.999 3.99902c8.66699 5.33301 17.667 14.333 27 27c6.66699 9.33301 15.334 23.333 26.001 42c8.66699 15.333 13.667 24.666 15 27.999v2l1 1c70.667 116.667 130.667 244 180 382
c26.667 75.333 46 142.666 58 201.999l1 -2l1 2c30 32 59 59.333 87 82c22.667 19.333 43 33.333 61 42c18.667 8.66699 33.334 11.334 44.001 8.00098c13.333 -3.33301 23.666 -10 30.999 -20c7.33301 -11.333 11.666 -25.666 12.999 -42.999zM606.006 541.002
c-11.333 -35.333 -24.333 -70.667 -39 -106c-14 -34.667 -33 -78.667 -57 -132l-44 -103v0c-1.33301 -2 -5.66602 -12.333 -12.999 -31l-17 -40c-0.666992 -2.66699 -1.66699 -6 -3 -10l-24 -58l9 60c2 14.667 5.66699 31.667 11 51c13.333 46 33.333 100.667 60 164
c31.333 74.667 65.666 145 102.999 211zM849.006 359.001c0 -2.66699 -0.666992 -5.33301 -2 -8l-1 -1v-2l-54 -108l-14 5c15.333 40 34.333 79 57 117l14 26v-29z" />
    <glyph glyph-name="N" unicode="N" horiz-adv-x="1004" 
d="M634 1011l-5.99316 -0.000976562c-61.333 0 -117.666 -33 -168.999 -99c-42.667 -56 -73.334 -121 -92.001 -195c-6.66699 -30.667 -7.66699 -60.334 -3 -89.001c5.33301 -36 20.333 -58.333 45 -67c33.333 -12.667 66.666 -7 99.999 17c23.333 16 48 42.667 74 80
c4.66699 5.33301 8.66699 11.333 12 18v2l2 2c0.666992 0.666992 0.666992 2 0 4s-1.66699 3.33301 -3 4c-2 1.33301 -4.33301 2 -7 2c-1.33301 -0.666992 -2.33301 -1.66699 -3 -3l-1 -1l-11 -16v-2l-2 -2c-16 -18 -33.667 -32.333 -53 -43
c-26.667 -14 -50.334 -15.333 -71.001 -4s-31 35 -31 71c0 29.333 6.33301 61.666 19 96.999c19.333 52.667 43.333 96 72 130c36 43.333 73.333 62.333 112 57c19.333 -2 34.333 -17.333 45 -46c8.66699 -19.333 14.334 -46 17.001 -80
c5.33301 -54 2.66602 -111.333 -8.00098 -172v-2l-1 -1c-24.667 -33.333 -47 -69 -67 -107c-20.667 -37.333 -44.667 -86.666 -72 -147.999l-51 -114c-25.333 -52 -47 -105 -65 -159c-10.667 -29.333 -17.334 -52.666 -20.001 -69.999c-2 -10 -3 -18.333 -3 -25
c0.666992 -4 1.33398 -7.33301 2.00098 -10c1.33301 -3.33301 3.66602 -5.66602 6.99902 -6.99902c11.333 -4.66699 22.666 -3 33.999 5c8.66699 5.33301 17.667 14.666 27 27.999c6.66699 9.33301 15.334 23.666 26.001 42.999c8.66699 14.667 13.667 24 15 28v1l1 1
c71.333 116 132 243 182 381c23.333 66.667 41.333 126.334 54 179.001v2l1 1c37.333 48 70.333 82.667 99 104c19.333 15.333 46 25 80 29s60.333 1.33301 79 -8c28.667 -14.667 51.667 -40 69 -76c16 -35.333 24.667 -71.666 26 -108.999
c0.666992 -30.667 -2.5 -60.834 -9.5 -90.501s-19.167 -60.834 -36.5 -93.501c-17.333 -32 -32.666 -58.667 -45.999 -80s-33 -50.333 -59 -87l-60.5 -89c-13 -20 -28.833 -47.333 -47.5 -82c-18.667 -34 -31.5 -66.167 -38.5 -96.5s-10.167 -60.833 -9.5 -91.5
c1.33301 -25.333 7.66602 -49.166 18.999 -71.499s26.666 -40.833 45.999 -55.5c22.667 -16 61 -26 115 -30c26.667 -2 50.667 -2.33301 72 -1h1c3.33301 0 5.66602 1 6.99902 3h1c0 0.666992 0.333008 1.33398 1 2.00098v5c-0.666992 2 -2.33398 3.33301 -5.00098 4v0
c-20.667 10 -42.334 22.667 -65.001 38c-45.333 30 -73.333 56 -84 78c-12 24 -17.667 55.333 -17 94c1.33301 32 6.66602 58.333 15.999 79c9.33301 20 31.333 61.333 66 124s61 113.667 79 153c65.333 138.667 98.666 254.334 99.999 347.001
c0.666992 46 -3 83.333 -11 112c-11.333 44 -31.666 73 -60.999 87c-39.333 18.667 -81 15.667 -125 -9c-73.333 -39.333 -131.333 -76.333 -174 -111l-15 -13l2 19c2.66699 27.333 3 51 1 71c-3.33301 35.333 -15.666 68.666 -36.999 99.999
c-24 35.333 -52.667 53.333 -86 54zM601.007 483.999l13.9971 -5.99902c-10 -28 -21.833 -57.667 -35.5 -89l-46 -105.5l-37.5 -86.5v-1c-1.33301 -1.33301 -5.66602 -11.333 -12.999 -30l-17 -40c0 -6 -3 -9 -9 -9h-9l2 10c4 16.667 10 36.667 18 60
c20.667 61.333 49.334 130 86.001 206c12.667 27.333 28.334 57.666 47.001 90.999z" />
    <glyph glyph-name="O" unicode="O" horiz-adv-x="884" 
d="M910 955c-26.667 14.667 -54.667 21.999 -84 21.999c-8 0 -15.667 -0.333008 -23 -1c-87.333 -12 -160 -54.667 -218 -128v-1l-2 -1c-46 -27.333 -82.667 -60 -110 -98c-36.667 -53.333 -68.334 -115.5 -95.001 -186.5s-44 -141.833 -52 -212.5
c-8.66699 -76.667 -4.33398 -146 12.999 -208c14 -60.667 43.333 -107 88 -139c32 -22 69.667 -29 113 -21c37.333 6.66699 77.666 24.667 120.999 54c80 52.667 150.667 122 212 208c44 62.667 78.333 131.334 103 206.001s36.334 152.667 35.001 234
c-1.33301 80.667 -16.666 152 -45.999 214c-11.333 24.667 -29.666 44 -54.999 58zM664 888.999c34.667 22.667 73.999 33.998 117.999 33.998h6c24.667 0 49 -10.333 73 -31c23.333 -20 39.333 -43.333 48 -70c33.333 -98 40.666 -208 21.999 -330
s-62.667 -224.333 -132 -307c-43.333 -51.333 -94.333 -90 -153 -116c-65.333 -30.667 -116.333 -31 -153 -1c-77.333 60.667 -110 167.667 -98 321c3.33301 66 15.666 132.333 36.999 199c22 66.667 50 124.334 84 173.001v0c3.33301 4 7 8.66699 11 14l45 55l-32 -63
c-3.33301 -6 -5.33301 -10.333 -6 -13v-1c-2 -2.66699 -2 -4.66699 0 -6v0v-1c2.66699 -2.66699 5.33398 -3.66699 8.00098 -3s4.33398 2 5.00098 4c4.66699 10.667 10 21.667 16 33c8.66699 14 17.667 27.667 27 41l1 1l2 1c40.667 20.667 81 29 121 25
c51.333 -5.33301 94.333 -38.333 129 -99l1 -1c1.33301 -2 2.33301 -4 3 -6c3.33301 -0.666992 6 0 8 2c2.66699 2.66699 3.66699 6 3 10c-4 30 -13.333 56.667 -28 80c-14.667 22.667 -33.667 37.334 -57 44.001c-31.333 8.66699 -66.666 7.66699 -105.999 -3l-45 -13z" />
    <glyph glyph-name="P" unicode="P" horiz-adv-x="852" 
d="M589 604l2.00098 -5.99707c26.667 -76 80.334 -121.667 161.001 -137c44.667 -8 90.667 -3.33301 138 14c48 18 90 44 126 78c24.667 24.667 44.334 53.667 59.001 87s20.667 66.333 18 99c-4 38 -17.333 74.333 -40 109s-51 59.667 -85 75
c-18 8.66699 -36 13.667 -54 15c-18.667 2 -39.334 0.333008 -62.001 -5c-23.333 -4.66699 -42.333 -9.16699 -57 -13.5s-35.334 -11.5 -62.001 -21.5c-7.33301 -3.33301 -12.333 -5.33301 -15 -6c-54 -20.667 -94.667 -32.334 -122 -35.001
c-44 -5.33301 -78 2.33398 -102 23.001h-1c-7.33301 7.33301 -11.666 22.333 -12.999 45v1l2 36c0 2 -1 4 -3 6c-1.33301 2 -3 3 -5 3s-4 -1.33301 -6 -4v0c-10 -14.667 -19 -31 -27 -49c-6.66699 -16 -10.334 -30 -11.001 -42v-1
c-2.66699 -16 -0.333984 -28.333 6.99902 -37c24 -26 57 -36.667 99 -32c26 2 65.333 13.333 118 34c59.333 24 100 38.333 122 43c44 10.667 79.333 9.66699 106 -3c34 -14.667 63.333 -40 88 -76c23.333 -36 38.333 -73.667 45 -113c4 -24.667 2.66699 -50.334 -4 -77.001
c-7.33301 -26.667 -19.333 -48.667 -36 -66c-24.667 -24 -56.334 -41 -95.001 -51c-39.333 -10 -77 -12 -113 -6c-83.333 14.667 -137.666 53 -162.999 115l-1 1c0 2 -1 3 -3 3c-2 1.33301 -3.66699 1.66602 -5 0.999023c-2 -1.33301 -3.66699 -3 -5 -5
c-0.666992 -0.666992 -1 -1.33398 -1 -2.00098zM669.001 795.003c-0.666992 4 -3.33398 6 -8.00098 6h-1c-33.333 -4 -61 -19.667 -83 -47c-31.333 -36 -54 -73.167 -68 -111.5s-22 -88.5 -24 -150.5c-2 -72 -17.667 -147.333 -47 -226
c-37.333 -102.667 -87 -168.667 -149 -198c-12.667 -5.33301 -29 -4.66602 -49 2.00098v0c-14 4.66699 -32 13.667 -54 27c-4 2 -7.33301 1.66699 -10 -1c-2 -2.66699 -2 -5.66699 0 -9v0c20.667 -32.667 42.667 -58 66 -76c32 -24.667 62 -32.334 90 -23.001
c45.333 15.333 84 49 116 101c24.667 42.667 44.667 97.667 60 165c21.333 95.333 30 193 26 293c-5.33301 126 38.334 206 131.001 240c4 1.33301 5.33301 4 4 8z" />
    <glyph glyph-name="Q" unicode="Q" horiz-adv-x="982" 
d="M766 1006h-4.99316c-12.667 0 -25.667 -1.33301 -39 -4c-36 -8 -75.333 -27.333 -118 -58c-76 -52 -144.333 -121.667 -205 -209c-56.667 -83.333 -94.334 -169 -113.001 -257c-22 -107.333 -6.33301 -188.333 47 -243c15.333 -18.667 37.333 -26.667 66 -24
c14 1.33301 27 5.33301 39 12c12.667 6.66699 24 17 34 31c2 2.66699 3 5 3 7c0 1.33301 -0.666992 2.66602 -2 3.99902c-2 1.33301 -4.33301 2 -7 2l-1 -1h-1c-14 -11.333 -28.667 -12.333 -44 -3v1c-14.667 9.33301 -26.667 23 -36 41c-32 73.333 -39.667 155.333 -23 246
c17.333 90.667 54 169 110 235c42.667 51.333 92 91 148 119c63.333 30.667 114.333 33 153 7c39.333 -27.333 68.666 -67 87.999 -119s29 -110.333 29 -175c0.666992 -62.667 -7.33301 -125.667 -24 -189c-17.333 -61.333 -41 -115.666 -71 -162.999v-1l-1 -2
c-10.667 -16 -22.334 -32 -35.001 -48l-4 -4l-4 2c-81.333 38.667 -158 47 -230 25c-27.333 -9.33301 -52.333 -20.333 -75 -33c-13.333 -8 -26 -16.333 -38 -25c-19.333 -14 -33 -29 -41 -45c-10.667 -18.667 -13 -37 -7 -55c6 -20 18.667 -35.333 38 -46
c18 -7.33301 39.667 -10.333 65 -9c46 1.33301 92 13.333 138 36c38.667 18 76 44.667 112 80l3 4l6 -4c14 -12 28 -28.667 42 -50c13.333 -20.667 23.666 -38 30.999 -52l31 -67c13.333 -30 24.666 -53.333 33.999 -70s22.666 -35.667 39.999 -57
c15.333 -20.667 32.666 -37 51.999 -49c34 -20 76 -29 126 -27c10.667 0 34.5 1.16699 71.5 3.5s67.833 3.5 92.5 3.5c2 0 3.83301 0.833008 5.5 2.5s2.5 3.5 2.5 5.5s-0.833008 3.66699 -2.5 5s-3.5 2 -5.5 2c-12 0 -23.333 0.666992 -34 2
c-10.667 0.666992 -20 1.33398 -28 2.00098c-8.66699 0.666992 -18.334 2.66699 -29.001 6c-9.33301 4 -16 6.33301 -20 7c-5.33301 1.33301 -12.666 4.66602 -21.999 9.99902c-8.66699 4.66699 -14.334 7.33398 -17.001 8.00098c-2.66699 1.33301 -9 5.66602 -19 12.999
l-17 12c-0.666992 1.33301 -6.33398 6 -17.001 14c-10 8 -16 13 -18 15c-15.333 12.667 -30.166 28.834 -44.499 48.501s-25.166 35.834 -32.499 48.501c-8 12 -19.667 32.333 -35 61c-13.333 26 -24.333 46.667 -33 62c-9.33301 14.667 -22 31 -38 49
c-15.333 18.667 -32 33 -50 43l-1 1c-2.66699 2 -6.66699 4.33301 -12 7l-7 4l5 7c12 15.333 22 29.333 30 42v-1l-1 -12c0 0.666992 0.333008 5.66699 1 15l1 1c34.667 50.667 64.5 111.167 89.5 181.5s41.167 140.166 48.5 209.499c9.33301 77.333 5 145.666 -13 204.999
c-16.667 58.667 -47.667 103 -93 133c-20.667 13.333 -43.667 20.333 -69 21zM464.007 61c-20.667 4.66699 -36.001 12.332 -46.001 22.999c-11.333 10.667 -17.333 23 -18 37c0.666992 14.667 6.33398 26.334 17.001 35.001c10 8.66699 25 15.667 45 21
c22.667 6 60.334 10 113.001 12h8c39.333 0 76.666 -11.333 111.999 -34l9 -5l-9 -7c-37.333 -34.667 -75 -59.667 -113 -75c-38.667 -14.667 -78 -17 -118 -7z" />
    <glyph glyph-name="R" unicode="R" horiz-adv-x="1020" 
d="M758 388c-18 36 -43.3301 62.3291 -75.9971 78.9961l-93 52l-10 6l-2 -11c-10 -74.667 -30.667 -149.667 -62 -225c-58 -147.333 -133.667 -233.333 -227 -258c-28 -7.33301 -57.333 0.333984 -88 23.001c-23.333 18.667 -45.333 43.334 -66 74.001
c-2.66699 4 -2.66699 7.33301 0 10s5.66699 3 9 1c22 -13.333 39.667 -22 53 -26c20.667 -6 37.667 -6.66699 51 -2c72.667 25.333 139.667 89.666 201 192.999c24.667 41.333 44.667 83 60 125s23.666 75.333 24.999 100v7l-5 2c-33.333 13.333 -53.333 22 -60 26
c-3.33301 2 -6 4.33301 -8 7c-2 6 -2 10.667 0 14c1.33301 2.66699 3.66602 4.66699 6.99902 6h1v0c2 1.33301 4.33301 2 7 2c6.66699 0 18 -3.33301 34 -10c9.33301 -4 14.666 -6.33301 15.999 -7l10 -5l1 11c4 44 13.333 82.667 28 116c13.333 31.333 33.333 62.333 60 93
v0c22 27.333 49.667 43 83 47h1c4 0 6.66699 -2.33301 8 -7c0.666992 -3.33301 -0.666016 -5.66602 -3.99902 -6.99902c-92 -36.667 -135.333 -116.667 -130 -240v-34h7c10 -4.66699 27.667 -10.667 53 -18h1h1c119.333 2 204.333 22.333 255 61c20 15.333 37.333 37 52 65
c14 26 20 51 18 75c-3.33301 36.667 -17.5 72.834 -42.5 108.501s-55.167 61.167 -90.5 76.5c-26.667 12.667 -61.667 13.667 -105 3c-22 -4.66699 -62.667 -19 -122 -43c-52 -20 -91 -31 -117 -33c-43.333 -4.66699 -76 5.66602 -98 30.999
c-8 9.33301 -10.667 21.666 -8 36.999v0c1.33301 12 5.33301 26 12 42c8 17.333 17 33.333 27 48v0c1.33301 2.66699 3.33301 4 6 4c1.33301 0 3 -1 5 -3c1.33301 -2 2 -4 2 -6l-1 -35c0 -10 1 -19.667 3 -29c0.666992 -2.66699 4 -8.33398 10 -17.001
c26 -20 60 -27.333 102 -22c44 4 84.333 15.333 121 34c2.66699 1.33301 7.66699 3.33301 15 6c26 10 46.333 17.167 61 21.5s33.667 8.83301 57 13.5c22.667 4.66699 43.334 6.33398 62.001 5.00098c18 -1.33301 35.667 -6.33301 53 -15
c35.333 -16 65.166 -41.167 89.499 -75.5s36.833 -69.833 37.5 -106.5c1.33301 -62.667 -35.334 -124 -110.001 -184c-54.667 -43.333 -121.667 -71.333 -201 -84l-72 -4l61 -36c26 -15.333 43.333 -28.666 52 -39.999c62.667 -75.333 109 -172.666 139 -291.999
c33.333 -128 81.333 -214 144 -258c54.667 -38 88.667 -60.667 102 -68c24.667 -13.333 69.667 -20 135 -20h1c2 -0.666992 3.66699 -1.66699 5 -3c0.666992 -1.33301 1 -2.66602 1 -3.99902c0 -2 -0.333008 -3.33301 -1 -4c-2 -2 -3.66699 -3.33301 -5 -4h-1
c-54.667 -5.33301 -112.334 -9.33301 -173.001 -12c-56 -2.66699 -102 8.33301 -138 33c-41.333 29.333 -73.333 66.333 -96 111c-15.333 30 -27.666 83 -36.999 159c-14 113.333 -46 220 -96 320z" />
    <glyph glyph-name="S" unicode="S" horiz-adv-x="819" 
d="M897 980c-22 26.667 -54.667 41.3359 -98 44.0029h-15c-34 0 -66 -7.33301 -96 -22c-50 -22 -94.333 -55.333 -133 -100c-43.333 -50 -64 -100 -62 -150c2 -42.667 18 -81.667 48 -117c20 -23.333 53.333 -52 100 -86l57 -43c10.667 -8 26.334 -21.333 47.001 -40
c20 -18.667 35.333 -36.667 46 -54s19 -36 25 -56c14 -56.667 15.667 -114.334 5 -173.001c-10.667 -58 -33 -114 -67 -168c-32.667 -52 -72 -95 -118 -129c-44.667 -34 -89.334 -52 -134.001 -54c-34 -2 -67.333 9 -100 33s-61 56.333 -85 97
c-23.333 40 -40.333 83.333 -51 130c-14.667 46.667 -19.667 89.667 -15 129c2.66699 34.667 19.334 66.667 50.001 96c32 29.333 63.333 43 94 41c17.333 -2 36.666 -10.333 57.999 -25c20.667 -14.667 38.334 -31.667 53.001 -51
c16.667 -20.667 26.667 -41.334 30 -62.001c3.33301 -21.333 -0.666992 -39.333 -12 -54v0l-1 -1c-0.666992 -1.33301 -1 -3 -1 -5c-0.666992 -2 -0.166992 -3.66699 1.5 -5s3.16699 -2 4.5 -2c2.66699 0.666992 4.33398 1.33398 5.00098 2.00098v1l2 2
c38 48 53 93.667 45 137c-8 44 -38.667 76.667 -92 98c-30.667 11.333 -64 10 -100 -4c-39.333 -14 -76.333 -37 -111 -69c-47.333 -44 -79.333 -92.667 -96 -146s-17.667 -105.666 -3 -156.999c14 -51.333 38.333 -98.333 73 -141c28 -33.333 59.333 -59.333 94 -78
c34 -18.667 68.333 -26 103 -22c56 4.66699 112.333 27.667 169 69c58 42 109.667 94 155 156s76.666 126.333 93.999 193c16.667 66.667 16.667 132.667 0 198c-2 9.33301 -5 18.833 -9 28.5s-8.66699 19.167 -14 28.5l-15 25c-3.33301 6.66699 -9.66602 15 -18.999 25
c-10 10.667 -16.667 18 -20 22c-2.66699 3.33301 -10 10.666 -22 21.999l-22.5 20c-2.33301 2 -10.166 9.33301 -23.499 22c-14 12.667 -21.667 19.667 -23 21c-42.667 37.333 -75 71 -97 101c-22.667 30.667 -34 65.667 -34 105
c-0.666992 23.333 6.66602 47.166 21.999 71.499s33.333 41.833 54 52.5c37.333 18 79 25 125 21c48 -5.33301 83.333 -23 106 -53c5.33301 -7.33301 9.66602 -16.333 12.999 -27l5 -14l-13 4c-16.667 5.33301 -33.334 5 -50.001 -1
c-29.333 -11.333 -55.666 -33.666 -78.999 -66.999c-10.667 -16.667 -17.667 -32.334 -21 -47.001c-4 -18 -2 -33.333 6 -46c7.33301 -12 19.333 -19 36 -21c13.333 -2 29 0.333008 47 7c14 4.66699 28 11.667 42 21v1h1c4 2 7.66699 4.33301 11 7
c4 3.33301 8.33301 7.66602 13 12.999l1 1l13 15c5.33301 8 10.333 16 15 24l3 7l7 -4c25.333 -18.667 48.333 -28 69 -28c27.333 0 56.666 9.66699 87.999 29c31.333 20 67.333 50 108 90l2 1c1.33301 1.33301 2 3 2 5s-0.833008 3.83301 -2.5 5.5s-3.16699 2.5 -4.5 2.5
s-3 -0.666992 -5 -2c-50 -42 -88.333 -66 -115 -72c-22 -5.33301 -54 -0.333008 -96 15c-10 2.66699 -21.667 7.66699 -35 15l-3 2l1 27c-0.666992 47.333 -12.667 85 -36 113zM834 831.002c14.667 -1.33301 34 -10.333 58 -27l5 -3l-1 -5c-4 -18 -10 -33.333 -18 -46l-1 -1
v-1l-23 -18l-1 -1h-1c-14.667 -4.66699 -29.667 -4.66699 -45 0c-22.667 5.33301 -36.667 16.333 -42 33l1 1c-2 11.333 2.66699 24 14 38s24.333 22.667 39 26c3.33301 1.33301 6.33301 2 9 2c2 1.33301 4 2 6 2z" />
    <glyph glyph-name="T" unicode="T" horiz-adv-x="756" 
d="M390 150c-52 -94.667 -64.6621 -185.998 -37.9951 -273.998c27.333 -43.333 64.666 -72.333 111.999 -87c49.333 -15.333 105.666 -23 168.999 -23c4.66699 0 7.33398 2 8.00098 6c0 4 -2 7 -6 9c-27.333 8.66699 -57.666 26 -90.999 52
c-39.333 31.333 -63.333 62 -72 92c-9.33301 29.333 -14.333 60.333 -15 93c-1.33301 32.667 1.66699 66 9 100s15.666 66.333 24.999 97c10 31.333 22.667 64.333 38 99c37.333 86 88.666 173.333 153.999 262c50 67.333 79.667 107.666 89 120.999
c32 45.333 53.667 90.666 65 135.999c2.66699 14 4.66699 27.667 6 41v9l9 -3c53.333 -16 100.333 -21.667 141 -17c62 7.33301 124.333 27.666 187 60.999c43.333 23.333 92.333 62.333 147 117c2 2 2.33301 4 1 6l-1 1c-1.33301 2.66699 -3.33301 4 -6 4
c-2 0 -3.66699 -0.666992 -5 -2c-20.667 -21.333 -56.334 -45.666 -107.001 -72.999c-61.333 -33.333 -114 -52 -158 -56c-44 -4.66699 -105.667 9.33301 -185 42c-86 36 -151 54.333 -195 55c-84 0.666992 -151.333 -14.666 -202 -45.999
c-84 -52 -130.667 -110.667 -140 -176c-2.66699 -18.667 -0.666992 -37 6 -55c8 -22.667 20.333 -36.667 37 -42c34.667 -10 67.667 -3.33301 99 20c22.667 16 46.334 42 71.001 78l3 3h1c4 5.33301 7.33301 10.666 10 15.999v1l2 2
c0.666992 0.666992 0.666992 2.33398 0 5.00098c-0.666992 2 -1.33398 3.33301 -2.00098 4c-2.66699 0.666992 -5 1 -7 1l-1 -1h-1c-0.666992 0 -1.33398 -0.333008 -2.00098 -1v-1c-2.66699 -3.33301 -7.33398 -10 -14.001 -20h-1c-14.667 -18.667 -31.667 -33 -51 -43
c-26.667 -14 -50.334 -15.667 -71.001 -5c-13.333 7.33301 -20.666 22.666 -21.999 45.999c-0.666992 18.667 3 40 11 64c8.66699 28.667 30 51.667 64 69c30 16.667 72 24 126 22c40.667 -1.33301 99.334 -17 176.001 -47h1l2 -2c6.66699 -6.66699 10.667 -15.667 12 -27
c14 -74.667 -19.667 -167.667 -101 -279c-108.667 -150.667 -204.334 -302 -287.001 -454z" />
    <glyph glyph-name="U" unicode="U" horiz-adv-x="995" 
d="M1164 987c-2.66699 -2 -5.33398 -4.33301 -8.00098 -7c-8.66699 -9.33301 -16.334 -21.333 -23.001 -36c-2.66699 -6.66699 -6.66699 -16 -12 -28l-36 -91l-112 -282c-60 -158.667 -105 -287 -135 -385v-2l-2 -1c-55.333 -54.667 -118.666 -88.334 -189.999 -101.001
c-33.333 -6.66699 -68.333 4.33301 -105 33c-34.667 28 -57 60 -67 96c-15.333 55.333 -5 116.666 31 183.999c21.333 39.333 65.333 101 132 185c64 80 106.333 141.333 127 184c34 70 38.667 133.667 14 191c-10.667 24.667 -32.334 43 -65.001 55
c-18.667 8 -38 12 -58 12h-4c-10 0 -19.333 -1 -28 -3c-64 -14 -120 -49.667 -168 -107s-80.333 -119.666 -97 -186.999c-6.66699 -30.667 -7.66699 -60.334 -3 -89.001c6 -35.333 21 -57.666 45 -66.999c33.333 -12.667 66.666 -7 99.999 17
c22.667 16 47.334 42.667 74.001 80c4 5.33301 8 11.333 12 18v2l1 2c1.33301 0.666992 1.66602 2 0.999023 4s-1.66699 3.33301 -3 4c-2.66699 1.33301 -5 2 -7 2c-1.33301 -0.666992 -2.33301 -1.66699 -3 -3h-1l-11 -17v-2l-2 -2c-16 -18 -33.667 -32.333 -53 -43
c-26.667 -14 -50.334 -15.333 -71.001 -4s-31 35 -31 71c0 29.333 6.33301 61.666 19 96.999c16 44.667 40.667 85 74 121c34 36.667 71.333 58.667 112 66c16.667 3.33301 34.667 1 54 -7c19.333 -8.66699 32 -19.667 38 -33c25.333 -57.333 20 -123.666 -16 -198.999
c-20.667 -46 -66 -116 -136 -210s-115 -164.333 -135 -211c-34 -78.667 -35.667 -148 -5 -208c20 -38 57 -64.333 111 -79c52.667 -16 100.667 -15.333 144 2c46.667 18 91.667 47 135 87l20 19l-7 -26c-10.667 -36.667 -17.334 -66 -20.001 -88c-4 -26 -2.66699 -51 4 -75
c4 -14.667 9.66699 -26 17 -34c9.33301 -10.667 20 -17 32 -19c42.667 -5.33301 85.334 14.667 128.001 60c34 34 67.333 82.667 100 146c27.333 56.667 56 130 86 220c0.666992 1.33301 0.333984 3 -0.999023 5c0 2 -1 3 -3 3v0l-1 1c-2 0.666992 -4.33301 0.666992 -7 0
c-1.33301 -1.33301 -2.66602 -3 -3.99902 -5c-22 -68.667 -48 -132 -78 -190c-29.333 -54 -58.666 -95 -87.999 -123c-34.667 -34 -67.667 -47.667 -99 -41c-6.66699 1.33301 -12.667 5 -18 11l-1 2c-3.33301 6.66699 -6 15.667 -8 27l-1 1c-2 19.333 -0.666992 42 4 68
c4 30.667 15.333 76.334 34 137.001v1l1 1c48 66.667 93.667 149 137 247c50.667 116 97.334 258.333 140.001 427c9.33301 34 15 60.667 17 80v22c-1.33301 5.33301 -3.33301 9.33301 -6 12c-4 3.33301 -9 4 -15 2zM1130 898l14 -5c-4 -14 -8.66699 -28 -14 -42
c-6.66699 -26 -21.334 -76.667 -44.001 -152c-22.667 -77.333 -43 -142.333 -61 -195c-18 -53.333 -37.667 -102.666 -59 -147.999l-27 -51l-14 6c24.667 78.667 53.334 164.667 86.001 258l95 265c6 17.333 14 38.666 24 63.999z" />
    <glyph glyph-name="V" unicode="V" horiz-adv-x="757" 
d="M1236 1115l-5.00586 -0.000976562c-42.667 -0.666992 -80.334 -11.667 -113.001 -33c-28 -18.667 -53.5 -39.834 -76.5 -63.501s-43.833 -51.167 -62.5 -82.5s-34.667 -60 -48 -86c-12.667 -26 -26 -59.333 -40 -100l-32 -97l-30 -107
c-12.667 -48 -22.667 -83.833 -30 -107.5l-31 -98.5c-13.333 -40.667 -26 -73.667 -38 -99l-45 -86c-18.667 -32 -38.834 -60 -60.501 -84s-45.5 -45.333 -71.5 -64c-14 -10.667 -36.333 -17.667 -67 -21h-1c-13.333 -1.33301 -29 -2.66602 -47 -3.99902l-26 -1l21 14
c40.667 28.667 81.334 73.334 122.001 134.001c40 61.333 75.333 131 106 209c23.333 59.333 41.333 118.666 54 177.999c13.333 58.667 21 118.334 23 179.001c2 59.333 -4.33301 113.333 -19 162c-8 24 -23.667 45 -47 63c-26 20 -51.667 29 -77 27
c-62.667 -5.33301 -120.334 -40 -173.001 -104c-43.333 -54.667 -74 -117 -92 -187c-6.66699 -31.333 -7.66699 -61.333 -3 -90c5.33301 -36 20.333 -58.667 45 -68c33.333 -13.333 67 -7.66602 101 17.001c22.667 16.667 47 43.667 73 81c4 6 8 12.333 12 19v1l1 2
c0.666992 1.33301 0.833984 3 0.500977 5s-1.5 3.33301 -3.5 4c-2 1.33301 -4 1.66602 -6 0.999023c-1.33301 0 -2.66602 -0.666992 -3.99902 -2v-1l-11 -16v-2l-2 -2c-15.333 -18.667 -32.666 -33.334 -51.999 -44.001c-27.333 -14.667 -51.333 -16.167 -72 -4.5
s-31 35.834 -31 72.501c0 29.333 6.33301 61.333 19 96c18.667 48.667 42.334 90.334 71.001 125.001c36 40.667 73.667 60.667 113 60c13.333 0 26 -6.66699 38 -20c10.667 -13.333 18.334 -28 23.001 -44c34.667 -142.667 27 -300.334 -23 -473.001
c-22.667 -78.667 -53 -151.334 -91 -218.001s-80.333 -121 -127 -163v0h-1l-14 -11h-2h-3c-22 0 -38.333 -0.333008 -49 -1c-10 -1.33301 -18.667 -2.33301 -26 -3c-11.333 -3.33301 -19.333 -8.33301 -24 -15c-6 -8 -7 -17.333 -3 -28c2 -3.33301 6 -5.33301 12 -6h1
c4.66699 -2 10.334 -2 17.001 0v0c10.667 2 24 7 40 15c6.66699 4 14.334 8 23.001 12l16 11h2c23.333 0 42 0.333008 56 1v0c62.667 1.33301 106.667 10.666 132 27.999c26 18 50.333 38.667 73 62c22.667 22.667 43 48.667 61 78c18 30 33.667 57.667 47 83
c12.667 25.333 26.334 57.666 41.001 96.999c15.333 38.667 26.666 69.334 33.999 92.001l33 103c4 14 7.66699 25 11 33l4 14.5c2.66699 9.66699 7.33398 25.167 14.001 46.5c6.66699 20.667 14 41.334 22 62.001c12 33.333 27.667 71.5 47 114.5s39 78.833 59 107.5
s44.667 56.667 74 84c30 27.333 62 49.333 96 66c24 11.333 49.333 15 76 11c24 -4 54.333 -15 91 -33c2 -2 4.33301 -2.66699 7 -2l3 6v0c2 2.66699 2 6.33398 0 11.001c-22.667 40 -46.667 64.333 -72 73c-18.667 7.33301 -39.667 11 -63 11z" />
    <glyph glyph-name="W" unicode="W" horiz-adv-x="1164" 
d="M1441 1054c28 10 68.335 19.667 121.002 29c4.66699 0.666992 7 3 7 7c0 1.33301 -0.333008 3 -1 5c-1.33301 1.33301 -3 2.33301 -5 3v0c-36.667 12.667 -71 19.667 -103 21c-66.667 0 -125.334 -25.333 -176.001 -76c-36.667 -36 -63.334 -78.333 -80.001 -127
c-16.667 -50 -24.334 -101.667 -23.001 -155s7.66602 -112 18.999 -176c17.333 -91.333 16.333 -180.666 -3 -267.999c-20 -88 -57 -164.333 -111 -229c-18 -21.333 -38.667 -37.666 -62 -48.999c-26 -14 -47.667 -16.667 -65 -8c-66 34 -107.333 101.333 -124 202l-1 3l2 3
c38 54.667 69.333 113.667 94 177c14.667 35.333 26 67.666 34 96.999c10 34.667 15 63.667 15 87c0 26 -6.33301 43.333 -19 52c-7.33301 4.66699 -15.333 6.66699 -24 6c-6.66699 -2 -13.334 -5.33301 -20.001 -10c-10.667 -10 -21.334 -25 -32.001 -45
c-14 -27.333 -26.333 -60 -37 -98v0c-13.333 -35.333 -22.666 -72.666 -27.999 -111.999v0c-16 -70.667 -25 -131.334 -27 -182.001v-2l-1 -2c-4 -6.66699 -8 -12 -12 -16c-82 -94 -176 -152 -282 -174c-12.667 -3.33301 -30.334 1 -53.001 13
c-7.33301 2.66699 -16.666 7 -27.999 13l-13 7l13 6c90 44 166 125.333 228 244c40 77.333 68 160 84 248s18 168 6 240c-6.66699 40 -28.667 76 -66 108c-38 33.333 -77 48.666 -117 45.999c-62.667 -4 -120.334 -38.667 -173.001 -104
c-43.333 -55.333 -73.666 -119 -90.999 -191c-7.33301 -30.667 -8.33301 -60.334 -3 -89.001c5.33301 -35.333 20 -57.333 44 -66c34 -13.333 67.667 -8 101 16c22.667 16.667 46.667 43.334 72 80.001c4.66699 6 9 12 13 18v2l1 2
c0.666992 1.33301 0.833984 2.83301 0.500977 4.5s-1.5 3.16699 -3.5 4.5c-2 0.666992 -4 1 -6 1c-1.33301 0 -2.66602 -1 -3.99902 -3v0l-11 -16v-2l-2 -2c-16 -18.667 -33.333 -33 -52 -43c-26.667 -14.667 -50.334 -16.334 -71.001 -5.00098s-31 35.333 -31 72
c0 29.333 6 61.666 18 96.999c18.667 49.333 42.334 91 71.001 125c36 41.333 73.667 62 113 62c27.333 0 53.333 -13.667 78 -41c24.667 -26.667 39 -55 43 -85c10.667 -69.333 10 -145.166 -2 -227.499s-33.667 -159.833 -65 -232.5c-56 -126 -128.333 -209 -217 -249
l-3 -2l-4 2c-23.333 12.667 -42 20.334 -56 23.001c-24 4 -41.333 -2.33301 -52 -19l-1 -1l-1 -1c-2.66699 -4.66699 -3.66699 -9.33398 -3 -14.001s2.66699 -9.66699 6 -15v0c8 -12 17 -18 27 -18c14.667 0 30 1.33301 46 4l5 1l2 -3c23.333 -26 39.333 -42.667 48 -50
c20.667 -18 39.667 -27 57 -27c74 1.33301 150.333 36.333 229 105c35.333 31.333 70.333 69 105 113l12 16l1 -20c2 -39.333 8.33301 -73.333 19 -102c16.667 -42.667 44 -74.334 82 -95.001c34.667 -18 75.334 -11.667 122.001 19c33.333 21.333 66 52.333 98 93
c54 68.667 92 147.334 114 236.001c22.667 88.667 27.667 179.334 15 272.001c-21.333 166 19 304.333 121 415c22 24 48 41.333 78 52zM932.002 601h0.99707h7l2 -2c2 -2 3.66699 -5 5 -9c3.33301 -10 3.33301 -25 0 -45c-7.33301 -42 -18.666 -84 -33.999 -126v-1
c-19.333 -45.333 -42.333 -90.666 -69 -135.999l-12 -21l-2 25c-2 34.667 -0.333008 69 5 103v1c4.66699 24.667 11.667 55 21 91c0.666992 4 2.33398 10.333 5.00098 19v1c4 9.33301 7 17 9 23v1c10.667 24.667 22.334 43.667 35.001 57
c10.667 11.333 19.667 17.666 27 18.999z" />
    <glyph glyph-name="X" unicode="X" horiz-adv-x="923" 
d="M988 108c30 30 60.3311 80.9971 90.998 152.997c1.33301 3.33301 2.33301 6 3 8c2 2.66699 1.66699 5.33398 -1 8.00098l-3 3l-7 -2c-1.33301 -0.666992 -2 -1.33398 -2 -2.00098v-1l-4 -8l-4 -8l-5 -8l-4 -8l-4 -8l-5 -9l23 44v-3
c-17.333 -38 -36.666 -68.667 -57.999 -92c-26.667 -28 -55.667 -42.667 -87 -44c-62 -0.666992 -124 30.666 -186 93.999c-30 32 -63 76.667 -99 134l-3 4l2 4c24.667 46 45 82 61 108c74.667 137.333 136.334 233 185.001 287c56 61.333 128 112.333 216 153
c38.667 19.333 80.667 29 126 29c44.667 0 93 -12.333 145 -37l1 -1v0h1c1.33301 -0.666992 2.66602 -0.666992 3.99902 0c2 1.33301 3.66699 3 5 5c0.666992 1.33301 0.666992 2.33301 0 3c-0.666992 2.66699 -2 4.33398 -4 5.00098v1l-1 1c-18 10 -38.667 20.333 -62 31
c-50 22.667 -92 34.334 -126 35.001h-6c-56 0 -109.333 -17.333 -160 -52c-38.667 -26.667 -75.334 -59.667 -110.001 -99c-35.333 -39.333 -63.333 -74 -84 -104c-21.333 -30.667 -49.666 -74.667 -84.999 -132s-60 -98.666 -74 -123.999c-10 -16 -25.333 -43.333 -46 -82
l-5 -9l-7 7c-1.33301 2 -3 4.33301 -5 7c-1.33301 2 -2.66602 4.33301 -3.99902 7c-122 198 -165.667 363.333 -131 496l1 1c3.33301 10 9.66602 19.667 18.999 29c7.33301 8 15 13.667 23 17v4h8c2 0 3 2 3 6c0 3.33301 -1.33301 5.33301 -4 6h-1c-9.33301 6 -19 9 -29 9
c-2.66699 0 -5.66699 -0.666992 -9 -2v0c-10 -1.33301 -20 -6.33301 -30 -15c-36 -28.667 -54.667 -85.334 -56 -170.001c-2 -156 41.667 -302.667 131 -440c19.333 -30.667 30.333 -47.667 33 -51l4 -4l-3 -5l-40 -65c-36.667 -54.667 -73 -97 -109 -127
c-43.333 -34.667 -87.666 -52 -132.999 -52c-25.333 0 -47 9.66699 -65 29c-20 20.667 -26.333 43.667 -19 69v8h1c-1.33301 2 -3 3.33301 -5 4s-3.66699 0.666992 -5 0s-2.33301 -2 -3 -4v-1l-1 -1c-15.333 -30 -21.333 -59 -18 -87
c1.33301 -29.333 13.333 -51.666 36 -66.999c20 -16 46.667 -19.333 80 -10c24 6.66699 50.667 19.334 80 38.001c46 28 85 60.667 117 98c32.667 37.333 65 82.666 97 135.999l6 10l7 -10c28 -40 54 -72.667 78 -98c64 -67.333 129.333 -100.333 196 -99
c52 0.666992 95 17.334 129 50.001z" />
    <glyph glyph-name="Y" unicode="Y" horiz-adv-x="976" 
d="M687 990c-20 11.333 -39.6689 17.3359 -59.002 18.0029h-6c-4.66699 0 -9.66699 -0.333008 -15 -1c-42.667 -7.33301 -81 -33 -115 -77c-28.667 -38.667 -48.667 -81.667 -60 -129c-6.66699 -31.333 -7.66699 -61 -3 -89c6 -36.667 21.667 -59 47 -67h1
c23.333 -8.66699 47.666 -3 72.999 17c20.667 16 38 39.667 52 71v1l1 1c0 2 -0.166992 3.66699 -0.5 5s-1.16602 2.33301 -2.49902 3c-2 0.666992 -4 1 -6 1c-2.66699 -0.666992 -4.33398 -1.66699 -5.00098 -3c-12 -18.667 -24.667 -31.334 -38 -38.001
c-13.333 -7.33301 -26 -7.33301 -38 0c-20.667 11.333 -31 35 -31 71c0 30 6 62.667 18 98c10.667 26 23 48.333 37 67v0c18 22 37 32.333 57 31c16.667 -1.33301 32.334 -12.333 47.001 -33c12 -17.333 21.667 -39.333 29 -66c2.66699 -10 5 -20.667 7 -32
c1.33301 -11.333 1.33301 -24 0 -38c-2 -13.333 -3.33301 -24.666 -4 -33.999c-1.33301 -10 -4.66602 -23 -9.99902 -39c-4.66699 -16 -8 -28 -10 -36c-2 -8.66699 -7 -22.334 -15 -41.001c-8 -18 -13.167 -30 -15.5 -36s-8.16602 -19.333 -17.499 -40s-15 -33.667 -17 -39
c-30 -70 -47.667 -125 -53 -165c-6.66699 -58.667 8 -106.667 44 -144c34.667 -35.333 86.667 -49.333 156 -42c52.667 6.66699 101.667 23.667 147 51l23 14l-13 -24c-6 -12 -12 -23 -18 -33c-88.667 -154 -195.334 -258.667 -320.001 -314
c-58.667 -25.333 -124 -34.333 -196 -27c-35.333 3.33301 -64.333 11 -87 23c-24 14.667 -38.333 34 -43 58v1v0c0 6.66699 4.33301 13.667 13 21s21.667 14.333 39 21l62 18v0c2 0.666992 3.5 1.66699 4.5 3s1.33301 3 1 5s-1.16602 3.66699 -2.49902 5s-3 2 -5 2
c-36.667 -2.66699 -73 -8.33398 -109 -17.001c-31.333 -8 -55.666 -17.333 -72.999 -28c-10.667 -7.33301 -18.667 -15 -24 -23c-6 -9.33301 -8.33301 -19.333 -7 -30c4.66699 -37.333 26 -66.333 64 -87c32 -17.333 74 -27 126 -29c47.333 -2 96.166 2 146.499 12
s93.5 23.333 129.5 40c120 57.333 223 166.666 309 327.999c19.333 38 38 79.333 56 124l1 1v1c32.667 34 60.667 74 84 120h1c9.33301 14.667 18 30 26 46c28 54 46 106 54 156c7.33301 48.667 2.66602 93.334 -14.001 134.001v1v1l-4 7c-6 10 -12 17 -18 21
c0.666992 2 -5.33301 3.33301 -18 4h-7v0c-7.33301 -2.66699 -13.333 -8.33398 -18 -17.001l-1 -1c-4.66699 -7.33301 -8.66699 -16.666 -12 -27.999c-12 -36 -19.667 -81.667 -23 -137c-6.66699 -94 -32.334 -193 -77.001 -297v-2l-2 -1c-34 -30 -68.333 -51.667 -103 -65
c-32 -12.667 -69.333 -11.167 -112 4.5s-72.667 38.5 -90 68.5c-23.333 39.333 -27.666 86.666 -12.999 141.999c9.33301 34 32 86.333 68 157c37.333 73.333 61 127 71 161c16.667 59.333 14.667 111 -6 155c-11.333 24 -30.666 43.667 -57.999 59zM1083 760.003l13.001 15
v-21c12 -81.333 -1 -170.333 -39 -267c-7.33301 -18.667 -16 -38 -26 -58v-1l-24 -37l-27 -40l13 46c19.333 66.667 31.666 127.667 36.999 183c5.33301 48 16 94 32 138c7.33301 20 14.333 34 21 42z" />
    <glyph glyph-name="Z" unicode="Z" horiz-adv-x="917" 
d="M731 892c-28 14.667 -71.332 30.6621 -129.999 47.9951c-40 12.667 -73 15.334 -99 8.00098c-12.667 -3.33301 -25.334 -11.666 -38.001 -24.999c-12 -13.333 -20 -28 -24 -44c-8.66699 -23.333 -12.334 -44.666 -11.001 -63.999c1.33301 -24 8.33301 -39 21 -45
c18 -8 36.333 -5.66699 55 7c12.667 8 25.667 20.667 39 38v1c4 6.66699 8.33301 13.334 13 20.001l2 2v2c0.666992 0.666992 1.33398 1 2.00098 1c2.66699 0.666992 5 0.333984 7 -0.999023c1.33301 -1.33301 2.33301 -2.66602 3 -3.99902s0.666992 -2.33301 0 -3l-2 -4
c-4.66699 -9.33301 -9 -16.333 -13 -21l-1 -1c-24 -36 -43.333 -60.667 -58 -74c-24.667 -21.333 -52 -28.666 -82 -21.999c-17.333 4.66699 -30 18.667 -38 42c-7.33301 18 -9.33301 36.333 -6 55c8 41.333 24 77.333 48 108c25.333 32 57 54.667 95 68
c19.333 6.66699 40 10.667 62 12h4c44 0 104 -17 180 -51l19 -9l77 -34c18 -7.33301 41.333 -14.333 70 -21s54.667 -8.66699 78 -6c18 0.666992 37.667 4 59 10l2 1l2 1c40 39.333 76.667 64.666 110 75.999c2.66699 0 5.33398 0.666992 8.00098 2h5c4 -0.666992 7 -3 9 -7
v0c4 -5.33301 3.33301 -13 -2 -23v0c-7.33301 -16.667 -23.666 -36 -48.999 -58l-1 -1l-4 -2c-28.667 -17.333 -62.667 -33.333 -102 -48l-2 -1l-1 -1l-135 -171c-79.333 -96.667 -151 -178.667 -215 -246s-127.333 -121.333 -190 -162l-15 -10
c43.333 -16.667 96 -44.667 158 -84c61.333 -38.667 113.666 -74.667 156.999 -108l101 -86c71.333 -58.667 144 -104.667 218 -138c16.667 -8 47 -13.667 91 -17c67.333 -5.33301 93.333 -12.666 78 -21.999l-8 -2c-27.333 -1.33301 -54.666 -2.33301 -81.999 -3
c-36 -1.33301 -63 -2 -81 -2s-40 1.66699 -66 5c-26 4 -50.333 10.667 -73 20h-1c-41.333 15.333 -79.333 36.666 -114 63.999c-31.333 24.667 -62 54.667 -92 90c-8 9.33301 -41.333 41.333 -100 96c-40 37.333 -81 69.333 -123 96c-49.333 31.333 -82.666 48 -99.999 50
c-8 2 -17.667 3 -29 3h-2l-2 -1c-30.667 -17.333 -56 -30.333 -76 -39c-28 -13.333 -52 -20 -72 -20c-25.333 0.666992 -42.666 11.334 -51.999 32.001c-2.66699 6 -2.33398 11.667 0.999023 17h1l3 4c2 2.66699 4 5 6 7l3 3c10.667 6.66699 26 12.667 46 18
c41.333 11.333 78.666 18.333 111.999 21c20 1.33301 41 1.33301 63 0l3 -1l2 2c12 7.33301 19.333 11.666 22 12.999c35.333 17.333 82.333 54.333 141 111c49.333 47.333 90.333 90.666 123 129.999c61.333 72.667 102.666 123.667 123.999 153
c46.667 64 84 113.333 112 148l13 16l-20 -4c-3.33301 -0.666992 -8 -1 -14 -1h-1c-34.667 3.33301 -68.334 12 -101.001 26c-2 2 -42.333 22 -121 60zM333.001 191.995l4 -6l6 -6c-2 -1.33301 -4.66699 -2.66602 -8 -3.99902l-7 -2c-23.333 -9.33301 -41.333 -14 -54 -14
h-24l13 13c2.66699 2.66699 6.66699 4.66699 12 6c12.667 5.33301 29 9.66602 49 12.999h8h1z" />
    <glyph glyph-name="bracketleft" unicode="[" horiz-adv-x="320" 
d="M438 610l-11.001 0.00292969c-26.667 -0.666992 -47.667 -2.33398 -63 -5.00098c-8 -0.666992 -15 -2 -21 -4c-12.667 -4 -21.334 -9.66699 -26.001 -17c-12.667 -19.333 -33 -68 -61 -146c-24 -64.667 -51.667 -145.334 -83 -242.001l-76 -236
c-22 -72 -34.333 -114.667 -37 -128v-5c1.33301 -2.66699 3 -4.66699 5 -6c1.33301 -0.666992 2.66602 -1 3.99902 -1c6.66699 -0.666992 15 -1 25 -1c8 -0.666992 14.667 -0.666992 20 0c16.667 0 42.334 1.33301 77.001 4s59 4 73 4c4 0 7.66699 1.33301 11 4
c2 2 4 4.66699 6 8c2.66699 4.66699 4.66699 10.334 6 17.001s2 12.667 2 18c0 3.33301 -0.333008 6 -1 8c-1.33301 2 -2.66602 3.66699 -3.99902 5c-2 2 -4.66699 3 -8 3c-10.667 -0.666992 -30.667 -1 -60 -1s-50.666 -0.333008 -63.999 -1l26 80
c41.333 129.333 66 205.666 74 228.999c31.333 96 58.666 173.333 81.999 232c20 49.333 38 88 54 116c40 3.33301 77.333 5 112 5c6 0 11.667 3.33301 17 10c2.66699 4.66699 5.33398 10.334 8.00098 17.001c2 6 3 11.333 3 16c0.666992 3.33301 0.5 6.16602 -0.5 8.49902
s-2.16699 4.16602 -3.5 5.49902c-2 2 -4.66699 3 -8 3h-40h-38z" />
    <glyph glyph-name="backslash" unicode="\" horiz-adv-x="420" 
d="M216 492l-3 -0.00195312l-6 -1c-2.66699 0 -4.83398 -1 -6.50098 -3s-2.5 -4.33301 -2.5 -7v-4c13.333 -30.667 38.333 -111 75 -241c33.333 -117.333 59.666 -191 78.999 -221c4 -7.33301 11.667 -13.666 23 -18.999c9.33301 -4 19 -7 29 -9
c11.333 -1.33301 20 -0.833008 26 1.5s9.33301 6.16602 10 11.499c0.666992 4.66699 -1 9.33398 -5 14.001c-30.667 36 -62 112.667 -94 230c-2 6.66699 -5.5 19.334 -10.5 38.001s-8.66699 32 -11 40l-10 35c-4.33301 15.333 -8.16602 27.333 -11.499 36l-11.5 30.5
c-4.33301 11.667 -8.66602 21.667 -12.999 30s-9.16602 16.166 -14.499 23.499c-2.66699 4.66699 -7.66699 8.33398 -15 11.001c-4.66699 1.33301 -10.334 2.33301 -17.001 3c-3.33301 0.666992 -7 1 -11 1z" />
    <glyph glyph-name="bracketright" unicode="]" horiz-adv-x="320" 
d="M438 611c-5.33301 -0.666992 -16.0029 -1.33496 -32.0029 -2.00195c-11.333 -0.666992 -32 -2.66699 -62 -6s-49.667 -5 -59 -5c-4 0 -7.66699 -1.33301 -11 -4c-2 -2 -4 -4.66699 -6 -8c-2.66699 -4.66699 -4.66699 -10.334 -6 -17.001s-2 -12.667 -2 -18
c0 -3.33301 0.666992 -6 2 -8c0.666992 -2 1.66699 -3.66699 3 -5c2.66699 -2 5.33398 -3 8.00098 -3c12.667 0.666992 33.667 2.33398 63 5.00098s50.333 4.33398 63 5.00098c-8.66699 -27.333 -22 -65 -40 -113l-89 -242l-86 -232c-11.333 -29.333 -20 -53.333 -26 -72
h-38c-38.667 0 -70.667 -2.66699 -96 -8c-6 -1.33301 -11 -5.66602 -15 -12.999c-2.66699 -5.33301 -4.66699 -11.333 -6 -18c-1.33301 -6 -2 -11.333 -2 -16c0 -3.33301 0.5 -6.16602 1.5 -8.49902s2.5 -4.16602 4.5 -5.49902c2.66699 -2 5.33398 -2.66699 8.00098 -2
c22.667 4 60.667 5.33301 114 4c4.66699 0 12.5 -0.5 23.5 -1.5s20.667 -1.5 29 -1.5s15.833 1.33301 22.5 4c2.66699 1.33301 4.33398 3.66602 5.00098 6.99902h1c28 63.333 77 187 147 371l86 232c26.667 74.667 42.334 124 47.001 148
c0.666992 5.33301 0 10.666 -2 15.999c-2.66699 4.66699 -5.33398 7.66699 -8.00098 9c-8.66699 5.33301 -22.667 8 -42 8z" />
    <glyph glyph-name="asciicircum" unicode="^" horiz-adv-x="380" 
d="M388 561l-1.99609 -0.00195312l-4 -2c-2.66699 -0.666992 -5.33398 -2 -8.00098 -4c-6 -4 -13.333 -9.66699 -22 -17c-16 -13.333 -36.667 -31.666 -62 -54.999c-52.667 -49.333 -88.667 -84.666 -108 -105.999c-1.33301 -2 -2 -4.33301 -2 -7s1 -5 3 -7
c7.33301 -7.33301 17.666 -9 30.999 -5c11.333 4 19.333 9.33301 24 16c19.333 28.667 42.666 57 69.999 85c17.333 17.333 32 29.333 44 36c6.66699 4 12 6 16 6c3.33301 0 5.66602 -0.666992 6.99902 -2c13.333 -14 26.666 -37 39.999 -69
c8.66699 -22 13.334 -33.333 14.001 -34c5.33301 -11.333 10 -19.333 14 -24c8.66699 -6.66699 19.667 -9.33398 33 -8.00098c16 2 27 9.33301 33 22c2 4 1.33301 7.66699 -2 11c-6.66699 6.66699 -22.667 32.667 -48 78c-24.667 44 -46 72 -64 84
c-1.33301 0.666992 -3 1.33398 -5 2.00098h-2z" />
    <glyph glyph-name="underscore" unicode="_" horiz-adv-x="480" 
d="M85 -37h-16.002c-27.333 0 -47.333 -1 -60 -3c-20.667 -2.66699 -35 -13.334 -43 -32.001c-2 -4 -3.5 -8.16699 -4.5 -12.5s-1.5 -7.83301 -1.5 -10.5v-3c0 -3.33301 1.33301 -6 4 -8s5.66699 -2.66699 9 -2c12.667 4 37.334 6 74.001 6c26 0 64.333 -1.33301 115 -4
c116 -5.33301 185.667 -6.66602 209 -3.99902c16.667 2 29.667 9.66699 39 23c6.66699 10.667 10 23 10 37c0 3.33301 -1.16699 6 -3.5 8s-5.16602 2.66699 -8.49902 2c-10.667 -2 -34.667 -3 -72 -3c-22 0 -61.333 1 -118 3c-64.667 2 -109 3 -133 3z" />
    <glyph glyph-name="grave" unicode="`" horiz-adv-x="280" 
d="M257.5 567.5c-4.33301 0.333008 -8.83496 0.167969 -13.502 -0.499023c-9.33301 -1.33301 -17 -3.66602 -23 -6.99902c-4.66699 -2.66699 -7.66699 -5.66699 -9 -9c-2.66699 -4.66699 -3 -9.66699 -1 -15c12 -28 31.333 -66.167 58 -114.5s40.667 -73.5 42 -75.5
c2.66699 -5.33301 7.33398 -10 14.001 -14c5.33301 -3.33301 11 -5.66602 17 -6.99902c6.66699 -2 12.334 -2.33301 17.001 -1s8 3.66602 10 6.99902s2.33301 7.33301 1 12c-6 21.333 -13.5 44.166 -22.5 68.499s-20.667 53.666 -35 87.999s-21.833 52.5 -22.5 54.5
c-2 4 -5.33301 7 -10 9c-2.66699 1.33301 -6.33398 2.33301 -11.001 3c-3.33301 0.666992 -7.16602 1.16699 -11.499 1.5z" />
    <glyph glyph-name="a" unicode="a" 
d="M392 433c-40 0 -82.334 -14.6748 -127.001 -44.0078c-30 -19.333 -57.667 -42.833 -83 -70.5s-45.666 -55.5 -60.999 -83.5c-18.667 -36 -27.334 -76 -26.001 -120c2 -49.333 18.667 -83.666 50 -102.999c30.667 -19.333 69.667 -17.333 117 6c24.667 12.667 53 32 85 58
c-9.33301 -28.667 -15.333 -53 -18 -73c-2.66699 -19.333 -2 -35.666 2 -48.999c4 -15.333 12 -26.333 24 -33h1c14.667 -6.66699 29.334 -8 44.001 -4c13.333 4 26.333 12 39 24c20.667 18.667 41.667 48.334 63 89.001c14.667 28.667 29.334 63 44.001 103l10.5 27.5
c3.66699 9.66699 6.5 17.5 8.5 23.5l4 12c1.33301 2.66699 1.5 5.16699 0.5 7.5s-2.83301 4 -5.5 5s-5.16699 1.16699 -7.5 0.5s-4.16602 -2.33398 -5.49902 -5.00098l-9.5 -24.5l-12.5 -32.5c-13.333 -33.333 -26 -62 -38 -86c-16.667 -32 -32.667 -55.333 -48 -70
c-8 -7.33301 -15.667 -12 -23 -14c-6.66699 -2 -13.334 -1.33301 -20.001 2s-11.334 9 -14.001 17c-3.33301 8.66699 -4.66602 19.334 -3.99902 32.001c0.666992 26 8 58.667 22 98l5 14c29.333 38.667 59.666 87.334 90.999 146.001c20 36.667 33 64 39 82
c1.33301 4.66699 2.33301 8.66699 3 12c0 2.66699 -0.333008 5 -1 7c-2 4 -5.33301 6.33301 -10 7c-2.66699 0 -5.33398 -0.666992 -8.00098 -2c-1.33301 -0.666992 -3 -2 -5 -4c-2.66699 -2.66699 -6.33398 -6.66699 -11.001 -12
c-44.667 -59.333 -86.334 -130.666 -125.001 -213.999c-30 -38.667 -52.667 -63.334 -68 -74.001c-18.667 -13.333 -39 -22.333 -61 -27c-23.333 -4.66699 -42.666 -2 -57.999 8c-18 12 -30.333 32.333 -37 61c-6 26.667 -5.33301 52.334 2 77.001
c12.667 44.667 38.5 85.334 77.5 122.001s80.167 57 123.5 61c20.667 2 41.667 -2.33301 63 -13c10 -4.66699 17.333 -10 22 -16s6 -12 4 -18v-6c0.666992 -2.66699 2.33398 -4.66699 5.00098 -6c2 -1.33301 4.33301 -1.66602 7 -0.999023s5 2.66699 7 6
c10 16.667 13.5 33 10.5 49s-11.5 27.333 -25.5 34c-17.333 8.66699 -36.666 13.334 -57.999 14.001h-4z" />
    <glyph glyph-name="b" unicode="b" horiz-adv-x="420" 
d="M293 843l-4.00391 -0.00292969c-27.333 -0.666992 -52.666 -12.667 -75.999 -36c-3.33301 -3.33301 -4.16602 -7 -2.49902 -11s4.83398 -6 9.50098 -6c16 0 29 -0.666992 39 -2c16 -2.66699 27.333 -7.66699 34 -15c22.667 -24 31 -68.667 25 -134
c-0.666992 -13.333 -3.5 -27.666 -8.5 -42.999s-9.66699 -28.333 -14 -39s-12.166 -25.667 -23.499 -45s-19.333 -32.5 -24 -39.5l-30 -45c-15.333 -23 -24.666 -36.5 -27.999 -40.5c-33.333 -50.667 -55.333 -91.667 -66 -123c-2.66699 -8 -4.66699 -16.333 -6 -25
c-14.667 -45.333 -17 -88.666 -7 -129.999c12.667 -54 41 -90 85 -108c42.667 -18 90.334 -7 143.001 33c40 30 76.333 70.333 109 121c28 42.667 46.667 86 56 130c12 55.333 5 99 -21 131c-12.667 16 -33 24 -61 24c-17.333 0 -39 -3.33301 -65 -10
c-56.667 -15.333 -101.334 -34.666 -134.001 -57.999c10 16.667 25 40 45 70l41 64.5c9.33301 15 20.666 34.833 33.999 59.5s23.333 48 30 70s10.667 44 12 66c1.33301 26.667 0 49.667 -4 69c-6 27.333 -18 46.333 -36 57c-16 10.667 -33.333 15.667 -52 15z
M361.996 390.997c12 0 23.0029 -1.66699 33.0029 -5c15.333 -4.66699 25.666 -11.667 30.999 -21c19.333 -31.333 24.666 -71 15.999 -119c-8 -42.667 -24.667 -82.667 -50 -120c-17.333 -25.333 -37.333 -45.666 -60 -60.999c-26 -17.333 -49 -22.333 -69 -15
c-34 12 -59.333 41.667 -76 89c-16 45.333 -18.333 88 -7 128c7.33301 28.667 32.666 57 75.999 85c17.333 11.333 34.333 20.666 51 27.999l16 6l28 4c3.33301 0.666992 7 1 11 1z" />
    <glyph glyph-name="c" unicode="c" horiz-adv-x="360" 
d="M358 440c-21.333 0 -44.3301 -6.00391 -68.9971 -18.0039c-36.667 -17.333 -69 -42.666 -97 -75.999c-50.667 -60 -86.334 -126.667 -107.001 -200c-24 -86.667 -16.667 -157 22 -211c16.667 -24 44.334 -37.333 83.001 -40
c33.333 -2.66699 64.666 2.66602 93.999 15.999c52.667 22.667 98.667 69 138 139c20.667 33.333 43 82 67 146c1.33301 2.66699 1.5 5.33398 0.5 8.00098s-2.83301 4.5 -5.5 5.5s-5.33398 1 -8.00098 0s-4.33398 -2.83301 -5.00098 -5.5v-1
c-24.667 -60.667 -46.667 -107.667 -66 -141c-27.333 -44.667 -57.333 -75.667 -90 -93c-26 -14 -53.333 -21.667 -82 -23c-32 -2 -55.667 5 -71 21c-34 36.667 -46.667 89.667 -38 159c8 62 29.333 118 64 168c22.667 32 51.667 57.333 87 76c39.333 20 73 23.667 101 11
c8.66699 -4 15 -11.667 19 -23c4 -12 3 -22.667 -3 -32c-4.66699 -7.33301 -11.167 -12.333 -19.5 -15s-15.5 -3.66699 -21.5 -3l-9 2c-5.33301 1.33301 -9 -0.666992 -11 -6s-0.666992 -9.66602 4 -12.999c9.33301 -5.33301 20.333 -8.66602 33 -9.99902
c26 -2 46.333 9.33301 61 34c9.33301 16 12 36 8 60c-4 26.667 -14.667 44.667 -32 54c-12.667 6.66699 -26.667 10.334 -42 11.001h-5z" />
    <glyph glyph-name="d" unicode="d" horiz-adv-x="420" 
d="M674.5 883h-0.496094c-10 0 -19 -1 -27 -3c-24 -6.66699 -46.333 -18.667 -67 -36s-37 -37 -49 -59c-26.667 -49.333 -41.334 -107 -44.001 -173c-0.666992 -22 -0.333984 -57.167 0.999023 -105.5s2 -83.833 2 -106.5c0 -13.333 -1.66699 -28.333 -5 -45
c-5.33301 15.333 -12.666 29 -21.999 41c-20 25.333 -50.667 38 -92 38c-11.333 0 -22.333 -1.33301 -33 -4c-18.667 -4.66699 -38.334 -13.5 -59.001 -26.5s-36 -24 -46 -33s-26 -24.167 -48 -45.5c-18.667 -18 -36.667 -41.333 -54 -70c-42 -74 -51.667 -134.333 -29 -181
c12 -24 31.333 -42.833 58 -56.5s53.667 -19.5 81 -17.5c47.333 4 92.166 23 134.499 57s73.5 73.667 93.5 119c31.333 70.667 50.666 144.334 57.999 221.001c2 16.667 3 51 3 103c0 84 20.667 160 62 228c14.667 23.333 30 43.333 46 60s28.333 27.667 37 33
c12.667 8 27.667 14 45 18c22.667 6 41.667 6.33301 57 1c2.66699 -0.666992 5.16699 -0.333984 7.5 0.999023s4 3.33301 5 6s0.833008 5.16699 -0.5 7.5s-3.33301 3.83301 -6 4.5v1c-15.333 5.33301 -32 10 -50 14c-22 5.33301 -40.333 8.33301 -55 9h-1.5h-2zM333.004 390
l3 -0.00195312c12.667 0 25.834 -4.5 39.501 -13.5s23.834 -19.5 30.501 -31.5c16.667 -28 25.167 -61 25.5 -99s-6.5 -72 -20.5 -102c-10.667 -23.333 -26.5 -44.166 -47.5 -62.499s-42.5 -28.833 -64.5 -31.5c-21.333 -2 -43.5 2.66699 -66.5 14s-40.5 26 -52.5 44
c-10.667 20.667 -15.834 43 -15.501 67s5.16602 47.667 14.499 71c12.667 30 36.667 62 72 96c12.667 12.667 26.667 24.334 42 35.001c12 8.66699 25.333 13 40 13z" />
    <glyph glyph-name="e" unicode="e" horiz-adv-x="360" 
d="M397 436c-20.667 0 -43.6689 -5.00098 -69.002 -15.001c-52 -21.333 -97 -52.666 -135 -93.999c-52 -56 -89 -120.333 -111 -193c-25.333 -86 -16.666 -152.667 26.001 -200c18.667 -21.333 47.667 -27.666 87 -18.999c26 6 56 18 90 36c74 40.667 134 104.667 180 192
c10 18 18 35.667 24 53c1.33301 2.66699 1.66602 5 0.999023 7c-1.33301 2.66699 -3 4.66699 -5 6c-2 0.666992 -4.33301 1 -7 1c-3.33301 -0.666992 -5.66602 -2.66699 -6.99902 -6v-1l-23 -50c-34 -61.333 -78.333 -109.666 -133 -144.999
c-35.333 -22 -63 -36.333 -83 -43c-31.333 -11.333 -54.666 -10.333 -69.999 3c-35.333 30 -48.333 78.333 -39 145c8.66699 60 30.334 113.667 65.001 161c12.667 17.333 29.334 35 50.001 53s42 32.667 64 44c23.333 12.667 44.333 19.334 63 20.001
c15.333 -0.666992 28.5 -4.33398 39.5 -11.001s15.833 -16.334 14.5 -29.001c-0.666992 -9.33301 -4.33398 -20 -11.001 -32c-6 -10.667 -13.833 -20.667 -23.5 -30s-19.167 -16 -28.5 -20c-75.333 -32 -149.333 -72.333 -222 -121c-2 -1.33301 -3.33301 -3.33301 -4 -6
s-0.166992 -5.16699 1.5 -7.5s3.66699 -3.83301 6 -4.5s4.83301 -0.333984 7.5 0.999023c80 44.667 159.667 84.667 239 120c29.333 13.333 54.333 35.333 75 66c10.667 16 17 31 19 45c3.33301 17.333 0 32 -10 44c-18.667 20 -42.334 30 -71.001 30z" />
    <glyph glyph-name="f" unicode="f" horiz-adv-x="280" 
d="M398 843l-2.99805 0.00585938c-12 -0.666992 -24.667 -4.33398 -38 -11.001c-16.667 -8.66699 -33 -21 -49 -37c-33.333 -34 -58.333 -75 -75 -123s-31 -104.667 -43 -170c-6.66699 -38.667 -8.33398 -81.667 -5.00098 -129c-31.333 -56 -55.333 -110.333 -72 -163
c-1.33301 -2.66699 -2.33301 -5 -3 -7c-0.666992 -2.66699 -0.333984 -5.33398 0.999023 -8.00098s3.33301 -4.33398 6 -5.00098s5.16699 -0.333984 7.5 0.999023s4.16602 3.33301 5.49902 6c0.666992 2.66699 1.33398 5.66699 2.00098 9l0.5 1l0.5 1
c14 42.667 32.333 84.334 55 125.001c2.66699 -24.667 11 -77.334 25 -158.001c11.333 -66.667 17.333 -120.334 18 -161.001c-93.333 -69.333 -165.333 -128.333 -216 -177c-34.667 -32.667 -67.334 -68.667 -98.001 -108c-36 -46 -51.667 -89.333 -47 -130
c1.33301 -12 7 -23 17 -33c10 -10.667 21 -16 33 -16c76 0 148 39 216 117c53.333 62 97.666 138.333 132.999 229c16 41.333 24 87.666 24 138.999c30 26.667 55 53 75 79v0c18 23.333 30.667 46.333 38 69c0.666992 2 1.33398 4.33301 2.00098 7l2 8
c0.666992 2.66699 0.333984 5.16699 -0.999023 7.5s-3.5 3.83301 -6.5 4.5s-5.66699 0.333984 -8 -0.999023s-3.83301 -3.66602 -4.5 -6.99902c-0.666992 -4.66699 -1.66699 -9 -3 -13c-6 -19.333 -17.667 -40.333 -35 -63v0c-16 -20.667 -36 -41.334 -60 -62.001
c-2 39.333 -9 90.666 -21 153.999c-20 100 -31.333 166.667 -34 200c10 16 21.5 32 34.5 48s30 35.333 51 58l42.5 46c28.667 33.333 51.167 64.833 67.5 94.5s25.5 61.167 27.5 94.5c0.666992 16 -2.33301 31.333 -9 46c-7.33301 18 -18.333 29.333 -33 34
c-6 2.66699 -12.667 4 -20 4zM363.002 785.006c6.66699 0.666992 12.333 -0.333008 17 -3c8.66699 -6 15 -16.667 19 -32c3.33301 -13.333 3.66602 -28 0.999023 -44c-6.66699 -45.333 -34.667 -97.666 -84 -156.999c-2 -2.66699 -13.5 -16.167 -34.5 -40.5
s-36.5 -42.833 -46.5 -55.5c-1.33301 30.667 0.333984 59 5.00098 85c0.666992 2.66699 1.33398 6.66699 2.00098 12c4.66699 28 8.5 49.667 11.5 65s8 34.666 15 57.999s15.667 43 26 59s22.5 30 36.5 42c7.33301 5.33301 15.666 9 24.999 11h7zM231.001 -15.9941
c-1.33301 -44.667 -8 -85.0029 -20 -121.003c-20.667 -58.667 -49.5 -111.667 -86.5 -159s-79.5 -78.666 -127.5 -93.999c-13.333 -4.66699 -27 -5.66699 -41 -3s-23 8.33398 -27 17.001c-6 14 -6.66699 29.333 -2 46c4.66699 14.667 14 31 28 49
c24.667 32.667 53 65.334 85 98.001c57.333 57.333 121 113 191 167z" />
    <glyph glyph-name="g" unicode="g" horiz-adv-x="420" 
d="M374 434l-2.99805 0.00488281c-24 -0.666992 -47.667 -6.33398 -71 -17.001c-33.333 -14.667 -65.666 -37.667 -96.999 -69c-42.667 -42.667 -70 -77.334 -82 -104.001c-24 -57.333 -28 -108.333 -12 -153s45.333 -74.667 88 -90c48 -18 100.333 -5.33301 157 38
c1.33301 1.33301 2.66602 2.33301 3.99902 3l-27.5 -58.5l-31.5 -66c-8.66699 -17.667 -17.334 -34.167 -26.001 -49.5c-26 -46.667 -53.833 -84.167 -83.5 -112.5s-66.834 -48.833 -111.501 -61.5c-36 -10.667 -75.667 -6.66699 -119 12
c-28.667 12.667 -68.667 37.334 -120 74.001l-12 9l-60.5 42.5c-14.333 9.66699 -33 20.667 -56 33s-45.167 20.666 -66.5 24.999s-42.666 5.5 -63.999 3.5c-26 -2.66699 -59 -20.667 -99 -54c-19.333 -16 -36.333 -31.667 -51 -47v-1c-2 -2 -3 -4.33301 -3 -7s1 -5 3 -7
s4.33301 -3 7 -3s5 1 7 3c10.667 10 23 20.333 37 31c26.667 20 47.667 30.667 63 32c16.667 1.33301 34 0 52 -4s33.5 -8.5 46.5 -13.5s30.167 -14 51.5 -27s36.5 -22.667 45.5 -29l49.5 -35.5c52.667 -37.333 94 -62.333 124 -75
c47.333 -20.667 91.333 -25.334 132 -14.001c50.667 13.333 95 36.666 133 69.999s73.333 75.666 106 126.999l93.5 170l91.5 166c18 35.333 27.167 73 27.5 113s-10.834 76 -33.501 108c-20 25.333 -49.667 38 -89 38zM327.002 390.005
c15.333 0 30.501 -4.33203 45.501 -12.999s26.167 -19.334 33.5 -32.001c16 -26.667 25 -58 27 -94s-3.66699 -68.333 -17 -97l-12 -21c-16 -25.333 -35.333 -46 -58 -62c-30.667 -21.333 -58.334 -28.333 -83.001 -21c-31.333 8.66699 -56.333 33.334 -75 74.001
c-18 39.333 -24 77.333 -18 114c4.66699 31.333 28 65.333 70 102c16.667 14.667 33 27 49 37c9.33301 5.33301 16.333 8.66602 21 9.99902c5.33301 1.33301 11 2.33301 17 3z" />
    <glyph glyph-name="h" unicode="h" horiz-adv-x="400" 
d="M383 200c37.333 70.667 36.998 135.671 -1.00195 195.004c-7.33301 11.333 -19.666 19.666 -36.999 24.999s-33 5.66602 -47 0.999023c-50 -16.667 -89.333 -54 -118 -112l-3 -6c-1.33301 -2.66699 -2.33301 -5 -3 -7c-5.33301 -15.333 -20.666 -51 -45.999 -107
c-38.667 -94 -65 -155 -79 -183c-2 -4 -5 -6 -9 -6c-5.33301 0 -10 3.66699 -14 11c-1.33301 2 -1.66602 4.33301 -0.999023 7l8 25c5.33301 16.667 14.166 40.667 26.499 72s25.5 61.666 39.5 90.999c16.667 35.333 33.667 67 51 95v1c0 0.666992 0.333008 1 1 1
c5.33301 0 14.333 26.333 27 79c6.66699 28 17 58.667 31 92c3.33301 8 9.33301 33 18 75c6.66699 32.667 10.334 62.667 11.001 90c0.666992 16.667 1 33 1 49s-2.16699 31.833 -6.5 47.5s-10.833 28.167 -19.5 37.5c-6.66699 7.33301 -18 12.333 -34 15
c-9.33301 1.33301 -22 2 -38 2c-4 -0.666992 -7 0.666016 -9 3.99902c-1.33301 2 -2 3.66699 -2 5c0 3.33301 1.33301 6.33301 4 9c23.333 22.667 48.333 34.334 75 35.001h4c15.333 0 32.666 -5 51.999 -15c18 -10.667 29.667 -29.667 35 -57
c3.33301 -16.667 5 -39.334 5 -68.001c-0.666992 -34 -5.83398 -70.333 -15.501 -109s-19.5 -70.334 -29.5 -95.001l-43 -102c38 44.667 76.333 72.334 115 83.001c20 4.66699 40.667 1 62 -11c20.667 -11.333 35.667 -26.333 45 -45c23.333 -49.333 25.333 -97.333 6 -144
c-25.333 -60 -39.333 -92.667 -42 -98c-18 -40.667 -22 -68 -12 -82c13.333 -16.667 27.666 -22 42.999 -16c26.667 11.333 49 42 67 92c6 16.667 9.33301 25.667 10 27s2.33398 3.33301 5.00098 6c2 2 4.66699 2.33301 8 1c2 -1.33301 3.66699 -3.33301 5 -6
s1.33301 -5 0 -7l-9 -28c-15.333 -42 -37.666 -75.667 -66.999 -101c-24 -20.667 -45.667 -28.667 -65 -24c-25.333 6 -38 20.333 -38 43c0 33.333 11 71 33 113z" />
    <glyph glyph-name="i" unicode="i" horiz-adv-x="200" 
d="M236 567l-2.99902 -0.00195312c-9.33301 -4.66699 -18.666 -10 -27.999 -16c-8.66699 -6 -15.334 -11.667 -20.001 -17c-7.33301 -7.33301 -11.333 -14.666 -12 -21.999c-1.33301 -10 2 -20 10 -30c7.33301 -9.33301 16 -15.666 26 -18.999
c10.667 -3.33301 21.334 -3.5 32.001 -0.5s20 8.16699 28 15.5c7.33301 7.33301 12.666 16 15.999 26c3.33301 12 3 22.333 -1 31s-11 15.667 -21 21c-6.66699 3.33301 -13.334 5 -20.001 5c-0.666992 4 -3 6 -7 6zM179.001 441.998
c-8.66699 0.666992 -14.9971 -1.66602 -18.9971 -6.99902c-4.66699 -2 -5 -9.83301 -1 -23.5s6 -22.5 6 -26.5c-0.666992 -10 -2.33398 -20 -5.00098 -30s-6.16699 -21.833 -10.5 -35.5l-9.5 -29.5c-6 -22 -16.833 -51.5 -32.5 -88.5s-28.5 -71.5 -38.5 -103.5
s-14.667 -62.333 -14 -91c0 -19.333 0.833008 -35.5 2.5 -48.5s5.66699 -27.5 12 -43.5s15.5 -27.333 27.5 -34c18.667 -11.333 42 -7.33301 70 12c10.667 7.33301 21.167 16.833 31.5 28.5s19 22.667 26 33s14.5 23.666 22.5 39.999s14 29 18 38s9.33301 21.667 16 38
l12 29.5c6.66699 15.333 13 31.166 19 47.499s10.333 28.5 13 36.5l5 13c0.666992 2.66699 0.333984 5.16699 -0.999023 7.5s-3.33301 4 -6 5s-5.16699 0.833008 -7.5 -0.5s-3.83301 -3.33301 -4.5 -6h-1v-2c-8.66699 -26 -19.667 -54.333 -33 -85
c-3.33301 -7.33301 -8.16602 -19.333 -14.499 -36s-11.833 -30.5 -16.5 -41.5s-10.834 -23.333 -18.501 -37s-15.834 -25.167 -24.501 -34.5c-1.33301 -1.33301 -3.33301 -3.5 -6 -6.5s-4.66699 -5.16699 -6 -6.5s-3.33301 -3.5 -6 -6.5s-4.83398 -5.16699 -6.50098 -6.5
l-6.5 -5c-2.66699 -2 -5.16699 -3.5 -7.5 -4.5s-4.66602 -1.83301 -6.99902 -2.5s-4.83301 -1 -7.5 -1s-5 0.666992 -7 2c-28.667 10 -41.334 49.333 -38.001 118c1.33301 22 7.16602 45.5 17.499 70.5s21.833 46.833 34.5 65.5s25.5 40.5 38.5 65.5
s22.167 47.833 27.5 68.5c0.666992 3.33301 2.16699 8.66602 4.5 15.999s3.83301 13 4.5 17s1.33398 9.33301 2.00098 16s0.666992 12.834 0 18.501s-2.33398 11.834 -5.00098 18.501c-5.33301 14 -18 26 -38 36c-3.33301 1.33301 -7.33301 2 -12 2z" />
    <glyph glyph-name="j" unicode="j" horiz-adv-x="280" 
d="M316 647l-2.99902 -0.00195312c-9.33301 -4.66699 -18.666 -10 -27.999 -16c-8.66699 -6 -15.334 -11.667 -20.001 -17c-7.33301 -7.33301 -11.333 -14.666 -12 -21.999c-1.33301 -10 2 -20 10 -30c7.33301 -9.33301 16 -15.666 26 -18.999
c10.667 -3.33301 21.334 -3.5 32.001 -0.5s20 8.16699 28 15.5c7.33301 7.33301 12.666 16 15.999 26c3.33301 12 3 22.333 -1 31s-11 15.667 -21 21c-6.66699 3.33301 -13.334 5 -20.001 5c-0.666992 4 -3 6 -7 6zM277.001 500.998c-6.66699 0 -12.9971 -2 -18.9971 -6
c-20 -16 -42.333 -48 -67 -96c-29.333 -58 -56 -123.333 -80 -196h-1v-1v-0.5v-1v-0.5v-1v-0.5v-1c0 -0.333008 0.333008 -0.833008 1 -1.5v-1h1v-1.5c0 -0.333008 0.333008 -0.5 1 -0.5l0.5 -0.5l0.5 -0.5l1 -1v0c0.666992 0 1 -0.166992 1 -0.5s0.166992 -0.5 0.5 -0.5
h1.5h1.5h1h1h1.5l1 1h0.5h0.5l1 1v0c0.666992 0 1 0.166992 1 0.5s0.333008 0.5 1 0.5v1v0c0.666992 0.666992 1 1.16699 1 1.5v0.5v1h1c16.667 46.667 39.334 96 68.001 148c22 38 38.667 64.333 50 79c4 4.66699 7.33301 7.66699 10 9
c0.666992 0.666992 1.33398 0.666992 2.00098 0c3.33301 -1.33301 6.66602 -8.33301 9.99902 -21c6.66699 -23.333 10 -57.333 10 -102c0 -41.333 -4.83301 -95 -14.5 -161s-23.167 -128.333 -40.5 -187c-12.667 -10.667 -26.334 -21.5 -41.001 -32.5l-52.5 -38
c-20.333 -14.333 -34.833 -24.833 -43.5 -31.5l-5.5 -3.5c-3.66699 -2.33301 -6.16699 -4.16602 -7.5 -5.49902c-43.333 -31.333 -75.666 -60 -96.999 -86c-40.667 -45.333 -63.334 -93.333 -68.001 -144c-1.33301 -15.333 2.66699 -30.333 12 -45
c10 -16.667 22.667 -25.334 38 -26.001c36.667 -2 71 9 103 33c27.333 20 53.333 49.667 78 89c10.667 16 21.5 34.833 32.5 56.5s19.833 40 26.5 55l26.5 60.5l22.5 52c13.333 30 25.666 60.333 36.999 91c8 8.66699 15.333 17.334 22 26.001v1
c28 33.333 47.667 61.666 59 84.999c13.333 24 27.333 56.333 42 97v1c1.33301 2 1.33301 4.33301 0 7s-3.16602 4.5 -5.49902 5.5s-4.83301 1 -7.5 0s-4.33398 -2.83301 -5.00098 -5.5v-1c-20.667 -49.333 -34.334 -80.333 -41.001 -93
c-8.66699 -16 -24.334 -39 -47.001 -69c44 144 53 274.333 27 391c-4 18 -8 30.667 -12 38c-7.33301 14.667 -19 24.667 -35 30c-2 0.666992 -4 1 -6 1zM213.004 -77.002c-7.33301 -22 -14.666 -41.667 -21.999 -59c-2.66699 -6 -12.834 -31.333 -30.501 -76
s-32.167 -77.667 -43.5 -99c-33.333 -62 -72.666 -95 -117.999 -99c-10.667 -0.666992 -21.5 4.5 -32.5 15.5s-16.5 22.5 -16.5 34.5c-0.666992 38 12.333 73.667 39 107l4 6c21.333 22.667 49.666 47.667 84.999 75l22 16l36 25l42 29z" />
    <glyph glyph-name="k" unicode="k" horiz-adv-x="360" 
d="M213 843l-4.00488 -0.00292969c-27.333 -0.666992 -52.666 -12.667 -75.999 -36c-3.33301 -3.33301 -4.16602 -7 -2.49902 -11s4.83398 -6 9.50098 -6c16 0 29 -0.666992 39 -2c16 -2.66699 27.333 -7.66699 34 -15c8.66699 -9.33301 15.167 -21.833 19.5 -37.5
s6.5 -31.5 6.5 -47.5s-0.333008 -32.333 -1 -49c-0.666992 -27.333 -4.33398 -57.333 -11.001 -90s-12.667 -57.667 -18 -75s-15.666 -48 -30.999 -92s-24.333 -70.333 -27 -79l-22 -59c-41.333 -68 -75.666 -143.333 -102.999 -226c-1.33301 -2 -1.33301 -4.33301 0 -7
c6 -7.33301 10.667 -11 14 -11c4 0 7 2 9 6c28 62 54.333 123 79 183l14 30c20 37.333 38.333 65.333 55 84c42 46.667 81.667 72.334 119 77.001c20.667 2.66699 39.334 2.33398 56.001 -0.999023c8.66699 -2 15.667 -4.66699 21 -8c4 -3.33301 6.33301 -7.33301 7 -12
c1.33301 -17.333 -10 -35.333 -34 -54c-22 -16.667 -51.333 -32 -88 -46c-22.667 -8.66699 -44.667 -15.667 -66 -21c-4.66699 4 -9.33398 6.66699 -14.001 8c-8.66699 1.33301 -15.667 1.66602 -21 0.999023c-6 -2 -10.667 -5.33301 -14 -10
c-4.66699 -5.33301 -7 -11.166 -7 -17.499s2.66699 -11.166 8 -14.499c6 -4.66699 16.667 -6.33398 32 -5.00098c6.66699 0.666992 14.334 2 23.001 4c17.333 -17.333 31.333 -36 42 -56c14 -26.667 27.667 -64.834 41 -114.501s24.333 -86.5 33 -110.5
c3.33301 -10 7.5 -24.167 12.5 -42.5s9.5 -34.166 13.5 -47.499s9.16699 -27.333 15.5 -42s14.5 -27.167 24.5 -37.5s21.667 -17.833 35 -22.5c21.333 -9.33301 44.833 -10.333 70.5 -3s46.167 22.666 61.5 45.999c3.33301 4.66699 3 9 -1 13s-8.33301 4.33301 -13 1
c-14 -10 -29 -14.333 -45 -13c-13.333 0.666992 -28 5.33398 -44 14.001c-46 24 -86.333 101 -121 231c-12.667 46 -34.667 94.667 -66 146c-5.33301 9.33301 -17 24.333 -35 45c17.333 5.33301 35.333 12 54 20c44 18.667 80.333 40 109 64c36 29.333 54 57.666 54 84.999
c0 11.333 -4.33301 21.333 -13 30c-6.66699 7.33301 -15.667 13.666 -27 18.999c-21.333 9.33301 -43.333 13 -66 11c-16.667 -1.33301 -33 -5.5 -49 -12.5s-31.667 -17.167 -47 -30.5s-27.833 -25.166 -37.5 -35.499s-21.834 -24.166 -36.501 -41.499
c5.33301 13.333 18 43 38 89s34.167 79.833 42.5 101.5s17 51.167 26 88.5s13.833 72 14.5 104c0 28.667 -1.66699 51.334 -5 68.001c-6 28.667 -17.667 47.667 -35 57c-17.333 10 -34.666 15 -51.999 15z" />
    <glyph glyph-name="l" unicode="l" horiz-adv-x="240" 
d="M253 843h-4.00293c-27.333 -0.666992 -52.666 -12.667 -75.999 -36c-3.33301 -3.33301 -4.16602 -7 -2.49902 -11s4.83398 -6 9.50098 -6c16 0 29 -0.666992 39 -2c16 -2.66699 27.333 -7.66699 34 -15c21.333 -22.667 29.666 -67.334 24.999 -134.001
c-4.66699 -81.333 -39 -182.333 -103 -303c-20.667 -39.333 -36.334 -70.166 -47.001 -92.499s-23.667 -52.333 -39 -90s-26.166 -73.334 -32.499 -107.001s-8.5 -66.5 -6.5 -98.5c4.66699 -82.667 27.334 -132 68.001 -148c20.667 -8 47 3 79 33
c14.667 13.333 28.667 29.833 42 49.5s25.5 41.667 36.5 66l27 61.5c7 16.667 14.667 36.834 23 60.501s13.166 36.5 14.499 38.5c12 32 22 61.333 30 88v0c0.666992 2.66699 0.333984 5.33398 -0.999023 8.00098s-3.33301 4.33398 -6 5.00098
s-5.16699 0.333984 -7.5 -0.999023s-4.16602 -3.33301 -5.49902 -6c-7.33301 -22.667 -16.333 -47.334 -27 -74.001c-0.666992 -2 -6.5 -16.833 -17.5 -44.5s-20.5 -50.667 -28.5 -69s-16.333 -34.5 -25 -48.5c-13.333 -24.667 -22.5 -40.834 -27.5 -48.501s-12 -16 -21 -25
s-19.833 -16.833 -32.5 -23.5c-10 -5.33301 -19.333 -4.5 -28 2.5s-16 17.833 -22 32.5s-10.667 29.5 -14 44.5s-5.66602 29.167 -6.99902 42.5c-2.66699 22.667 -2.33398 46 0.999023 70s10.166 49.5 20.499 76.5s19.166 48.833 26.499 65.5s19 40.667 35 72
s26 51.333 30 60l33 64.5c17.333 34.333 29.5 59.666 36.5 75.999l28 68.5c11.667 29.333 20.167 56.666 25.5 81.999s8.33301 50.333 9 75c0.666992 28.667 -0.666016 51.667 -3.99902 69c-6 28.667 -17.833 47.834 -35.5 57.501s-35.167 14.5 -52.5 14.5z" />
    <glyph glyph-name="m" unicode="m" horiz-adv-x="660" 
d="M495 441c-40 -0.666992 -79.3408 -22.3438 -118.008 -65.0107c-9.33301 -10 -18.666 -21.333 -27.999 -34c0.666992 20 -2.66602 37.333 -9.99902 52c-6 12.667 -14.833 23.334 -26.5 32.001s-24.167 13.334 -37.5 14.001h-6c-15.333 -0.666992 -30.666 -9 -45.999 -25
c-4 -4 -14.333 -17 -31 -39c-16 -21.333 -34.333 -56.666 -55 -105.999c-10.667 -24 -19.334 -46 -26.001 -66v-1c-1.33301 -2.66699 -1.33301 -5.16699 0 -7.5s3.16602 -4 5.49902 -5s4.83301 -0.833008 7.5 0.5s4.33398 3 5.00098 5v1c20 52.667 40 95.334 60 128.001
c9.33301 16.667 18.333 29.334 27 38.001c12 11.333 23.333 17 34 17c7.33301 0 15 -3.33301 23 -10c7.33301 -6.66699 13.333 -14.667 18 -24c10 -21.333 12.667 -50 8 -86l-8 -16c-32 -63.333 -54.667 -110.333 -68 -141c-10.667 -26 -18.334 -46.333 -23.001 -61
c-2 -9.33301 -3.33301 -16.666 -4 -21.999c0 -4 0.5 -7.33301 1.5 -10s2.83301 -5 5.5 -7v0l0.5 -0.5l0.5 -0.5l1 -1v0h1v0l1 -1h1v0h1h1v0v0h1v0h2l0.5 0.5c0.333008 0.333008 0.833008 0.5 1.5 0.5l0.5 0.5l1 1l0.5 0.5c1.33301 0.666992 2.33301 1.66699 3 3l28 53
c5.33301 10 8.66602 16.667 9.99902 20l0.5 0.5l0.5 0.5c0.666992 1.33301 1.66699 3.5 3 6.5s2.66602 5.5 3.99902 7.5c33.333 66 54.666 117.333 63.999 154c0.666992 4 2.33398 10.667 5.00098 20c15.333 26.667 31.666 49.334 48.999 68.001
c31.333 32.667 62 47.334 92 44.001c8 -0.666992 15 -6.33398 21 -17.001c4.66699 -8.66699 9 -20.667 13 -36c4.66699 -16 6.33398 -35 5.00098 -57c-6 -10 -10.667 -18.667 -14 -26c-32 -63.333 -54 -110 -66 -140c-10.667 -25.333 -17.667 -45 -21 -59
c-1.33301 -8.66699 -1.66602 -15.667 -0.999023 -21c1.33301 -4 3.33301 -7.33301 6 -10s6.33398 -4 11.001 -4c12.667 0 25.334 9 38.001 27c8.66699 13.333 18 32 28 56c9.33301 23.333 24 68 44 134c9.33301 31.333 15 51.666 17 60.999
c9.33301 14.667 19 27.334 29 38.001c25.333 26.667 52 41.334 80 44.001c6.66699 0.666992 13.5 -1.5 20.5 -6.5s11.833 -10.833 14.5 -17.5c8.66699 -24 8 -49.667 -2 -77c-3.33301 -10 -10.833 -27 -22.5 -51s-20.167 -42 -25.5 -54
c-8.66699 -20 -14.334 -39.333 -17.001 -58c-1.33301 -12.667 -0.666016 -23.334 2.00098 -32.001c3.33301 -12 10.333 -19.667 21 -23c16.667 -6.66699 34.334 -2 53.001 14c12.667 12 26 29.333 40 52c0.666992 0.666992 1.5 1.83398 2.5 3.50098s1.5 2.66699 1.5 3
s0.333008 1 1 2s1.33398 1.83301 2.00098 2.5c12.667 22 23.334 44.667 32.001 68v1c1.33301 2 1.33301 4.33301 0 7s-3.16602 4.33398 -5.49902 5.00098s-4.83301 0.5 -7.5 -0.5s-4.33398 -2.5 -5.00098 -4.5v-1c-2 -3.33301 -3.33301 -5.66602 -4 -6.99902
c-8.66699 -22 -18.667 -42.667 -30 -62c-9.33301 -16 -18.333 -27.667 -27 -35c-10 -9.33301 -19 -12.666 -27 -9.99902c-4 2 -6.66699 5.66699 -8 11c-2 6 -2.33301 14 -1 24c2 16.667 7 34 15 52c6.66699 15.333 16.334 34.833 29.001 58.5s21 40.5 25 50.5
c15.333 35.333 17.333 68 6 98c-3.33301 10.667 -10.333 19.667 -21 27c-11.333 7.33301 -22.666 10.666 -33.999 9.99902c-40.667 -3.33301 -79 -23.333 -115 -60c-4.66699 -4.66699 -10 -10.667 -16 -18c0 10.667 -1 20.667 -3 30c-4 16.667 -9.33301 30.334 -16 41.001
c-9.33301 16.667 -21 25.667 -35 27c-3.33301 0 -6.66602 0.333008 -9.99902 1h-4zM487.992 146.99c-6.66699 -22 -13.332 -41.332 -19.999 -57.999c-7.33301 -18 -13.666 -31.667 -18.999 -41c-0.666992 -0.666992 -1.33398 -1.66699 -2.00098 -3c0 2.66699 0.333008 5 1 7
c3.33301 11.333 9.66602 27.666 18.999 48.999c4 10 11 25.333 21 46z" />
    <glyph glyph-name="n" unicode="n" horiz-adv-x="520" 
d="M494 442c-37.333 0 -75.3301 -20.6719 -113.997 -62.0049c-10 -11.333 -20.333 -24 -31 -38c0.666992 20 -2.66602 37.333 -9.99902 52c-6 12.667 -14.833 23.334 -26.5 32.001s-24.167 13.334 -37.5 14.001h-6c-15.333 -0.666992 -30.666 -9 -45.999 -25
c-4 -4 -14.333 -17 -31 -39c-16 -21.333 -34.333 -56.666 -55 -105.999c-10.667 -24 -19.334 -46 -26.001 -66v-1c-1.33301 -2.66699 -1.33301 -5.16699 0 -7.5s3.16602 -4 5.49902 -5s4.83301 -0.833008 7.5 0.5s4.33398 3 5.00098 5v1c20 52.667 40 95.334 60 128.001
c9.33301 16.667 18.333 29.334 27 38.001c12 11.333 23.333 17 34 17c7.33301 0 15 -3.33301 23 -10c7.33301 -6.66699 13.333 -14.667 18 -24c10 -21.333 12.667 -50 8 -86c-2.66699 -4.66699 -5.33398 -10 -8.00098 -16c-32 -63.333 -54.667 -110.333 -68 -141
c-10.667 -26 -18.334 -46.333 -23.001 -61c-2 -9.33301 -3.33301 -16.666 -4 -21.999c0 -4 0.5 -7.33301 1.5 -10s2.83301 -5 5.5 -7v0l0.5 -0.5l0.5 -0.5l1 -1v0h1v0l1 -1h1v0h1h1v0v0h1v0h2l0.5 0.5c0.333008 0.333008 0.833008 0.5 1.5 0.5l0.5 0.5l1 1l0.5 0.5
c1.33301 0.666992 2.33301 1.66699 3 3l28 53c5.33301 10 8.66602 16.667 9.99902 20l0.5 0.5l0.5 0.5c0.666992 1.33301 1.66699 3.5 3 6.5s2.66602 5.5 3.99902 7.5c33.333 66 54.666 117.333 63.999 154c0.666992 3.33301 2.66699 10.333 6 21
c14.667 28 30.667 51.333 48 70c30.667 34 60.334 47.667 89.001 41c17.333 -4 30.333 -18.333 39 -43c8.66699 -22.667 11.334 -48 8.00098 -76c-4 -36.667 -15 -75.167 -33 -115.5s-39.833 -82.666 -65.5 -126.999s-42.5 -75.833 -50.5 -94.5
c-7.33301 -16 -9 -33.667 -5 -53c2 -10.667 5.33301 -19.334 10 -26.001c6 -8 13.333 -13 22 -15c36.667 -6 72.334 10.333 107.001 49c26.667 30 52.334 72.667 77.001 128c28.667 62 51.334 125.333 68.001 190v1c0.666992 2.66699 0.166992 5 -1.5 7s-3.66699 3.5 -6 4.5
s-4.83301 0.666992 -7.5 -1s-4.33398 -3.5 -5.00098 -5.5v-1c-15.333 -58 -36.333 -115.333 -63 -172c-22.667 -48.667 -45.334 -85 -68.001 -109c-12.667 -14 -25.334 -23.667 -38.001 -29s-25.334 -6 -38.001 -2c-2.66699 0.666992 -4.66699 2.66699 -6 6
c-1.33301 4 -1.66602 9.33301 -0.999023 16c1.33301 13.333 5.66602 28 12.999 44c8 17.333 24.833 48 50.5 92s47.667 87 66 129s29.833 82.667 34.5 122c3.33301 31.333 0.333008 59.666 -9 84.999c-10.667 31.333 -28.667 50 -54 56c-6 1.33301 -12.333 2 -19 2h-4z" />
    <glyph glyph-name="o" unicode="o" 
d="M396 434l-2.00293 0.00292969c-6.66699 -0.666992 -12.667 -2.33398 -18 -5.00098c-32.667 -15.333 -54.667 -46.333 -66 -93c-10 -40.667 -10 -80.334 0 -119.001c10 -34.667 28.333 -65.667 55 -93c11.333 -11.333 23.333 -20.666 36 -27.999
c-8 -18.667 -17.667 -35.334 -29 -50.001c-18 -22.667 -41.333 -40 -70 -52c-30 -13.333 -56 -14.666 -78 -3.99902c-31.333 14.667 -54 45 -68 91c-12.667 42.667 -14.667 85 -6 127c6.66699 33.333 20.667 63.666 42 90.999c10.667 14 21.334 23.667 32.001 29
c11.333 6 22 7 32 3c2 -0.666992 3.33301 -2 4 -4c0.666992 -2.66699 1 -6.33398 1 -11.001c-1.33301 -10 -4.66602 -20.667 -9.99902 -32c-1.33301 -2 -1.5 -4.33301 -0.5 -7s2.5 -4.66699 4.5 -6s4.33301 -1.66602 7 -0.999023s4.66699 2 6 4c12 18 19.333 33.333 22 46
c2 8 1.66699 15.333 -1 22c-2 7.33301 -6.66699 13 -14 17c-16 8.66699 -33.333 10 -52 4c-15.333 -5.33301 -31.333 -15.666 -48 -30.999c-29.333 -28.667 -50.666 -61.667 -63.999 -99c-20 -54 -25.667 -110.333 -17 -169c9.33301 -68.667 36.666 -113 81.999 -133
c42 -18.667 89.333 -9.33398 142 27.999c42 29.333 78.667 68 110 116l5 8c9.33301 -2.66699 18.333 -3.66699 27 -3c23.333 0.666992 45.333 14.334 66 41.001c5.33301 4.66699 10 10 14 16c7.33301 12 17 31.667 29 59c0.666992 0.666992 1 1.66699 1 3
s-0.333008 2.66602 -1 3.99902c0 2 -1 3.66699 -3 5c-0.666992 0.666992 -1.66699 1.33398 -3 2.00098c-3.33301 0.666992 -6.33301 0 -9 -2c-1.33301 -0.666992 -2.33301 -2 -3 -4c-11.333 -26.667 -23.333 -48.334 -36 -65.001c-0.666992 -1.33301 -2 -3.33301 -4 -6
c-8.66699 -8 -17.5 -12.333 -26.5 -13s-18.833 0.666016 -29.5 3.99902c14 29.333 24.333 59.5 31 90.5s8.33398 62.5 5.00098 94.5s-12.333 60.667 -27 86c-8.66699 14 -21.667 24.667 -39 32c-10 4.66699 -19.667 7 -29 7zM374.997 391.003l1 -0.000976562l4 -2
c3.33301 -2 6.66602 -5.33301 9.99902 -10c6 -8 11 -18.667 15 -32c22 -68 25.667 -135.333 11 -202c-4.66699 4.66699 -9 8.66699 -13 12c-24.667 24.667 -42.667 53.334 -54 86.001c-10 30 -13.333 60 -10 90c1.33301 15.333 5 28 11 38c5.33301 10 13 16.333 23 19
c0.666992 0.666992 1.33398 1 2.00098 1z" />
    <glyph glyph-name="p" unicode="p" horiz-adv-x="420" 
d="M353 440c-20.667 0 -39.3359 -3.67383 -56.0029 -11.0068c-37.333 -14.667 -68.666 -32.667 -93.999 -54c-28.667 -25.333 -52.667 -58.666 -72 -99.999v-1v0c-12 -27.333 -22.5 -53.333 -31.5 -78s-18.167 -52.667 -27.5 -84l-21 -69
c-10 -28 -20.167 -67.5 -30.5 -118.5s-21.666 -96.333 -33.999 -136s-29.166 -73.834 -50.499 -102.501c-44.667 -60.667 -90.334 -92.667 -137.001 -96c-15.333 -1.33301 -32.666 7.66699 -51.999 27c-2 2 -4.16699 3 -6.5 3s-4.5 -0.666992 -6.5 -2
s-3.16699 -3.33301 -3.5 -6s-0.166016 -5 0.500977 -7c29.333 -48.667 65.666 -73.667 108.999 -75c42 -1.33301 81.333 22 118 70c33.333 43.333 57 108 71 194c2 10.667 4.83301 27.334 8.5 50.001s6.5 40.834 8.5 54.501s5.16699 29.834 9.5 48.501
s8.83301 35.334 13.5 50.001c13.333 38.667 31.333 85.334 54 140.001c4 -12 8.66699 -23.667 14 -35c13.333 -26 30.666 -48.167 51.999 -66.5s44.333 -30.166 69 -35.499c42.667 -9.33301 86 7.33398 130 50.001c37.333 36 64.333 78.333 81 127
c15.333 37.333 18.833 80 10.5 128s-27.5 85.333 -57.5 112c-15.333 14 -35.666 21.667 -60.999 23h-8zM301.998 390.993c12 0 24.165 -2.66699 36.498 -8s21.833 -12 28.5 -20c24 -27.333 40 -62 48 -104s6.33301 -80.667 -5 -116
c-7.33301 -24.667 -19 -46.334 -35 -65.001c-18 -20 -36 -29.333 -54 -28c-40 4.66699 -74.667 31.334 -104 80.001c-27.333 46 -39.666 92.333 -36.999 139c0.666992 12 5 25.5 13 40.5s17.667 28.5 29 40.5c15.333 14 28.833 24.333 40.5 31s24.834 10 39.501 10z" />
    <glyph glyph-name="q" unicode="q" 
d="M352 438c-20 0 -38.333 -2.66699 -55 -8c-33.333 -11.333 -64.666 -29.666 -93.999 -54.999c-28.667 -25.333 -52.667 -59 -72 -101c-16.667 -39.333 -24 -77.5 -22 -114.5s12.833 -70.167 32.5 -99.5s44.834 -49 75.501 -59c46 -16 95.333 -2 148 42
c13.333 11.333 26.666 24.333 39.999 39c-6.66699 -14 -14.667 -29.667 -24 -47c-4 -0.666992 -7.33301 -2 -10 -4c-6 -4 -9 -11 -9 -21c0 -2 0.333008 -4 1 -6l-33.5 -55c-15 -24.667 -24.167 -39.334 -27.5 -44.001c-36 -60 -64 -114.167 -84 -162.5
s-29.333 -96.5 -28 -144.5c0.666992 -20 4 -37.667 10 -53c8.66699 -22 21.667 -34 39 -36c48 -6.66699 92.667 18 134 74c30.667 40.667 56.334 92 77.001 154c16.667 51.333 24 100.666 22 147.999c-2.66699 46 -14.334 83.333 -35.001 112c20 6.66699 38 20 54 40
c24.667 30 50.667 83.333 78 160c1.33301 2 1.33301 4.33301 0 7s-3.16602 4.5 -5.49902 5.5s-4.83301 0.833008 -7.5 -0.5s-4.33398 -3.33301 -5.00098 -6h-1c-25.333 -69.333 -54.666 -121.666 -87.999 -156.999c-14 -14.667 -27.667 -25 -41 -31
c0 0.666992 -0.333008 1.16699 -1 1.5s-1.33398 0.833008 -2.00098 1.5c-3.33301 2.66699 -7 5.33398 -11 8.00098c25.333 56 44.666 103.333 57.999 142l4 8c17.333 34.667 26.333 72 27 112c0.666992 45.333 -10.333 81.333 -33 108c-18 21.333 -44 34.666 -78 39.999
c-10.667 1.33301 -21.667 2 -33 2zM307 392c18.667 0 37.5 -4.33398 56.5 -13.001s33.5 -20.334 43.5 -35.001c18 -25.333 27 -57.666 27 -96.999s-7.66699 -73.666 -23 -102.999c-14 -28 -32.667 -51.667 -56 -71c-26 -20.667 -50.333 -28.334 -73 -23.001
c-35.333 9.33301 -63 38 -83 86c-18.667 44 -25 88.333 -19 133c3.33301 24.667 18 51.334 44 80.001c14 16 26.667 27 38 33s26.333 9.33301 45 10zM390 -9.00098c4.66699 -4 8.33496 -8.00098 11.002 -12.001c5.33301 -6 8.66602 -10.333 9.99902 -13
c18 -40 27.167 -83.833 27.5 -131.5s-8.83398 -91.167 -27.501 -130.5c-18.667 -36.667 -40.667 -67 -66 -91c-14.667 -13.333 -28.667 -22.333 -42 -27c-14 -4.66699 -27 -4 -39 2c-8.66699 4 -14.334 11 -17.001 21c-3.33301 8.66699 -4 20.334 -2 35.001
c2 18.667 10 49 24 91c4.66699 13.333 12.834 32.333 24.501 57l47.5 97c20 40 35.667 72.667 47 98c0.666992 0 1.16699 0.5 1.5 1.5s0.5 1.83301 0.5 2.5z" />
    <glyph glyph-name="r" unicode="r" horiz-adv-x="360" 
d="M215 663c-22 -1.33301 -44.3369 -11.6699 -67.0039 -31.0029c-32.667 -27.333 -47 -55.666 -43 -84.999c5.33301 -39.333 20 -65.666 44 -78.999c13.333 -7.33301 31.333 -14 54 -20c-6 -22.667 -11.333 -40.5 -16 -53.5l-17 -46.5
c-6.66699 -18 -17.5 -44.833 -32.5 -80.5l-26.5 -63.5c-1.33301 -2.66699 -1.33301 -5.33398 0 -8.00098s3.33301 -4.66699 6 -6c5.33301 -2 9 -1 11 3c0.666992 1.33301 1 2.33301 1 3c0.666992 0.666992 14.834 31.167 42.501 91.5s47.834 111.5 60.501 153.5
c38.667 -8.66699 65.334 -16 80.001 -22c26.667 -11.333 43 -25.666 49 -42.999c14.667 -42 7.66699 -96.333 -21 -163c-10.667 -24.667 -27.334 -57.167 -50.001 -97.5s-35.667 -64.166 -39 -71.499c-16 -31.333 -21.667 -59.666 -17 -84.999
c4.66699 -26.667 19.334 -43 44.001 -49c29.333 -6.66699 58.666 5.33301 87.999 36c22 22.667 43.667 56 65 100c30 63.333 49.667 113.666 59 150.999c0.666992 2.66699 0.333984 5.16699 -0.999023 7.5s-3.33301 3.83301 -6 4.5s-5.16699 0.5 -7.5 -0.5
s-4.16602 -2.83301 -5.49902 -5.5c-14 -44.667 -31.667 -88 -53 -130c-19.333 -36.667 -38 -64 -56 -82c-20.667 -20 -40 -27 -58 -21c-6.66699 2 -11.334 7.66699 -14.001 17c-2 9.33301 -2 22 0 38c3.33301 25.333 10 49 20 71
c4.66699 10.667 16.334 33.834 35.001 69.501s32.334 64.167 41.001 85.5c28 69.333 32.667 127 14 173c-8.66699 22 -27.334 39.333 -56.001 52c-3.33301 1.33301 -30 9.66602 -80 24.999c-6.66699 2 -12.667 3.66699 -18 5c6.66699 26.667 11.667 51 15 73
c2.66699 18 3.33398 32.333 2.00098 43c-0.666992 8.66699 -2.66699 16 -6 22c-4 8 -10 13 -18 15c-8.66699 2.66699 -16.334 4 -23.001 4zM191.996 619.996l2 0.000976562c8.66699 -1.33301 15.667 -8 21 -20c5.33301 -13.333 7 -28 5 -44
c-1.33301 -12 -3.33301 -25.333 -6 -40c-10 3.33301 -18 6.66602 -24 9.99902c-20 11.333 -31.667 25.666 -35 42.999c-2 10.667 1.66699 22.334 11 35.001c8 10 16.333 15.333 25 16h1z" />
    <glyph glyph-name="s" unicode="s" horiz-adv-x="360" 
d="M201 516c-10 0 -18.335 -4.00098 -25.002 -12.001c-5.33301 -5.33301 -9.33301 -13 -12 -23c-4.66699 -12.667 -7.66699 -30 -9 -52s1 -45 7 -69c-0.666992 -3.33301 -2.33398 -9 -5.00098 -17c-18.667 -60.667 -34 -107 -46 -139l18 -8c14 36 28.333 79 43 129
c8.66699 -22.667 25.334 -58 50.001 -106c14.667 -28 25.834 -50.5 33.501 -67.5s14.334 -37.667 20.001 -62s7.16699 -47.166 4.5 -68.499c0 -0.666992 -0.666992 -4 -2 -10c-12 0 -37 1.33301 -75 4c-39.333 2.66699 -69 2 -89 -2
c-30.667 -7.33301 -51.667 -23.666 -63 -48.999c-10 -22.667 -9.66699 -44.667 1 -66c12 -24 34 -40 66 -48c41.333 -10 86.333 7.33301 135 52c16 14.667 31 31.667 45 51c17.333 2.66699 32.333 7.66699 45 15c36 22 63.5 49.5 82.5 82.5s40.167 81.5 63.5 145.5v1
c1.33301 2 1.33301 4.33301 0 7s-3.16602 4.5 -5.49902 5.5s-4.83301 0.833008 -7.5 -0.5s-4.33398 -3 -5.00098 -5v-1h-1c-30 -74 -45.333 -111.667 -46 -113c-11.333 -22 -28.333 -41.333 -51 -58c-10.667 -8 -24.334 -13.667 -41.001 -17c3.33301 8.66699 6 16 8 22
c8.66699 35.333 6.83398 69.666 -5.49902 102.999s-32.5 72.333 -60.5 117l-9.5 14.5c-5 7.66699 -8.16699 12.667 -9.5 15s-4.33301 7.16602 -9 14.499s-7.66699 12.333 -9 15s-4 7.33398 -8 14.001s-6.83301 11.667 -8.5 15l-7 14l-7.5 15c-2 4 -4 8.66699 -6 14
s-3.66699 10.333 -5 15c7.33301 26 12.333 46 15 60c2.66699 12.667 4 22.667 4 30c0 4.66699 -0.333008 8.66699 -1 12c-1.33301 5.33301 -4.33301 9 -9 11h-3zM124.998 -39.001l4 -0.000976562c11.333 0 29.666 -1.66699 54.999 -5
c35.333 -3.33301 60.666 -5.33301 75.999 -6c-1.33301 -2.66699 -2.33301 -4.33398 -3 -5.00098c-13.333 -25.333 -29.666 -40.333 -48.999 -45c-33.333 -8.66699 -65.666 -4 -96.999 14c-11.333 6.66699 -20.333 14 -27 22c-2 2.66699 -3.66699 5.33398 -5 8.00098v2
c2 4 5.66699 7.33301 11 10c6 2.66699 13.667 4.33398 23 5.00098h12z" />
    <glyph glyph-name="t" unicode="t" horiz-adv-x="240" 
d="M253 843l-4.00488 -0.00195312c-27.333 -0.666992 -52.666 -12.667 -75.999 -36c-3.33301 -3.33301 -4.16602 -7 -2.49902 -11s4.83398 -6 9.50098 -6c16 0 29 -0.666992 39 -2c16 -2.66699 27.333 -7.66699 34 -15c21.333 -22.667 29.666 -67.334 24.999 -134.001
c-1.33301 -26 -6 -54.333 -14 -85c-37.333 -18.667 -74 -40.667 -110 -66c-2 -1.33301 -3.33301 -3.33301 -4 -6s-0.166992 -5.16699 1.5 -7.5s3.83398 -3.83301 6.50098 -4.5s5 0 7 2h1c28.667 18.667 58.334 35.334 89.001 50.001c-17.333 -55.333 -44 -117.333 -80 -186
c-20.667 -39.333 -36.334 -70.166 -47.001 -92.499s-23.667 -52.333 -39 -90s-26.166 -73.334 -32.499 -107.001s-8.5 -66.5 -6.5 -98.5c4.66699 -82.667 27.334 -132 68.001 -148c20.667 -8 47 3 79 33c14.667 13.333 28.667 29.833 42 49.5s25.5 41.667 36.5 66l27 61.5
c7 16.667 14.667 36.834 23 60.501s13.166 36.5 14.499 38.5c12 32 22 61.333 30 88v0c0.666992 2.66699 0.333984 5.33398 -0.999023 8.00098s-3.33301 4.33398 -6 5.00098s-5.16699 0.333984 -7.5 -0.999023s-4.16602 -3.33301 -5.49902 -6
c-7.33301 -22.667 -16.333 -47.334 -27 -74.001c-0.666992 -2 -6.5 -16.833 -17.5 -44.5s-20.5 -50.667 -28.5 -69s-16.333 -34.5 -25 -48.5c-13.333 -24.667 -22.5 -40.834 -27.5 -48.501s-12 -16 -21 -25s-19.833 -16.833 -32.5 -23.5c-10 -5.33301 -19.333 -4.5 -28 2.5
s-16 17.833 -22 32.5s-10.667 29.5 -14 44.5s-5.66602 29.167 -6.99902 42.5c-2.66699 22.667 -2.33398 46 0.999023 70s10.166 49.5 20.499 76.5s19.166 48.833 26.499 65.5s19 40.667 35 72s26 51.333 30 60c4.66699 8.66699 15 29 31 61s29.167 59.333 39.5 82
s19.833 45 28.5 67c107.333 41.333 202 52.333 284 33c44.667 -10.667 83.334 -13 116.001 -7c37.333 8 71.333 27.667 102 59l8 8c0 0.666992 0.333008 1.16699 1 1.5l1 0.5c2.66699 4 3.33398 7.66699 2.00098 11c-2 4 -5.33301 6 -10 6c-2.66699 0 -5 -1 -7 -3
c-2.66699 -3.33301 -6 -7 -10 -11c-16.667 -15.333 -37.667 -23.333 -63 -24c-7.33301 0 -15.833 0.5 -25.5 1.5s-20.334 2.5 -32.001 4.5s-20.834 3.66699 -27.501 5c-107.333 12.667 -216.666 -4 -327.999 -50c13.333 43.333 20.666 83.666 21.999 120.999
c0.666992 28.667 -0.666016 51.667 -3.99902 69c-6 28.667 -17.833 47.834 -35.5 57.501s-35.167 14.5 -52.5 14.5z" />
    <glyph glyph-name="u" unicode="u" 
d="M270 440c-6 0 -12.668 -2.66504 -20.001 -7.99805c-6 -4 -13 -9.66699 -21 -17c-14.667 -14.667 -30 -33.667 -46 -57c-38.667 -54.667 -63 -103.334 -73 -146.001c-9.33301 -42 -13 -78.333 -11 -109c2.66699 -44.667 18 -75 46 -91c32 -18.667 71.667 -17 119 5
c34.667 16.667 69 42 103 76l7 7c0 -9.33301 1 -18 3 -26c6 -30 19.333 -48 40 -54c20 -5.33301 39.667 -0.333008 59 15c14.667 12 29 30 43 54c11.333 19.333 23 43 35 71v0l15 36c1.33301 2.66699 1.66602 5 0.999023 7c-1.33301 2.66699 -3 4.66699 -5 6
c-3.33301 2 -7 1.66699 -11 -1c-1.33301 -0.666992 -2.33301 -2 -3 -4c-1.33301 -2.66699 -3.66602 -8.16699 -6.99902 -16.5l-8 -19.5c-8 -18 -15.333 -32.667 -22 -44c-9.33301 -15.333 -18.666 -26.666 -27.999 -33.999c-10 -8 -19.667 -11.333 -29 -10
c-12.667 2 -22.667 9.66699 -30 23c-6.66699 12 -10.334 28 -11.001 48c36.667 50.667 64 104 82 160c4.66699 15.333 8 29 10 41c2 13.333 2 23.333 0 30c-1.33301 5.33301 -3.66602 9.33301 -6.99902 12c-4 3.33301 -9 4 -15 2c-6.66699 -2 -14.667 -8.66699 -24 -20
c-20.667 -27.333 -38.334 -59.666 -53.001 -96.999s-25 -74.333 -31 -111c0 -1.33301 -0.166992 -3.33301 -0.5 -6s-0.833008 -4.33398 -1.5 -5.00098c-25.333 -35.333 -46 -58.333 -62 -69c-18.667 -12.667 -38.667 -21 -60 -25c-24 -4.66699 -43.667 -2.66699 -59 6
s-27 24 -35 46c-6.66699 19.333 -10 41 -10 65c0.666992 49.333 23.334 100.666 68.001 153.999c24.667 30 52.667 48.667 84 56c5.33301 1.33301 8 4.66602 8 9.99902c0 10.667 -3.33301 19.667 -10 27c-7.33301 8.66699 -17.333 13 -30 13zM471.999 318.002
c-7.33301 -16 -16 -33.333 -26 -52l-14 -25c8.66699 26 20.667 50.333 36 73z" />
    <glyph glyph-name="v" unicode="v" 
d="M233 441l-1.00098 -0.00585938c-4 -0.666992 -7.66699 -1.66699 -11 -3c-6 -3.33301 -12 -8.33301 -18 -15c-10 -11.333 -20.667 -29.333 -32 -54c-13.333 -29.333 -33.333 -84.666 -60 -165.999h-1c-0.666992 -2.66699 -0.333984 -5.16699 0.999023 -7.5
s3.33301 -4 6 -5s5.16699 -0.833008 7.5 0.5s3.83301 3.33301 4.5 6h1c30.667 84 56.667 139.667 78 167c4 4.66699 7.33301 7.66699 10 9c0.666992 0.666992 1.33398 0.666992 2.00098 0c3.33301 -1.33301 6.66602 -8.33301 9.99902 -21
c6.66699 -23.333 10 -57.333 10 -102s-4 -87.834 -12 -129.501s-20.667 -94.167 -38 -157.5c-2.66699 -12 -1.66699 -20.667 3 -26c2.66699 -3.33301 6.66699 -5.33301 12 -6c3.33301 0 7 0.666992 11 2c12.667 3.33301 31 14.333 55 33
c44.667 34.667 83.667 70.667 117 108l24 28c15.333 -15.333 31.333 -22.666 48 -21.999c24.667 0.666992 48.334 16 71.001 46l13 20c8 12.667 16.333 29.334 25 50.001c3.33301 6.66699 2 11.334 -4 14.001c-3.33301 1.33301 -6 1.5 -8 0.5s-3.66699 -2.5 -5 -4.5l-1 -2
c-8 -18 -16 -34 -24 -48l-2 -3c-0.666992 -0.666992 -1.16699 -1.33398 -1.5 -2.00098l-0.5 -1c-12.667 -17.333 -26 -27.333 -40 -30c-7.33301 -1.33301 -15.666 0.333984 -24.999 5.00098c-6.66699 4 -12 9 -16 15c55.333 75.333 83 145.333 83 210
c0 18 -2.66699 34.333 -8 49c-4 9.33301 -8.66699 16.666 -14 21.999c-6.66699 6.66699 -14.667 9.66699 -24 9c-24.667 -1.33301 -45.334 -12.666 -62.001 -33.999c-14.667 -18 -26 -42 -34 -72c-14 -56.667 -15 -112 -3 -166c2 -9.33301 5.66699 -18.666 11 -27.999
c-16 -18.667 -35.333 -39.667 -58 -63c-19.333 -19.333 -40 -36.666 -62 -51.999c-7.33301 -5.33301 -14 -9.66602 -20 -12.999c2 12.667 6.66699 33.834 14 63.501s13 55 17 76s8.16699 45.667 12.5 74s6 55.666 5 81.999s-4.16699 51.166 -9.5 74.499
c-4.66699 18.667 -8.66699 31.334 -12 38.001c-7.33301 14.667 -19 24.667 -35 30c-3.33301 0.666992 -6.66602 1 -9.99902 1zM453.999 369.994c2 0 4 -0.667969 6 -2.00098c2.66699 -3.33301 5.33398 -8.33301 8.00098 -15
c5.33301 -13.333 7.66602 -27.666 6.99902 -42.999c-1.33301 -42 -18 -86.667 -50 -134c-12.667 35.333 -19 70.333 -19 105c0 24.667 3.66699 45 11 61c8 16 19.667 25.333 35 28h2z" />
    <glyph glyph-name="w" unicode="w" horiz-adv-x="520" 
d="M265 440l-4.00098 -0.00488281c-13.333 -1.33301 -29 -8.66602 -47 -21.999c-39.333 -29.333 -70.666 -81 -93.999 -155c-8.66699 -28.667 -15.334 -53.667 -20.001 -75s-7 -46.166 -7 -74.499s4.33301 -53.833 13 -76.5c8.66699 -23.333 20.334 -42.666 35.001 -57.999
c18.667 -21.333 38.667 -31 60 -29c24.667 2.66699 49.334 17.667 74.001 45c7.33301 8 15.333 18.333 24 31c4.66699 4.66699 8.33398 9 11.001 13c8.66699 10.667 17 23 25 37c4 -28 17 -49.333 39 -64c20 -13.333 44.333 -12.333 73 3c21.333 11.333 41.333 27.333 60 48
c5.33301 6 10.666 12.333 15.999 19c6 -1.33301 11.667 -2 17 -2c24.667 0.666992 48.334 16 71.001 46c5.33301 7.33301 10.666 15.666 15.999 24.999l7 12v1c4.66699 9.33301 9.66699 20 15 32c1.33301 2.66699 1.5 5.16699 0.5 7.5s-2.83301 4.16602 -5.5 5.49902
s-5.16699 1.5 -7.5 0.5s-4.16602 -2.83301 -5.49902 -5.5c-4.66699 -11.333 -9.66699 -21.666 -15 -30.999c-0.666992 -2 -2.66699 -5.66699 -6 -11c-2.66699 -4.66699 -5 -8.33398 -7 -11.001c-12.667 -17.333 -26 -27.666 -40 -30.999
c-3.33301 -0.666992 -7.33301 -0.333984 -12 0.999023c27.333 42.667 46 86.834 56 132.501s9.33301 92.167 -2 139.5c-3.33301 10 -9 18.667 -17 26c-8 8.66699 -16.667 12.334 -26 11.001h-5c-44.667 -12 -75.667 -49.667 -93 -113c-14.667 -54 -16 -107 -4 -159
c4.66699 -19.333 14 -36.666 28 -51.999c3.33301 -4 7.33301 -7.66699 12 -11c-16.667 -20.667 -35 -36 -55 -46c-6.66699 -3.33301 -14.834 -3.66602 -24.501 -0.999023s-17.167 7 -22.5 13c-16.667 20.667 -24.667 50.334 -24 89.001c0.666992 4 1 8 1 12
c10.667 27.333 19 52.333 25 75v1c3.33301 11.333 1.66602 19.333 -5.00098 24c-4.66699 3.33301 -9.66699 4 -15 2c-3.33301 -1.33301 -6 -4 -8 -8c-0.666992 -0.666992 -1 -1.33398 -1 -2.00098s-0.333008 -1 -1 -1c-16.667 -56.667 -26.334 -91 -29.001 -103
c-9.33301 -22 -18.666 -42.667 -27.999 -62c-9.33301 -17.333 -19.333 -34 -30 -50c-15.333 -16 -30.333 -25.333 -45 -28c-12.667 -2.66699 -26 2 -40 14c-13.333 10.667 -24.666 24.667 -33.999 42c-13.333 23.333 -21 51 -23 83s1 61.333 9 88
c10.667 40.667 22.667 73 36 97c18.667 32.667 40.667 51.334 66 56.001c5.33301 1.33301 9.66602 1 12.999 -1c3.33301 -1.33301 5 -4.33301 5 -9c0 -6 2.83301 -9.33301 8.5 -10s9.5 1.66602 11.5 6.99902c5.33301 16 6.66602 29 3.99902 39c-2 12 -8.33301 19.333 -19 22
c-3.33301 1.33301 -6.66602 2 -9.99902 2zM534.999 370.995l2.00098 0.00292969c2 -0.666992 4.33301 -2.33398 7 -5.00098c6 -6 9.66699 -12 11 -18c14 -54 10.667 -110.667 -10 -170c-4.66699 -14.667 -10.334 -28.334 -17.001 -41.001c-24 38.667 -36.667 82.667 -38 132
c-0.666992 25.333 2.33301 46.666 9 63.999c8 19.333 19.667 32 35 38h1z" />
    <glyph glyph-name="x" unicode="x" horiz-adv-x="480" 
d="M531 469l-4.00195 -0.00488281h-8c-25.333 -4 -49.333 -16.333 -72 -37c-22 -20.667 -40.167 -41.834 -54.5 -63.501s-29.166 -49.167 -44.499 -82.5c-7.33301 40 -21 70.333 -41 91c-8 8.66699 -17.667 15.334 -29 20.001c-9.33301 4 -18.333 5.33301 -27 4
c-3.33301 0 -6.33301 -0.333008 -9 -1c-33.333 -11.333 -62.666 -41.666 -87.999 -90.999c-2 -4.66699 -4.66699 -9.66699 -8 -15c0 -0.666992 -0.166992 -1.16699 -0.5 -1.5s-0.5 -0.833008 -0.5 -1.5c-6 -12 -13.167 -29.5 -21.5 -52.5l-12.5 -34.5
c-1.33301 -2.66699 -1.33301 -5 0 -7c0.666992 -2.66699 2.33398 -4.66699 5.00098 -6c3.33301 -1.33301 6.33301 -1 9 1c2 0.666992 3.33301 2 4 4c1.33301 2 4 9 8 21c11.333 30.667 20.666 53.334 27.999 68.001c15.333 30 33 48.667 53 56c6.66699 2 14.334 1 23.001 -3
c8 -3.33301 15.333 -8.33301 22 -15c9.33301 -10 16.666 -22.833 21.999 -38.5s8.83301 -29.834 10.5 -42.501s3.16699 -30 4.5 -52c0.666992 -1.33301 1 -2.83301 1 -4.5v-3.5c-24 -53.333 -45 -92.666 -63 -117.999c-33.333 -48 -69.333 -72.667 -108 -74
c-6.66699 0 -13.334 3.16699 -20.001 9.5s-10 13.166 -10 20.499c0 4.66699 -2.33301 7.83398 -7 9.50098s-8.33398 0.5 -11.001 -3.5c-12 -18 -11.667 -38.333 1 -61c11.333 -22 26.666 -33.667 45.999 -35c28 -2 53.333 6.66699 76 26c18 15.333 35.333 38.666 52 69.999
c10.667 20.667 26.667 58 48 112c5.33301 -41.333 18 -73 38 -95c14 -16 31 -28.333 51 -37s39.667 -10.667 59 -6c60.667 16.667 106.667 64 138 142v0c2.66699 7.33301 5.66699 15 9 23c0.666992 2 1.33398 4.66699 2.00098 8l7 23l0.5 0.5l0.5 0.5
c0.666992 2.66699 0.333984 5.33398 -0.999023 8.00098s-3.33301 4.33398 -6 5.00098s-5.16699 0.333984 -7.5 -0.999023s-4.16602 -3.33301 -5.49902 -6c-2 -8 -4.33301 -16.333 -7 -25l-0.5 -2c-0.333008 -1.33301 -0.833008 -2.33301 -1.5 -3
c-9.33301 -27.333 -19.333 -49 -30 -65c-16.667 -24.667 -38 -40.667 -64 -48c-13.333 -4 -29 -2 -47 6c-16 6.66699 -30.333 17 -43 31c-9.33301 10 -17 23 -23 39s-10 30.333 -12 43s-4.33301 30 -7 52c0 3.33301 -0.333008 8.33301 -1 15
c30 58.667 56.667 100.667 80 126c12 13.333 23.833 23.333 35.5 30s26.167 12.667 43.5 18c31.333 10.667 71 12.334 119 5.00098c2.66699 -0.666992 5 -0.333984 7 0.999023s3.33301 3.33301 4 6s0.5 5.16699 -0.5 7.5s-2.83301 3.83301 -5.5 4.5
c-12.667 4.66699 -27 9.33398 -43 14.001c-26 7.33301 -47 11 -63 11z" />
    <glyph glyph-name="y" unicode="y" 
d="M537 451l-0.998047 -0.00195312c-3.33301 -0.666992 -6 -2 -8 -4c-2.66699 -3.33301 -5.33398 -8 -8.00098 -14c-12 -26.667 -26.667 -83.334 -44 -170.001c-1.33301 -7.33301 -3.33301 -17 -6 -29c-12.667 -31.333 -25.667 -61.333 -39 -90
c-12.667 -26.667 -31.334 -50.667 -56.001 -72c-12.667 -10.667 -25 -18.334 -37 -23.001c-12.667 -4 -24 -4 -34 0c-12 5.33301 -21.667 15.333 -29 30c-6.66699 14 -11.334 32 -14.001 54c-4 34.667 -3 83.334 3 146.001c8 76 12 118.333 12 127c0 18 -2.66699 30 -8 36
c-4.66699 5.33301 -10.667 7 -18 5c-4.66699 -0.666992 -10.334 -3.66699 -17.001 -9c-24.667 -22 -47 -56.667 -67 -104c-16.667 -30.667 -35 -74.334 -55 -131.001c-1.33301 -2 -1.33301 -4.33301 0 -7s3.16602 -4.5 5.49902 -5.5s4.66602 -1 6.99902 0
s4.16602 2.83301 5.49902 5.5v1c9.33301 19.333 20 43.833 32 73.5s20 48.834 24 57.501c8.66699 16.667 16.334 28.334 23.001 35.001c4.66699 6 7.33398 9 8.00098 9c1.33301 -1.33301 2.33301 -7 3 -17c0.666992 -9.33301 -0.666016 -49.666 -3.99902 -120.999
c-3.33301 -64 -2.33301 -113.333 3 -148c4 -24.667 10.333 -44.667 19 -60c10 -18 23.333 -29.667 40 -35c20.667 -6.66699 41.334 -5 62.001 5c16.667 8.66699 33.667 23 51 43c8.66699 10 18 22.333 28 37v-0.5c0 -0.333008 -0.333008 -0.833008 -1 -1.5
c-22 -51.333 -45.667 -98.333 -71 -141c-80 -131.333 -169.333 -211 -268 -239c-34.667 -10 -72.667 -6 -114 12c-27.333 12 -65.666 36 -114.999 72c-2.66699 2.66699 -7 6.33398 -13 11.001l-57.5 41c-13.667 9.33301 -31.5 20.166 -53.5 32.499s-43 20.833 -63 25.5
s-40.333 6.33398 -61 5.00098c-28.667 -2 -66 -19.667 -112 -53c-26.667 -20 -46.334 -36 -59.001 -48c-2 -2.66699 -3 -5 -3 -7c0 -2.66699 0.833008 -5 2.5 -7s4 -3.16699 7 -3.5s5.5 0.5 7.5 2.5c16 14 28.333 24.333 37 31c26.667 20 48 30.667 64 32
c16.667 2 34.334 0.833008 53.001 -3.5s34.667 -9 48 -14s31.5 -14.333 54.5 -28s38.833 -23.5 47.5 -29.5l52 -36c54.667 -38 97.667 -63.333 129 -76c49.333 -20.667 95 -24.334 137 -11.001c108 33.333 205.333 122.666 292 267.999c28.667 47.333 54.667 99.333 78 156
c12.667 30.667 24.334 61.667 35.001 93c24.667 39.333 44 83.833 58 133.5s21.667 90.834 23 123.501v17c-0.666992 6.66699 -2.33398 11.334 -5.00098 14.001c-4 2.66699 -7.33301 4 -10 4z" />
    <glyph glyph-name="z" unicode="z" horiz-adv-x="320" 
d="M126 531c-4.66699 0 -8.99902 -1.33887 -12.999 -4.00586c-5.33301 -2.66699 -10 -7 -14 -13c-9.33301 -13.333 -12.333 -25.666 -9 -36.999c8 -25.333 28.333 -42.666 61 -51.999c3.33301 -0.666992 7 -1.33398 11 -2.00098c1.33301 -18.667 -0.333984 -40 -5.00098 -64
c-4.66699 -25.333 -12.334 -54.666 -23.001 -87.999c-2 -6 -5.33301 -15 -10 -27c0 -1.33301 -0.5 -3.16602 -1.5 -5.49902s-1.5 -4.16602 -1.5 -5.49902v-1l-10.5 -29c-1 -2.66699 -0.833008 -5.16699 0.5 -7.5s3.33301 -4 6 -5s5.16699 -0.833008 7.5 0.5
s4.16602 3.33301 5.49902 6c0.666992 2.66699 3.66699 12 9 28l1 1l13 38c12.667 39.333 21.667 73.666 27 102.999c3.33301 19.333 5.33301 36.666 6 51.999c14 -1.33301 34 -2.66602 60 -3.99902c42.667 -1.33301 72.334 -4.33301 89.001 -9
c25.333 -7.33301 40.333 -20 45 -38c7.33301 -28.667 -1.33398 -63.667 -26.001 -105c-21.333 -36 -52.333 -73 -93 -111c-18 -17.333 -37.333 -34 -58 -50c-11.333 -2 -22.333 -4.33301 -33 -7c-16.667 -4.66699 -30 -10.334 -40 -17.001c-13.333 -8.66699 -20 -18 -20 -28
c-1.33301 -5.33301 -1 -10 1 -14c2.66699 -6 7.66699 -9.33301 15 -10c4.66699 -0.666992 10.334 0 17.001 2c11.333 4 25.666 11.333 42.999 22l34 25c11.333 0 20 -1.33301 26 -4c27.333 -12 49 -36.667 65 -74c14 -34 20.333 -69.667 19 -107
c-2 -41.333 -12.667 -80.333 -32 -117c-21.333 -40 -48.333 -66.333 -81 -79c-44 -17.333 -94 -17 -150 1c-37.333 12.667 -89.333 39 -156 79l-20 12c-33.333 20.667 -59.333 36 -78 46s-42.667 21.667 -72 35s-57 22 -83 26s-52 4 -78 0s-59 -22.333 -99 -55
c-19.333 -15.333 -36.333 -30.666 -51 -45.999v-1c-2 -1.33301 -3 -3.5 -3 -6.5s1 -5.5 3 -7.5s4.33301 -3 7 -3s5 1 7 3c10.667 10 23 20 37 30c26.667 20 48 31 64 33c23.333 2.66699 47 2 71 -2s50 -12.333 78 -25s51 -24 69 -34l76 -44
c5.33301 -3.33301 9.33301 -5.66602 12 -6.99902c25.333 -15.333 46.166 -27.5 62.499 -36.5s36.5 -18.833 60.5 -29.5s45.5 -18.167 64.5 -22.5s39.667 -6.66602 62 -6.99902s44.166 2.83398 65.499 9.50098c63.333 20 118.333 60 165 120c49.333 62 72.333 124.667 69 188
c-1.33301 33.333 -16.666 64.666 -45.999 93.999c-26.667 27.333 -57 46 -91 56l-10 2l45 41c43.333 44 76.333 87 99 129c26.667 50.667 34.334 94.334 23.001 131.001c-8.66699 25.333 -31 43.666 -67 54.999c-24.667 7.33301 -59 12 -103 14
c-9.33301 0 -22.666 0.166992 -39.999 0.5s-26.666 0.5 -27.999 0.5c-8 29.333 -24.333 48 -49 56c-2 0.666992 -3.66699 1.33398 -5 2.00098h-2zM125.001 490.994l1.00098 -0.000976562c6.66699 -1.33301 13.334 -6.66602 20.001 -15.999l-7 1
c-4.66699 0.666992 -8.83398 1.5 -12.501 2.5s-5.83398 1.83301 -6.50098 2.5c-0.666992 2 -0.5 4.16699 0.5 6.5s2.5 3.5 4.5 3.5z" />
    <glyph glyph-name="braceleft" unicode="{" horiz-adv-x="320" 
d="M480 610c-22 0 -46.665 -6.00391 -73.998 -18.0039s-51.333 -26.667 -72 -44c-20 -16.667 -40.333 -46.5 -61 -89.5s-38.334 -71.833 -53.001 -86.5c-8 -8 -18 -15.333 -30 -22c-2 -1.33301 -5.66699 -3.5 -11 -6.5l-16.5 -9c-5.66699 -3 -11.5 -6.5 -17.5 -10.5
c-2 -1.33301 -3.33301 -3.16602 -4 -5.49902s-0.666992 -4.5 0 -6.5c16 -36.667 23.667 -74.334 23 -113.001c0 -4 -0.333008 -8.33301 -1 -13s-1.33398 -8.83398 -2.00098 -12.501s-2 -8.16699 -4 -13.5s-3.33301 -9.5 -4 -12.5s-2.33398 -7.66699 -5.00098 -14
s-4.33398 -10.666 -5.00098 -12.999s-2.66699 -7.16602 -6 -14.499s-5.33301 -11.666 -6 -12.999c-20 -48 -27 -86.333 -21 -115c7.33301 -36.667 22.5 -71.167 45.5 -103.5s50.167 -53.833 81.5 -64.5c4 -1.33301 7.5 -0.166016 10.5 3.50098s3.5 7.5 1.5 11.5
c-20 34.667 -34.333 64.834 -43 90.501s-14 54.167 -16 85.5c-1.33301 22 6.33398 57 23.001 105c16.667 48.667 23 86.667 19 114c-4.66699 28.667 -19.667 57.334 -45 86.001c48.667 20 85.667 43.333 111 70c15.333 15.333 31 42.666 47 81.999
c14.667 36.667 28.667 61.667 42 75c28.667 29.333 60.334 48.333 95.001 57c6 1.33301 8.66699 5 8 11s-4 9 -10 9z" />
    <glyph glyph-name="bar" unicode="|" horiz-adv-x="320" 
d="M415 606c-11.333 0 -21.9951 -1.66504 -31.9951 -4.99805c-12.667 -4 -21.334 -9.66699 -26.001 -17c-12.667 -19.333 -33 -68 -61 -146c-24 -64.667 -51.667 -145.334 -83 -242.001l-76 -236c-22 -72 -34.333 -114.667 -37 -128
c-0.666992 -3.33301 0 -6.16602 2 -8.49902s4.66699 -3.5 8 -3.5c4 0 9.66699 -0.333008 17 -1s13.666 -0.833984 18.999 -0.500977s10.666 0.833008 15.999 1.5c3.33301 0.666992 5.66602 2.66699 6.99902 6c8 18 24.333 65.333 49 142
c41.333 129.333 66 205.666 74 228.999c31.333 96 58.666 173.333 81.999 232c30 74 54.667 122.333 74 145c4 4.66699 5.33301 9.66699 4 15c-0.666992 4.66699 -3.66699 8.66699 -9 12c-6.66699 3.33301 -16 5 -28 5z" />
    <glyph glyph-name="braceright" unicode="}" horiz-adv-x="320" 
d="M280 610c-4 0 -6.99902 -1.66406 -8.99902 -4.99707s-2 -6.66602 0 -9.99902s10.333 -16.333 25 -39c6.66699 -10.667 11.334 -20.667 14.001 -30c4.66699 -17.333 4 -47.666 -2 -90.999c-6.66699 -43.333 -5.66699 -76 3 -98c2.66699 -8.66699 7.66699 -17.667 15 -27
s12.666 -15.5 15.999 -18.5l21 -19.5c-36 -18 -61 -37.667 -75 -59c-10 -14.667 -17.333 -31.5 -22 -50.5s-8.16699 -39.833 -10.5 -62.5s-5.16602 -39.667 -8.49902 -51c-12 -48.667 -50 -102.667 -114 -162c-32.667 -30.667 -64.334 -49.667 -95.001 -57
c-6 -1.33301 -8.66699 -5 -8 -11s4 -9 10 -9c21.333 0 49 8.66699 83 26c32 16.667 60 35.667 84 57c2 1.33301 7.16699 5.66602 15.5 12.999l16.5 14.5c2.66699 2.33301 7.66699 7.16602 15 14.499s12.5 12.666 15.5 15.999s7.5 8.66602 13.5 15.999s10.5 13.5 13.5 18.5
s6.5 11.333 10.5 19s7 15 9 22s4 14.667 6 23s3.33301 17.166 4 26.499c4 56.667 13 98.667 27 126c8 14.667 18.333 29 31 43s24.667 23.667 36 29c3.33301 2 5.16602 4.83301 5.49902 8.5s-1.16699 6.5 -4.5 8.5c-24.667 16.667 -41.667 40.667 -51 72
c-4.66699 14 -3.66699 37.333 3 70c7.33301 36 7.66602 62.667 0.999023 80c-17.333 45.333 -47.333 77.333 -90 96c-1.33301 0.666992 -2.66602 1 -3.99902 1z" />
    <glyph glyph-name="asciitilde" unicode="~" horiz-adv-x="480" 
d="M286 307c-10 -0.666992 -23.0039 -2.99512 -39.0039 -6.99512c-15.333 -4.66699 -34.333 -18.334 -57 -41.001l-28 -31c-2.66699 -4 -2.66699 -8 0 -12s6.33398 -5.33301 11.001 -4l20.5 7c13.667 4.66699 23.334 7.5 29.001 8.5s14.667 2.16699 27 3.5
s24 0.666016 35 -2.00098s22.167 -7.33398 33.5 -14.001c29.333 -16.667 54 -26.667 74 -30c16.667 -2.66699 37 -1 61 5c18 5.33301 36.667 16.666 56 33.999c8.66699 7.33301 15.667 14.666 21 21.999c6.66699 9.33301 10 17.333 10 24c0 4 -1.83301 7 -5.5 9
s-7.16699 1.66699 -10.5 -1c-13.333 -8.66699 -33.166 -13.167 -59.499 -13.5s-54.166 4.5 -83.499 14.5c-39.333 15.333 -65.666 24.333 -78.999 27c-4.66699 0.666992 -9.33398 1 -14.001 1h-2z" />
    <glyph glyph-name="copyright" unicode="&#xa9;" 
d="M358 439c-46.667 0 -92.332 -17.668 -136.999 -53.001c-25.333 -19.333 -46.333 -41.666 -63 -66.999s-27.334 -51.333 -32.001 -78c-5.33301 -36.667 4.66699 -74 30 -112c26.667 -39.333 58 -61.666 94 -66.999c52.667 -8.66699 106.667 8.33301 162 51
c24.667 20 45.5 42.5 62.5 67.5s27.5 50.833 31.5 77.5c6 36.667 -4 74 -30 112c-26 39.333 -57 61.666 -93 66.999c-6.66699 1.33301 -13.667 2 -21 2h-4zM331.002 397.999l9 -0.000976562c30 -4 56.333 -23.333 79 -58c22 -34 31 -67 27 -99
c-4 -35.333 -22.333 -68.333 -55 -99c-33.333 -30.667 -66.333 -44 -99 -40c-29.333 3.33301 -55.333 22.333 -78 57c-22.667 34 -32 67 -28 99c4.66699 35.333 23 68.333 55 99c28.667 26.667 57.667 40.334 87 41.001h3zM333.002 357.998l-3 -0.00585938
c-22.667 -1.33301 -43.667 -13.666 -63 -36.999c-20.667 -24 -33 -50 -37 -78c-2 -17.333 1.33301 -35 10 -53c10 -19.333 23 -32 39 -38c16 -5.33301 33.333 -3.66602 52 5.00098c4.66699 2 9.66699 4.66699 15 8c8.66699 5.33301 17.334 13.333 26.001 24
c1.33301 1.33301 2 3 2 5c0 2.66699 -1 5.33398 -3 8.00098s-5 3.66699 -9 3c-2 -0.666992 -4 -2 -6 -4c-5.33301 -6.66699 -12.333 -13 -21 -19h-1c-5.33301 -2.66699 -11.333 -3 -18 -1c-11.333 4 -20.333 13 -27 27s-9.66699 28.333 -9 43
c1.33301 20.667 8 40.334 20 59.001s25 28 39 28l1 -0.5l1 -0.5c4.66699 -1.33301 8 -3.66602 10 -6.99902c3.33301 -4.66699 3.66602 -9 0.999023 -13c-2 -2.66699 -2.66699 -5.16699 -2 -7.5s2.16699 -4.33301 4.5 -6s4.83301 -2.16699 7.5 -1.5s4.66699 2 6 4
c6 8.66699 9 16.334 9 23.001c0.666992 8 -2 14.333 -8 19c-9.33301 6.66699 -21.333 10 -36 10z" />
    <glyph glyph-name="registered" unicode="&#xae;" 
d="M358 439c-46.667 0 -92.332 -17.668 -136.999 -53.001c-25.333 -19.333 -46.333 -41.666 -63 -66.999s-27.334 -51.333 -32.001 -78c-5.33301 -36.667 4.66699 -74 30 -112c26.667 -39.333 58 -61.666 94 -66.999c52.667 -8.66699 106.667 8.33301 162 51
c24.667 20 45.5 42.5 62.5 67.5s27.5 50.833 31.5 77.5c6 36.667 -4 74 -30 112c-26 39.333 -57 61.666 -93 66.999c-6.66699 1.33301 -13.667 2 -21 2h-4zM331.002 397.999l9 -0.000976562c30 -4 56.333 -23.333 79 -58c22 -34 31 -67 27 -99
c-4 -35.333 -22.333 -68.333 -55 -99c-33.333 -30.667 -66.333 -44 -99 -40c-29.333 3.33301 -55.333 22.333 -78 57c-22.667 34 -32 67 -28 99c4.66699 35.333 23 68.333 55 99c28.667 26.667 57.667 40.334 87 41.001h3zM328.002 342.998
c-5.33301 0 -12.501 -0.165039 -21.501 -0.498047s-15.167 -0.5 -18.5 -0.5c-6.66699 0 -10 -3.33301 -10 -10v-3c5.33301 -16.667 1.33301 -44 -12 -82c-4.66699 -15.333 -10.334 -29.666 -17.001 -42.999c-6.66699 -12.667 -12 -21 -16 -25c-2 -2 -3 -4.33301 -3 -7
c0 -6.66699 3.33301 -10 10 -10c10.667 0 20.334 7 29.001 21c6 10 12 24 18 42c0.666992 1.33301 1.33398 3.16602 2.00098 5.49902s1 3.83301 1 4.5v-5c2 -18 10.333 -33.333 25 -46c16.667 -13.333 35.667 -17.333 57 -12c5.33301 1.33301 8 4.66602 8 9.99902
c0 4.66699 -2.33301 7.66699 -7 9c-15.333 5.33301 -28 12.333 -38 21c-10 9.33301 -15 19 -15 29c0 3.33301 1.66699 6.33301 5 9s9.66602 6 18.999 10c10.667 5.33301 18.334 9.66602 23.001 12.999c9.33301 6.66699 15.333 14.667 18 24c3.33301 14 1 25 -7 33
c-6 6.66699 -15.333 10.667 -28 12c-4.66699 0.666992 -10 1 -16 1h-6zM345.001 315c5.33301 0 9.00098 -0.666016 11.001 -1.99902c2 -0.666992 3.66699 -2.33398 5 -5.00098c0.666992 -2 0.666992 -3.66699 0 -5c-0.666992 -2 -2 -4 -4 -6c-4 -4 -12 -9.33301 -24 -16
c-14 -8 -23.667 -14.333 -29 -19c-4 -4 -7.33301 -8.33301 -10 -13c4 15.333 8.66699 36.333 14 63c5.33301 0 12.166 0.5 20.499 1.5s13.833 1.5 16.5 1.5z" />
    <glyph glyph-name="kokaithai" unicode="&#xe01;" horiz-adv-x="400" 
d="M200 470c-3.33301 0 -6.00391 -1.16504 -8.00391 -3.49805s-2.66699 -5.16602 -2 -8.49902c6.66699 -31.333 10 -54 10 -68c0 -20 -6 -51.667 -18 -95c-10 -35.333 -23.667 -77 -41 -125c-20 -56 -40 -108 -60 -156c-1.33301 -2 -1.5 -4.33301 -0.5 -7
s2.5 -4.66699 4.5 -6s4.33301 -1.66602 7 -0.999023s4.66699 2 6 4v1h1v1c36 66 69 142 99 228c16 45.333 27 83.333 33 114c4.66699 26.667 6 46.667 4 60c50.667 -7.33301 90.667 -19.666 120 -36.999c24.667 -14 43.334 -32.667 56.001 -56
c14.667 -24.667 21 -49.334 19 -74.001c-1.33301 -16 -5.66602 -33.333 -12.999 -52s-14 -33.334 -20 -44.001s-16 -27.334 -30 -50.001c-12.667 -20.667 -22.5 -37.334 -29.5 -50.001s-13.5 -29 -19.5 -49s-8.66699 -38.667 -8 -56s4.83398 -33.833 12.501 -49.5
s18.167 -28.5 31.5 -38.5c15.333 -11.333 41 -18.333 77 -21c16.667 -1.33301 32.667 -1.66602 48 -0.999023c5.33301 -0.666992 9 1.66602 11 6.99902c0.666992 2 0.5 4.16699 -0.5 6.5s-2.5 4.16602 -4.5 5.49902h-1c-13.333 6.66699 -27.333 15 -42 25
c-28.667 19.333 -46.334 36 -53.001 50c-7.33301 15.333 -10.666 35.333 -9.99902 60c0.666992 21.333 4 38.666 10 51.999c8 18.667 21.333 44.5 40 77.5s33 62.167 43 87.5s16 51.333 18 78c2 28.667 -5 57.334 -21 86.001c-16 28 -37.333 49.333 -64 64
c-14.667 8 -32.167 14.667 -52.5 20s-37.666 8.83301 -51.999 10.5s-32.833 3.66699 -55.5 6l-44 4.5h-1z" />
    <glyph glyph-name="khokhaithai" unicode="&#xe02;" horiz-adv-x="360" 
d="M493 463c-20 -0.666992 -36.332 -5.66406 -48.999 -14.9971c-30 -23.333 -49.333 -63 -58 -119c-4 -25.333 -6 -68.333 -6 -129c0 -34 -1.33301 -59.667 -4 -77c-6 -31.333 -16.667 -53 -32 -65c-4.66699 -4 -10.834 -5.83301 -18.501 -5.5
s-14.167 2.16602 -19.5 5.49902c-10.667 8 -16 25.333 -16 52c0 13.333 2.33301 27 7 41s11.834 30.833 21.501 50.5s16.5 34.5 20.5 44.5c1.33301 2.66699 5.83301 12.667 13.5 30s12.834 31 15.501 41c10 30.667 10.333 56.334 1 77.001
c-6.66699 14.667 -17.667 26.5 -33 35.5s-31 12.5 -47 10.5c-24 -2.66699 -48.667 -17.667 -74 -45c-15.333 -16.667 -30 -36.667 -44 -60l-11 -20c-4 -7.33301 -7.66699 -14.666 -11 -21.999c-11.333 -23.333 -22.333 -48.666 -33 -75.999l-5 -13
c-1.33301 -7.33301 0 -11.666 4 -12.999c3.33301 -1.33301 6 -1.5 8 -0.5s3.66699 2.16699 5 3.5l1 2c1.33301 3.33301 3.33301 8 6 14c10.667 27.333 21.334 52 32.001 74c3.33301 8 7 15 11 21l11 20c20 34 40.667 52.333 62 55
c12.667 1.33301 26.167 -1.33398 40.5 -8.00098s24.166 -15.334 29.499 -26.001c7.33301 -16 7 -36.667 -1 -62c-2.66699 -9.33301 -7.83398 -22.333 -15.501 -39s-12.167 -27 -13.5 -31c-2.66699 -7.33301 -6.16699 -14.666 -10.5 -21.999l-15.5 -25.5
c-6 -9.66699 -10.333 -16.834 -13 -21.501c-16.667 -28.667 -24 -54 -22 -76c1.33301 -14.667 6 -28 14 -40c8.66699 -14.667 19.667 -24.334 33 -29.001c15.333 -4.66699 32 -3.33398 50 3.99902c16 6.66699 29.667 16.667 41 30c18 21.333 28.667 54.666 32 99.999
c3.33301 55.333 6.66602 89.666 9.99902 102.999c0.666992 4.66699 2.5 14.667 5.5 30s5.33301 26.666 7 33.999s4.16699 16.833 7.5 28.5s7.33301 21.834 12 30.501s10 16.667 16 24c21.333 26 49 41.333 83 46c4.66699 0.666992 7.5 3.16699 8.5 7.5
s-0.166992 7.83301 -3.5 10.5c-12 9.33301 -28.333 14.333 -49 15h-4z" />
    <glyph glyph-name="khokhuatthai" unicode="&#xe03;" horiz-adv-x="380" 
d="M524 461c-15.333 0 -28.6631 -4.3418 -39.9961 -13.0088c-30 -23.333 -49.333 -63 -58 -119c-4 -25.333 -6 -68.333 -6 -129c0 -34 -1.33301 -59.667 -4 -77c-6 -31.333 -16.667 -53 -32 -65c-6 -4.66699 -13.833 -7 -23.5 -7s-17.834 2.33301 -24.501 7
c-6 4 -10.333 11 -13 21c-2 8 -3 18.333 -3 31c-0.666992 44 12.333 89 39 135c45.333 78.667 73.333 128.334 84 149.001c5.33301 9.33301 9 16.666 11 21.999c1.33301 3.33301 2.33301 6 3 8v4c0.666992 3.33301 -0.333008 6 -3 8
c-2.66699 3.33301 -6.33398 4.33301 -11.001 3l-4 -2c-2 -1.33301 -4.33301 -3.33301 -7 -6c-4.66699 -5.33301 -11.334 -13.666 -20.001 -24.999v0v0c-13.333 -17.333 -23 -26.666 -29 -27.999c-2 0 -4.83301 0.833008 -8.5 2.5s-9.83398 5.5 -18.501 11.5
c-6 4 -13.833 10.5 -23.5 19.5s-14.834 13.833 -15.501 14.5c-7.33301 6 -14 10 -20 12c-8 3.33301 -16.333 4 -25 2c-20.667 -6.66699 -38.167 -17.167 -52.5 -31.5s-30.166 -35.5 -47.499 -63.5c-24.667 -37.333 -45.334 -84.666 -62.001 -141.999
c-0.666992 -2.66699 -0.333984 -5.16699 0.999023 -7.5s3.33301 -3.83301 6 -4.5s5.16699 -0.5 7.5 0.5s4.16602 2.83301 5.49902 5.5c18 54.667 37.333 97 58 127s35.334 48.667 44.001 56c6.66699 5.33301 12.667 8.33301 18 9c6 0.666992 12.333 -1.66602 19 -6.99902
l20.5 -18c9 -8 17 -14.5 24 -19.5s14.5 -9.5 22.5 -13.5s15.333 -5.33301 22 -4c4 0.666992 8 2 12 4c-33.333 -54.667 -54.333 -93.667 -63 -117c-2 -5.33301 -5 -12.666 -9 -21.999s-7.16699 -17.166 -9.5 -23.499s-5 -14 -8 -23s-5.33301 -17.167 -7 -24.5
s-3.16699 -15.166 -4.5 -23.499s-1.83301 -16.666 -1.5 -24.999s1.16602 -16.5 2.49902 -24.5c5.33301 -26 17.666 -42 36.999 -48c17.333 -5.33301 35.333 -4.66602 54 2.00098s34.334 17 47.001 31c18.667 22 29.334 55.667 32.001 101
c0.666992 4.66699 1.33398 15.5 2.00098 32.5s1.5 30.833 2.5 41.5s2.83301 20.334 5.5 29.001l8.5 38.5c3.66699 17 6.83398 30.667 9.50098 41s6.66699 21.833 12 34.5s11.333 23.667 18 33s12.334 16.5 17.001 21.5s11.167 10 19.5 15s17.166 8.16699 26.499 9.5
c4.66699 0.666992 7.5 3.16699 8.5 7.5s-0.166992 7.83301 -3.5 10.5c-12 9.33301 -26 13.666 -42 12.999z" />
    <glyph glyph-name="khokhwaithai" unicode="&#xe04;" 
d="M408 449c-1.33301 0 -2.34375 -0.328125 -3.01074 -0.995117c-28.667 -0.666992 -59 -9 -91 -25c-44 -22.667 -84.333 -54.667 -121 -96c-34 -38.667 -59.167 -83.5 -75.5 -134.5s-18.833 -99.167 -7.5 -144.5c5.33301 -20.667 14.333 -34.667 27 -42
c8.66699 -5.33301 20 -7.33301 34 -6s28.333 13 43 35c3.33301 4.66699 7 10.667 11 18c3.33301 5.33301 7 12 11 20l15 29c34 66 64.667 105.667 92 119c7.33301 4 15 6.16699 23 6.5s13.667 -1.16699 17 -4.5c3.33301 -4 5 -9 5 -15c0 -2 -0.333008 -5 -1 -9
c-3.33301 -10 -1.66602 -17 5.00098 -21c4.66699 -2.66699 8.33398 -0.666992 11.001 6c1.33301 3.33301 2.33301 6.66602 3 9.99902c2 7.33301 3.33301 14.666 4 21.999c1.33301 18 -3 31.667 -13 41c-8 8 -18.667 11.667 -32 11
c-11.333 -0.666992 -21.666 -3.66699 -30.999 -9c-29.333 -16 -57.666 -52.333 -84.999 -109l-15.5 -34.5c-6.33301 -14.333 -10.166 -22.5 -11.499 -24.5c-3.33301 -7.33301 -6.66602 -14 -9.99902 -20c0 -0.666992 -0.666992 -2 -2 -4l-7 -10c-8 -7.33301 -16 -10 -24 -8
c-9.33301 2.66699 -15.666 10.667 -18.999 24c-11.333 39.333 -11.5 81.666 -0.5 126.999s30.167 83 57.5 113c26 28.667 57 50 93 64c38.667 15.333 72.334 16.666 101.001 3.99902c21.333 -9.33301 38 -29.333 50 -60c10.667 -28.667 13.667 -55 9 -79
c-1.33301 -7.33301 -3.5 -15.333 -6.5 -24s-5.83301 -16.167 -8.5 -22.5s-6.66699 -14.666 -12 -24.999s-9.5 -18 -12.5 -23l-15 -25.5c-7 -12 -11.5 -20 -13.5 -24c-17.333 -30.667 -30.666 -58.334 -39.999 -83.001s-13.333 -49.667 -12 -75
c0.666992 -17.333 4.83398 -33.833 12.501 -49.5s18.167 -28.5 31.5 -38.5c15.333 -11.333 41 -18.333 77 -21l49 -1c5.33301 0 8.5 2.5 9.5 7.5s-0.5 8.83301 -4.5 11.5c-13.333 6.66699 -27.666 15 -42.999 25c-28.667 19.333 -46.334 36 -53.001 50
c-7.33301 15.333 -10.666 35.333 -9.99902 60c0.666992 21.333 4 38.666 10 51.999c8 17.333 20.667 43.166 38 77.499s30.833 63.833 40.5 88.5s17.167 50 22.5 76c5.33301 28.667 2 59.334 -10 92.001c-14 35.333 -34.333 58.333 -61 69c-16 6.66699 -33 10 -51 10z" />
    <glyph glyph-name="khokhonthai" unicode="&#xe05;" horiz-adv-x="480" 
d="M361 444c-10.667 0 -20.3418 -1.33301 -29.0088 -4c-54 -16.667 -100.667 -54.667 -140 -114c-73.333 -110 -100.666 -202.667 -81.999 -278c5.33301 -20.667 14.333 -34.667 27 -42c8.66699 -5.33301 20 -7.33301 34 -6s28.333 13 43 35c3.33301 4.66699 7 10.667 11 18
c3.33301 5.33301 7 12 11 20l15 29c34 66 64.667 105.667 92 119c7.33301 4 15 6.16699 23 6.5s13.667 -1.16699 17 -4.5c3.33301 -4 5 -9 5 -15c0 -2 -0.333008 -5 -1 -9c-3.33301 -10 -1.66602 -17 5.00098 -21c4.66699 -2.66699 8.33398 -0.666992 11.001 6
c1.33301 3.33301 2.33301 6.66602 3 9.99902c2 7.33301 3.33301 14.666 4 21.999c1.33301 18 -3 31.667 -13 41c-8 8 -18.667 11.667 -32 11c-11.333 -0.666992 -21.666 -3.66699 -30.999 -9c-29.333 -16 -57.666 -52.333 -84.999 -109l-15.5 -34.5
c-6.33301 -14.333 -10.166 -22.5 -11.499 -24.5c-3.33301 -7.33301 -6.66602 -14 -9.99902 -20c0 -0.666992 -0.666992 -2 -2 -4l-7 -10c-8 -7.33301 -16 -10 -24 -8c-9.33301 2.66699 -15.666 10.667 -18.999 24c-11.333 38 -11.166 79.333 0.500977 124
s30.834 83.667 57.501 117c16.667 20.667 38.334 38 65.001 52c27.333 14 50.666 18.667 69.999 14c12 -2.66699 36.5 -11.167 73.5 -25.5s65.833 -23.833 86.5 -28.5c11.333 -2.66699 22 -4.33398 32 -5.00098l-25 -41c-36.667 -62 -67.334 -123.667 -92.001 -185
s-37.334 -113 -38.001 -155c0 -16.667 4 -33 12 -49s18.667 -29 32 -39c15.333 -11.333 41 -18.333 77 -21l49 -1c5.33301 0 8.5 2.5 9.5 7.5s-0.5 8.83301 -4.5 11.5c-13.333 6.66699 -27.333 15 -42 25c-28.667 19.333 -46.667 36.333 -54 51
c-15.333 28.667 -18.333 66.334 -9 113.001c12 58 48.667 141.333 110 250l24 39h1c22.667 10 39.334 29 50.001 57c2 4 3.33301 8.33301 4 13h1c1.33301 4.66699 1.66602 8 0.999023 10c0.666992 4 0.333984 7.33301 -0.999023 10c-0.666992 3.33301 -2.33398 6 -5.00098 8
c-3.33301 2.66699 -7 3.33398 -11 2.00098c-4 -0.666992 -9 -3.33398 -15 -8.00098l-15 -15l-20 -26c-15.333 2.66699 -36.666 9.33398 -63.999 20.001c-51.333 20 -83.333 31.667 -96 35c-23.333 6.66699 -43 10.334 -59 11.001h-4z" />
    <glyph glyph-name="khorakhangthai" unicode="&#xe06;" horiz-adv-x="480" 
d="M600 465c-24.667 0 -43.6689 -5.66797 -57.002 -17.001c-29.333 -26.667 -45.666 -63.334 -48.999 -110.001c-2.66699 -33.333 2 -80 14 -140c6 -30 8 -61 6 -93c-0.666992 -16.667 -2.66699 -30 -6 -40c-3.33301 -9.33301 -7 -14.333 -11 -15
c-14 -4.66699 -27 -1.33398 -39 9.99902c-9.33301 9.33301 -21.333 27.333 -36 54c-17.333 32.667 -30 54.667 -38 66c-7.33301 9.33301 -15 17.333 -23 24c6.66699 13.333 12.334 23.333 17.001 30c41.333 62 72 115.667 92 161c4.66699 9.33301 7.66699 17 9 23
c1.33301 3.33301 2 6.33301 2 9c0 2 -0.333008 3.66699 -1 5c-1.33301 3.33301 -3.33301 5.66602 -6 6.99902c-4 2 -8.33301 1.33301 -13 -2c-2 -1.33301 -4.66699 -3.33301 -8 -6c-5.33301 -5.33301 -12.333 -13.333 -21 -24v-1v0c-13.333 -17.333 -23 -26.666 -29 -27.999
c-2 0 -4.83301 0.833008 -8.5 2.5s-9.83398 5.5 -18.501 11.5c-2 0.666992 -9.16699 5.5 -21.5 14.5l-28.5 20.5c-22 12.667 -40 17 -54 13c-20.667 -6.66699 -38.167 -17.167 -52.5 -31.5s-30.166 -35.5 -47.499 -63.5c-24.667 -37.333 -45.334 -84.666 -62.001 -141.999
c-0.666992 -2.66699 -0.333984 -5.16699 0.999023 -7.5s3.33301 -3.83301 6 -4.5s5.16699 -0.5 7.5 0.5s4.16602 2.83301 5.49902 5.5c18 54.667 37.333 97 58 127c17.333 25.333 30.666 41.333 39.999 48c12.667 9.33301 27.667 12 45 8
c14.667 -3.33301 30.5 -11.666 47.5 -24.999s28.833 -21.333 35.5 -24c8 -4 15.5 -5.33301 22.5 -4s14.167 5 21.5 11c5.33301 4.66699 12.333 12 21 22c-19.333 -36.667 -39 -71.667 -59 -105c-7.33301 -11.333 -14.666 -24.333 -21.999 -39c-4.66699 2 -9 3.33301 -13 4
c-38 6.66699 -73.667 -6.33301 -107 -39c-26 -26 -45.667 -58.667 -59 -98c-7.33301 -19.333 -9.66602 -39.666 -6.99902 -60.999c4 -25.333 14.667 -42.333 32 -51c12 -6 25.667 -4 41 6c8 5.33301 18 14 30 26c25.333 26 50 70.333 74 133
c8.66699 -10.667 20.334 -28 35.001 -52c20 -32.667 36 -55 48 -67c21.333 -21.333 43.666 -30.333 66.999 -27c20 2.66699 34.667 14.667 44 36c6.66699 16 10.334 38.333 11.001 67c0.666992 18.667 -0.166016 45.167 -2.49902 79.5s-3.5 56.833 -3.5 67.5
c0 33.333 3.66699 60.5 11 81.5s19.666 41.833 36.999 62.5c21.333 26 49 41.333 83 46c4.66699 0.666992 7.5 3.16699 8.5 7.5s-0.166992 7.83301 -3.5 10.5c-13.333 10 -32.666 15.667 -57.999 17h-8zM275.998 169.999l2.00098 0.00195312c12.667 0 25 -5.33301 37 -16
c0 -0.666992 -0.333008 -1.66699 -1 -3l-1 -2c-14 -32 -24.333 -53.333 -31 -64c-1.33301 -1.33301 -5 -7.33301 -11 -18s-10.667 -18.334 -14 -23.001c-4.66699 -6 -9 -10.333 -13 -13c-4 -2 -7.83301 -2.5 -11.5 -1.5s-6.83398 3.5 -9.50098 7.5
c-2 4 -3.66699 9.66699 -5 17c-2 13.333 -1.33301 28 2 44c3.33301 18 9.33301 33.667 18 47c10 15.333 21 23.666 33 24.999h5z" />
    <glyph glyph-name="ngonguthai" unicode="&#xe07;" 
d="M405 443c-6.66699 0 -12.999 -1.33984 -18.999 -4.00684c-28 -10.667 -49 -27.667 -63 -51c-8.66699 -13.333 -12.667 -27 -12 -41c1.33301 -16 8.66602 -30.667 21.999 -44c2 -2 4.16699 -3 6.5 -3s4.5 0.666992 6.5 2s3.16699 3.33301 3.5 6s0.166016 5 -0.500977 7
c-11.333 18.667 -13.666 33.667 -6.99902 45c5.33301 8 15.666 15 30.999 21c8.66699 2.66699 18.667 0.333984 30 -6.99902s21 -17 29 -29c17.333 -27.333 28 -58.666 32 -93.999s-0.333008 -67.666 -13 -96.999c-16.667 -36 -37 -64.333 -61 -85
c-29.333 -25.333 -58 -32 -86 -20c-10.667 5.33301 -19.334 17 -26.001 35c-4 10.667 -9 30.667 -15 60c-5.33301 28.667 -11 49.667 -17 63c-10 22 -24.333 36.333 -43 43c-8.66699 2.66699 -19 1.66699 -31 -3c-8.66699 -3.33301 -18 -8.33301 -28 -15l-31 -25
c-3.33301 -3.33301 -3.83301 -7.16602 -1.5 -11.499s5.83301 -6.16602 10.5 -5.49902c4.66699 1.33301 9.66699 2.33301 15 3c9.33301 0.666992 15.333 0 18 -2c11.333 -6 20 -15.833 26 -29.5s12 -32.167 18 -55.5c6.66699 -25.333 13 -43.666 19 -54.999
c9.33301 -19.333 22 -32.666 38 -39.999c33.333 -16 76.333 -9.33301 129 20c26.667 15.333 51.334 36.5 74.001 63.5s39.334 54.167 50.001 81.5s15 62.333 13 105c-2.66699 48.667 -14 87 -34 115c-11.333 16 -26 28.333 -44 37c-12.667 6.66699 -24.667 10 -36 10h-3z
" />
    </font>
</defs>
</svg>
